<?xml version="1.0" encoding="utf-8" ?>
<svg xmlns="http://www.w3.org/2000/svg" xmlns:xlink="http://www.w3.org/1999/xlink" width="256" height="256">
	<path fill="#A1CE35" transform="scale(0.25 0.25)" d="M552.649 251.773C560.161 246.354 564.275 236.888 572.002 231.521C582.565 244.841 590.096 258.04 591.796 275.225C589.874 277.229 589.828 291.688 588.89 295.944C586.236 307.985 581.049 319.058 574.628 329.51C570.153 332.238 566.069 335.121 562.147 338.6L561.762 334.085C556.433 313.093 550.746 300.79 533.227 287.42Q533.484 286.158 533.788 284.907Q534.093 283.656 534.443 282.417Q534.793 281.178 535.19 279.953Q535.586 278.727 536.028 277.518Q536.469 276.308 536.956 275.116Q537.442 273.924 537.972 272.75Q538.502 271.577 539.076 270.424Q539.65 269.271 540.266 268.141Q540.882 267.01 541.539 265.903Q542.197 264.796 542.896 263.714Q543.594 262.632 544.332 261.577Q545.07 260.522 545.847 259.495Q546.624 258.468 547.439 257.471Q548.253 256.474 549.104 255.508Q549.955 254.541 550.842 253.607Q551.728 252.673 552.649 251.773Z"/>
	<path fill="#5FA934" transform="scale(0.25 0.25)" d="M572.002 231.521C582.565 244.841 590.096 258.04 591.796 275.225C589.874 277.229 589.828 291.688 588.89 295.944C586.236 307.985 581.049 319.058 574.628 329.51C570.153 332.238 566.069 335.121 562.147 338.6L561.762 334.085C568.262 322.448 569.786 250.979 572.002 231.521Z"/>
	<path fill="#A1CE35" transform="scale(0.25 0.25)" d="M591.796 275.225C595.834 271.361 599.42 264.345 603.318 259.799C613.492 247.933 627.851 238.732 641.322 230.943C644.69 228.995 653.762 222.861 657.484 223.859Q658.037 225.055 658.564 226.264Q659.09 227.472 659.589 228.692Q660.089 229.912 660.56 231.143Q661.032 232.374 661.476 233.615Q661.92 234.856 662.336 236.107Q662.752 237.358 663.141 238.618Q663.528 239.878 663.888 241.146Q664.248 242.414 664.579 243.69Q664.91 244.966 665.213 246.249Q665.515 247.532 665.789 248.821Q666.062 250.111 666.307 251.406Q666.552 252.701 666.767 254.002Q666.983 255.302 667.169 256.607Q667.356 257.912 667.513 259.221Q667.67 260.529 667.798 261.841Q667.926 263.153 668.024 264.468Q668.122 265.782 668.191 267.099Q668.26 268.415 668.299 269.733Q668.339 271.05 668.349 272.368Q668.358 273.687 668.339 275.005Q668.319 276.323 668.27 277.64Q668.22 278.957 668.142 280.273Q668.063 281.589 667.955 282.903Q667.846 284.216 667.709 285.527Q667.571 286.838 667.404 288.146Q667.237 289.453 667.041 290.757Q666.844 292.06 666.619 293.359Q666.394 294.658 666.139 295.951Q665.885 297.245 665.601 298.532Q665.318 299.819 665.006 301.1Q664.694 302.381 664.353 303.654Q664.012 304.928 663.643 306.193C647.101 309.865 635.483 318.959 623.913 330.8C618.8 328.52 613.737 326.694 608.266 325.478C597.416 323.206 584.848 325.828 574.628 329.51C581.049 319.058 586.236 307.985 588.89 295.944C589.828 291.688 589.874 277.229 591.796 275.225Z"/>
	<path fill="#5FA934" transform="scale(0.25 0.25)" d="M657.484 223.859Q658.037 225.055 658.564 226.264Q659.09 227.472 659.589 228.692Q660.089 229.912 660.56 231.143Q661.032 232.374 661.476 233.615Q661.92 234.856 662.336 236.107Q662.752 237.358 663.141 238.618Q663.528 239.878 663.888 241.146Q664.248 242.414 664.579 243.69Q664.91 244.966 665.213 246.249Q665.515 247.532 665.789 248.821Q666.062 250.111 666.307 251.406Q666.552 252.701 666.767 254.002Q666.983 255.302 667.169 256.607Q667.356 257.912 667.513 259.221Q667.67 260.529 667.798 261.841Q667.926 263.153 668.024 264.468Q668.122 265.782 668.191 267.099Q668.26 268.415 668.299 269.733Q668.339 271.05 668.349 272.368Q668.358 273.687 668.339 275.005Q668.319 276.323 668.27 277.64Q668.22 278.957 668.142 280.273Q668.063 281.589 667.955 282.903Q667.846 284.216 667.709 285.527Q667.571 286.838 667.404 288.146Q667.237 289.453 667.041 290.757Q666.844 292.06 666.619 293.359Q666.394 294.658 666.139 295.951Q665.885 297.245 665.601 298.532Q665.318 299.819 665.006 301.1Q664.694 302.381 664.353 303.654Q664.012 304.928 663.643 306.193C647.101 309.865 635.483 318.959 623.913 330.8C618.8 328.52 613.737 326.694 608.266 325.478C610.67 322.167 612.404 317.685 614.286 314.023Q621.886 299.565 628.942 284.835C636.225 269.895 643.392 255.01 650.234 239.86C652.588 234.648 655.696 229.259 657.484 223.859Z"/>
	<path fill="#A1CE35" transform="scale(0.25 0.25)" d="M663.643 306.193C693.039 300.758 709.102 300.563 738.213 309.391C741.97 310.53 748.235 311.632 751.327 313.903C752.424 314.709 752.52 314.935 752.812 316.176C746.614 328.828 737.83 342.45 728.703 353.208C704.932 376.223 688.352 389.913 654.493 396.567C656.844 383.97 656.142 370.585 650.694 358.875C647.55 352.131 642.706 345.883 637.239 340.871C633.439 336.557 628.831 333.672 623.913 330.8C635.483 318.959 647.101 309.865 663.643 306.193Z"/>
	<path fill="#5FA934" transform="scale(0.25 0.25)" d="M650.694 358.875C657.916 355.686 664.81 350.895 671.912 347.292C693.199 336.491 715.257 326.873 738.285 320.425C743.024 319.098 747.964 316.8 752.812 316.176C746.614 328.828 737.83 342.45 728.703 353.208C704.932 376.223 688.352 389.913 654.493 396.567C656.844 383.97 656.142 370.585 650.694 358.875Z"/>
	<path fill="#C54948" transform="scale(0.25 0.25)" d="M499.546 222.756C508.701 226.743 517.472 232.047 526.202 236.886C535.036 241.782 544.087 246.414 552.649 251.773Q551.728 252.673 550.842 253.607Q549.955 254.541 549.104 255.508Q548.253 256.474 547.439 257.471Q546.624 258.468 545.847 259.495Q545.07 260.522 544.332 261.577Q543.594 262.632 542.896 263.714Q542.197 264.796 541.539 265.903Q540.882 267.01 540.266 268.141Q539.65 269.271 539.076 270.424Q538.502 271.577 537.972 272.75Q537.442 273.924 536.956 275.116Q536.469 276.308 536.028 277.518Q535.586 278.727 535.19 279.953Q534.793 281.178 534.443 282.417Q534.093 283.656 533.789 284.907Q533.484 286.158 533.227 287.42C528.414 285.121 523.765 282.91 518.741 281.074C504.324 275.525 488.657 276.839 474.613 283.078Q473.252 283.69 471.925 284.371Q470.597 285.051 469.306 285.799Q468.015 286.546 466.763 287.358Q465.511 288.171 464.303 289.045Q463.095 289.92 461.932 290.856Q460.77 291.791 459.657 292.785Q458.544 293.778 457.482 294.827Q456.421 295.876 455.415 296.977Q454.409 298.079 453.46 299.23Q452.511 300.382 451.622 301.58Q450.733 302.778 449.907 304.02Q449.08 305.262 448.318 306.545Q447.555 307.827 446.859 309.147Q446.164 310.466 445.536 311.82Q444.908 313.173 444.35 314.557Q443.792 315.941 443.305 317.351C443.176 317.713 443.063 318.08 442.957 318.449L441.183 322.382L427.398 332.699C423.915 330.439 419.926 328.737 416.09 327.175C412.2 325.714 408.012 325.514 404.115 324.137C396.176 312.988 386.369 303.52 373.806 297.629C379.553 293.27 386.039 289.64 392.229 285.945L419.488 269.763Q459.217 245.749 499.546 222.756Z"/>
	<path fill="#A1CE35" transform="scale(0.25 0.25)" d="M301.712 273.974C316.963 277.509 332.373 280.454 347.084 285.945C353.144 288.206 359.016 290.958 364.885 293.665C367.77 294.996 370.785 296.732 373.806 297.629C386.369 303.52 396.176 312.988 404.115 324.137C388.889 323.665 373.396 327.472 362.003 338.046C352.933 346.465 348.457 356.588 345.648 368.42L345.464 368.824C343.813 387.193 345.183 400.778 357.376 415.493C357.61 415.775 357.855 416.05 358.097 416.326Q352.57 418.034 347.004 419.609C335.565 425.111 326.977 431.877 317.884 440.626C297.3 435.039 268.964 423.393 256.426 405.749C250.228 397.028 250.557 389.406 252.252 379.357C250.208 376.867 247.731 374.764 245.359 372.594C241.413 368.452 235.195 363.412 232.959 358.064C237.234 354.206 242.398 351.344 247.453 348.645C267.303 338.045 287.886 332.992 310.007 329.911C306.798 314.733 307.466 303.505 310.075 288.39C308.755 283.726 304.075 278.356 301.712 273.974Z"/>
	<path fill="#5FA934" transform="scale(0.25 0.25)" d="M310.075 288.39C315.309 293.723 319.611 300.895 324.123 306.903Q333.614 319.363 343.812 331.252C332.637 329.76 321.267 328.534 310.007 329.911C306.798 314.733 307.466 303.505 310.075 288.39Z"/>
	<path fill="#5FA934" transform="scale(0.25 0.25)" d="M232.959 358.064Q252.487 357.863 271.977 359.112Q291.466 360.361 310.809 363.052C322.385 364.624 333.814 367.986 345.464 368.824C343.813 387.193 345.183 400.778 357.376 415.493C357.61 415.775 357.855 416.05 358.097 416.326Q352.57 418.034 347.004 419.609C335.565 425.111 326.977 431.877 317.884 440.626C297.3 435.039 268.964 423.393 256.426 405.749C250.228 397.028 250.557 389.406 252.252 379.357C250.208 376.867 247.731 374.764 245.359 372.594C241.413 368.452 235.195 363.412 232.959 358.064Z"/>
	<path fill="#841514" transform="scale(0.25 0.25)" d="M252.252 379.357C274.961 399.352 296.885 412.203 326.944 417.534C333.137 418.632 341.342 417.011 347.004 419.609C335.565 425.111 326.977 431.877 317.884 440.626C297.3 435.039 268.964 423.393 256.426 405.749C250.228 397.028 250.557 389.406 252.252 379.357Z"/>
	<path fill="#822498" transform="scale(0.25 0.25)" d="M442.957 318.449C443.063 318.08 443.176 317.713 443.305 317.351Q443.792 315.941 444.35 314.557Q444.908 313.173 445.536 311.82Q446.164 310.466 446.859 309.147Q447.555 307.827 448.318 306.545Q449.08 305.262 449.907 304.02Q450.733 302.778 451.622 301.58Q452.511 300.382 453.46 299.23Q454.409 298.079 455.415 296.977Q456.421 295.876 457.482 294.827Q458.544 293.778 459.657 292.785Q460.77 291.791 461.932 290.856Q463.095 289.92 464.303 289.045Q465.511 288.171 466.763 287.358Q468.015 286.546 469.306 285.799Q470.597 285.051 471.925 284.371Q473.252 283.69 474.613 283.078C488.657 276.839 504.324 275.525 518.741 281.074C523.765 282.91 528.414 285.121 533.227 287.42C550.746 300.79 556.433 313.093 561.762 334.085L562.147 338.6C561.433 340.08 554.071 351.837 552.82 353.479C551.79 356.834 549.981 361.151 550.048 364.678C548.607 368.711 548.355 373.123 547.95 377.362C548.201 383.08 548.882 388.59 549.903 394.218C542.796 393.838 536.028 395.164 529.102 396.601C527.067 397.023 524.382 398.003 522.392 398.067C522.224 398.187 522.057 398.309 521.887 398.427C518.901 400.498 514.816 401.666 511.572 403.481C499.439 410.267 494.325 421.18 490.801 434.062C488.519 443.207 487.229 453.838 489.305 463.159C489.943 466.023 494.381 476.676 494.186 478.114L490.008 479.805C482.57 483.263 474.117 485.864 465.861 486.048C456.802 486.14 448.615 483.885 440.22 480.676C438.137 479.985 436.052 478.774 434.059 477.832C427.708 473.681 422.437 469.082 417.348 463.467L412.495 457.393C409.066 450.785 406.101 444.379 404.802 436.973C400.538 437.079 396.213 436.645 391.957 436.387C377.63 433.389 368.465 426.155 358.097 416.326C357.855 416.05 357.61 415.775 357.376 415.493C345.183 400.778 343.813 387.193 345.464 368.824L345.648 368.42C348.457 356.588 352.933 346.465 362.003 338.046C373.396 327.472 388.889 323.665 404.115 324.137C408.012 325.514 412.2 325.714 416.09 327.175C419.926 328.737 423.915 330.439 427.398 332.699L441.183 322.382L442.957 318.449Z"/>
	<path fill="#621589" transform="scale(0.25 0.25)" d="M509.337 380.343C521.581 377.894 534.337 374.72 542.981 364.98C546.198 361.355 548.635 357.038 552.339 353.877C552.498 353.742 552.66 353.612 552.82 353.479C551.79 356.834 549.981 361.151 550.048 364.678C548.607 368.711 548.355 373.123 547.95 377.362C548.201 383.08 548.882 388.59 549.903 394.218C542.796 393.838 536.028 395.164 529.102 396.601C527.067 397.023 524.382 398.003 522.392 398.067C521.367 396.012 520.26 394.235 518.87 392.407C515.245 389.105 512.263 384.287 509.337 380.343Z"/>
	<path fill="#C54948" transform="scale(0.25 0.25)" d="M547.95 377.362C548.201 383.08 548.882 388.59 549.903 394.218C542.796 393.838 536.028 395.164 529.102 396.601C527.067 397.023 524.382 398.003 522.392 398.067C521.367 396.012 520.26 394.235 518.87 392.407C532.319 389.168 536.195 384.613 547.409 377.691L547.95 377.362Z"/>
	<path fill="#A243BE" transform="scale(0.25 0.25)" d="M442.957 318.449C443.063 318.08 443.176 317.713 443.305 317.351Q443.792 315.941 444.35 314.557Q444.908 313.173 445.536 311.82Q446.164 310.466 446.859 309.147Q447.555 307.827 448.318 306.545Q449.08 305.262 449.907 304.02Q450.733 302.778 451.622 301.58Q452.511 300.382 453.46 299.23Q454.409 298.079 455.415 296.977Q456.421 295.876 457.482 294.827Q458.544 293.778 459.657 292.785Q460.77 291.791 461.932 290.856Q463.095 289.92 464.303 289.045Q465.511 288.171 466.763 287.358Q468.015 286.546 469.306 285.799Q470.597 285.051 471.925 284.371Q473.252 283.69 474.613 283.078C488.657 276.839 504.324 275.525 518.741 281.074C527.843 293.875 533.363 302.968 530.623 319.329C529.068 328.616 524.157 336.895 516.433 342.344C503.189 351.685 482.043 352.827 466.598 350.038C459.215 348.705 451.088 345.581 446.828 339.044C442.896 333.009 443.082 325.375 442.957 318.449Z"/>
	<path fill="#F677B4" transform="scale(0.25 0.25)" d="M478.452 290.55C480.953 290.466 483.612 290.33 486.046 291.013C488.957 291.829 491.641 293.601 493.061 296.331C494.347 298.801 494.421 301.699 493.55 304.314C491.728 309.784 487.154 312.469 482.256 314.766C479.034 315.683 475.549 315.881 472.358 314.683Q471.9 314.508 471.462 314.286Q471.024 314.064 470.612 313.799Q470.199 313.533 469.816 313.227Q469.433 312.92 469.083 312.576Q468.734 312.232 468.421 311.853Q468.109 311.475 467.837 311.066Q467.565 310.658 467.337 310.224Q467.109 309.789 466.926 309.334C465.617 306.146 465.926 302.475 467.375 299.392C469.681 294.485 473.609 292.317 478.452 290.55Z"/>
	<path fill="#A243BE" transform="scale(0.25 0.25)" d="M444.764 363.9C456.242 361.426 466.892 359.716 477.356 366.54C486.006 372.182 491.375 381.53 493.371 391.531Q493.589 392.628 493.751 393.734Q493.914 394.841 494.021 395.954Q494.128 397.067 494.179 398.184Q494.23 399.302 494.226 400.42Q494.221 401.538 494.16 402.655Q494.1 403.772 493.983 404.884Q493.867 405.996 493.695 407.101Q493.523 408.206 493.296 409.301Q493.069 410.396 492.787 411.479Q492.506 412.561 492.17 413.628Q491.835 414.695 491.447 415.744Q491.058 416.792 490.618 417.82Q490.178 418.849 489.687 419.853Q489.196 420.858 488.655 421.837Q488.114 422.816 487.525 423.766Q486.936 424.717 486.3 425.637C479.085 436.294 467.31 444.827 454.55 447.193Q453.541 447.382 452.525 447.521Q451.508 447.66 450.486 447.749Q449.463 447.837 448.438 447.874Q447.412 447.911 446.386 447.897Q445.36 447.883 444.336 447.818Q443.312 447.753 442.292 447.637Q441.273 447.521 440.26 447.354Q439.248 447.188 438.245 446.971Q437.242 446.754 436.251 446.488Q435.26 446.221 434.284 445.906Q433.307 445.59 432.348 445.226Q431.388 444.862 430.448 444.451Q429.508 444.04 428.589 443.583Q427.671 443.125 426.776 442.623Q425.881 442.12 425.013 441.574Q424.144 441.027 423.304 440.438Q422.418 439.819 421.562 439.157Q420.707 438.496 419.884 437.794Q419.062 437.092 418.274 436.351Q417.486 435.61 416.736 434.831Q415.985 434.053 415.272 433.239Q414.56 432.426 413.888 431.579Q413.216 430.732 412.585 429.853Q411.955 428.974 411.368 428.066Q410.781 427.158 410.238 426.223Q409.695 425.287 409.199 424.327Q408.702 423.366 408.252 422.383Q407.803 421.399 407.401 420.395Q406.999 419.391 406.647 418.369Q406.294 417.347 405.991 416.309Q405.689 415.271 405.436 414.219Q405.184 413.168 404.983 412.105Q404.827 411.228 404.734 410.343Q404.968 407.957 405.444 405.608Q405.92 403.259 406.633 400.97Q407.346 398.682 408.289 396.478Q409.231 394.273 410.393 392.177C417.986 378.282 429.566 368.372 444.764 363.9Z"/>
	<path fill="#F677B4" transform="scale(0.25 0.25)" d="M448.252 372.587C450.004 372.363 451.852 372.286 453.605 372.535C458.149 373.179 460.666 375.283 463.39 378.804L463.407 378.975C463.747 382.066 463.893 384.61 462.569 387.521C460.467 392.145 456.287 394.376 451.748 396.057C449.04 396.865 444.983 396.727 442.333 395.753C440.143 394.948 438.416 393.27 437.459 391.153C436.186 388.34 436.362 385.054 437.513 382.234C439.57 377.191 443.496 374.664 448.252 372.587Z"/>
	<path fill="#BF3068" transform="scale(0.25 0.25)" d="M427.398 332.699L441.183 322.382C440.137 328.285 439.052 334.107 438.8 340.113C438.567 347.106 443.173 356.742 444.764 363.9C429.566 368.372 417.986 378.282 410.393 392.177Q409.231 394.273 408.289 396.478Q407.346 398.682 406.633 400.97Q405.92 403.259 405.444 405.608Q404.968 407.957 404.734 410.343C403.294 419.584 403.291 427.768 404.802 436.973C400.538 437.079 396.213 436.645 391.957 436.387C377.63 433.389 368.465 426.155 358.097 416.326C357.855 416.05 357.61 415.775 357.376 415.493C345.183 400.778 343.813 387.193 345.464 368.824L345.648 368.42C348.457 356.588 352.933 346.465 362.003 338.046C373.396 327.472 388.889 323.665 404.115 324.137C408.012 325.514 412.2 325.714 416.09 327.175C419.926 328.737 423.915 330.439 427.398 332.699Z"/>
	<path fill="#F677B4" transform="scale(0.25 0.25)" d="M381.614 333.533C385.774 333.565 388.507 334.176 392.201 336.109C392.985 337.302 393.823 338.519 394.316 339.868C395.343 342.679 394.89 346.053 393.518 348.67C391.184 353.117 387.066 355.433 382.445 356.897C378.13 357.691 375.667 356.951 371.887 354.846C370.53 352.71 369.599 350.78 368.881 348.35C369.261 346.113 369.625 343.946 370.625 341.882C372.943 337.094 376.836 335.163 381.614 333.533Z"/>
	<path fill="#841F4B" transform="scale(0.25 0.25)" d="M427.398 332.699L441.183 322.382C440.137 328.285 439.052 334.107 438.8 340.113C438.567 347.106 443.173 356.742 444.764 363.9C429.566 368.372 417.986 378.282 410.393 392.177Q409.231 394.273 408.289 396.478Q407.346 398.682 406.633 400.97Q405.92 403.259 405.444 405.608Q404.968 407.957 404.734 410.343C403.294 419.584 403.291 427.768 404.802 436.973C400.538 437.079 396.213 436.645 391.957 436.387C377.63 433.389 368.465 426.155 358.097 416.326C357.855 416.05 357.61 415.775 357.376 415.493C345.183 400.778 343.813 387.193 345.464 368.824L345.648 368.42C346.703 372.901 349.211 377.216 352.164 380.723C359.016 388.861 368.128 393.324 378.681 394.22C390.385 395.215 401.63 391.382 410.571 383.84C419.339 376.445 425.749 366.431 426.661 354.811C427.562 343.317 423.348 335.634 416.09 327.175C419.926 328.737 423.915 330.439 427.398 332.699Z"/>
	<path fill="#AD583B" transform="scale(0.25 0.25)" d="M427.398 332.699L441.183 322.382C440.137 328.285 439.052 334.107 438.8 340.113L438.524 343.232C437.447 343.169 428.633 333.878 427.398 332.699Z"/>
	<path fill="#78A682" transform="scale(0.25 0.25)" d="M856.109 582.74C862.498 584.604 908.663 613.497 916.001 618.997C918.397 620.793 920.729 622.551 922.236 625.207C924.112 628.513 924.513 632.29 923.321 635.911C922.045 639.785 919.068 642.369 915.822 644.609C903.913 652.829 891.055 659.871 878.788 667.562L780.085 729.213C761.001 741.326 741.975 753.557 722.723 765.4L680.813 790.714Q668.576 798.229 656.562 806.096C650.845 809.815 645.136 814.045 638.946 816.923C620.889 825.319 597.637 809.184 578.742 807.336C572.385 806.714 565.869 806.903 559.477 806.803L527.524 806.124C521.21 805.995 514.841 806.135 508.542 805.675C522.281 794.762 538.719 785.929 553.669 776.694L625.854 731.76L856.169 588.592L856.109 582.74Z"/>
	<path fill="#A243BE" transform="scale(0.25 0.25)" d="M507.124 805.946C498.069 799.658 487.925 794.406 478.451 788.753L423.487 755.524L247.708 645.655L195.485 613.234C181.214 604.562 166.134 596.531 152.935 586.273C145.48 580.479 138.995 573.894 134.954 565.271Q134.086 563.42 133.38 561.502Q132.673 559.584 132.132 557.613Q131.592 555.642 131.222 553.632Q130.851 551.621 130.654 549.587C130.053 543.771 130.38 537.688 130.396 531.842L130.47 501.217Q130.554 486.665 130.37 472.115C130.286 465.722 129.908 459.219 130.224 452.834C130.391 449.45 130.871 445.97 132.102 442.798C135.684 433.566 143.265 432.406 151.311 428.766C155.122 429 158.013 429.251 161.502 430.925C171.244 435.599 180.441 442.291 189.628 448.002L238.528 478.122L418.887 589.659L477.808 626.084C487.758 632.246 497.691 639.297 508.04 644.693C509.696 654.612 508.637 666.189 507.963 676.213L508.061 676.621C515.58 675.026 566.736 641.106 577.779 634.405L837.859 476.706C839.076 488.527 838.553 500.691 838.538 512.572C838.602 521.03 839.046 529.704 838.469 538.137C838.481 540.747 838.534 543.276 838.073 545.857C841.881 547.894 854.81 553.97 856.204 557.883C856.283 558.106 856.283 558.35 856.323 558.584C856.004 566.628 856.101 574.691 856.109 582.74L856.169 588.592L625.854 731.76L553.669 776.694C538.719 785.929 522.281 794.762 508.542 805.675L507.124 805.946Z"/>
	<path fill="#841F4B" transform="scale(0.25 0.25)" d="M188.428 595.337Q186.463 594.247 184.589 593.007Q182.715 591.766 180.945 590.381Q179.175 588.997 177.52 587.478Q175.864 585.958 174.333 584.313C168.231 577.796 163.331 569.933 161.017 561.269C158.073 550.246 159.508 521.993 159.498 509.311C159.491 499.634 158.86 489.857 159.225 480.196C159.328 477.462 159.269 471.239 161.628 469.526C163.679 468.038 166.732 468.471 169.116 468.569L168.96 520.065C168.853 532.798 167.241 547.253 170.058 559.716C172.215 569.258 178.081 580.633 184.85 587.705C185.382 588.26 185.921 588.651 186.592 589.02C187.717 590.757 188.04 592.998 189.471 594.409L188.428 595.337Z"/>
	<path fill="#F0972F" transform="scale(0.25 0.25)" d="M169.116 468.569C177.17 472.542 186.535 476.908 193.496 482.605C194.548 495.477 194.047 508.587 194.001 521.499C194.014 526.158 193.865 530.875 194.048 535.527C193.22 546.651 191.109 562.385 199.037 571.472C200.694 573.371 203.214 575.434 205.516 576.535C199.446 581.117 191.932 583.438 186.592 589.02C185.921 588.651 185.382 588.26 184.85 587.705C178.081 580.633 172.215 569.258 170.058 559.716C167.241 547.253 168.853 532.798 168.96 520.065L169.116 468.569Z"/>
	<path fill="#822498" transform="scale(0.25 0.25)" d="M838.073 545.857C841.881 547.894 854.81 553.97 856.204 557.883C856.283 558.106 856.283 558.35 856.323 558.584C856.004 566.628 856.101 574.691 856.109 582.74L856.169 588.592L625.854 731.76L553.669 776.694C538.719 785.929 522.281 794.762 508.542 805.675L507.124 805.946C506.637 795.895 507.327 785.687 507.592 775.632C495.387 765.022 478.771 756.362 464.886 747.835L407.641 711.943L309.253 650.045Q280.591 631.64 251.57 613.806C239.792 606.514 228.11 599.071 216.036 592.274C210.478 594.943 204.94 597.825 199.161 599.987C195.472 598.728 191.722 597.458 188.428 595.337L189.471 594.409C188.04 592.998 187.717 590.757 186.592 589.02C191.932 583.438 199.446 581.117 205.516 576.535C207.935 577.714 210.342 578.863 212.614 580.315C258.596 606.859 303.65 635.27 348.966 662.945C402.072 695.376 455.417 727.33 507.513 761.37L509.224 762.78C521.244 756.704 532.269 748.752 543.671 741.61L605.984 702.944L837.695 560.321C837.525 555.518 837.243 550.61 838.073 545.857Z"/>
	<path fill="#841514" transform="scale(0.25 0.25)" d="M205.516 576.535C207.935 577.714 210.342 578.863 212.614 580.315C205.462 585.79 196.739 589.046 189.471 594.409C188.04 592.998 187.717 590.757 186.592 589.02C191.932 583.438 199.446 581.117 205.516 576.535Z"/>
	<path fill="#621589" transform="scale(0.25 0.25)" d="M838.073 545.857C841.881 547.894 854.81 553.97 856.204 557.883C856.283 558.106 856.283 558.35 856.323 558.584Q748.735 626.458 640.446 693.204C596.466 720.44 552.842 748.354 508.379 774.797C508.513 770.762 508.637 766.781 509.224 762.78C521.244 756.704 532.269 748.752 543.671 741.61L605.984 702.944L837.695 560.321C837.525 555.518 837.243 550.61 838.073 545.857Z"/>
	<path fill="#FEEFCD" transform="scale(0.25 0.25)" d="M193.496 482.605C215.174 495.375 236.393 508.77 257.859 521.872L417.113 620.027L479.375 658.582C488.766 664.413 497.937 671.607 507.963 676.213L508.061 676.621C507.884 688.656 508.178 700.714 507.917 712.738L508.095 713.876Q508.025 720.253 508.037 726.631L507.872 726.906C507.957 732.13 508.968 758.323 507.513 761.37C455.417 727.33 402.072 695.376 348.966 662.945C303.65 635.27 258.596 606.859 212.614 580.315C210.342 578.863 207.935 577.714 205.516 576.535C203.214 575.434 200.694 573.371 199.037 571.472C191.109 562.385 193.22 546.651 194.048 535.527C193.865 530.875 194.014 526.158 194.001 521.499C194.047 508.587 194.548 495.477 193.496 482.605Z"/>
	<path fill="#D0C099" transform="scale(0.25 0.25)" d="M194.001 521.499C200.351 523.759 205.703 528.604 211.475 532.001Q235.966 546.152 260.053 560.979L439.936 671.171L486.132 699.575C493.251 703.951 500.434 709.069 507.917 712.738L508.095 713.876Q508.025 720.253 508.037 726.631L507.872 726.906C498.749 723.264 489.8 716.371 481.411 711.157L430.009 679.317L280.721 587.981L232.212 558.555C219.515 550.738 207.15 542.68 194.048 535.527C193.865 530.875 194.014 526.158 194.001 521.499Z"/>
	<path fill="#FEEFCD" transform="scale(0.25 0.25)" d="M194.048 535.527C207.15 542.68 219.515 550.738 232.212 558.555L280.721 587.981L430.009 679.317L481.411 711.157C489.8 716.371 498.749 723.264 507.872 726.906C507.957 732.13 508.968 758.323 507.513 761.37C455.417 727.33 402.072 695.376 348.966 662.945C303.65 635.27 258.596 606.859 212.614 580.315C210.342 578.863 207.935 577.714 205.516 576.535C203.214 575.434 200.694 573.371 199.037 571.472C191.109 562.385 193.22 546.651 194.048 535.527Z"/>
	<path fill="#D0C099" transform="scale(0.25 0.25)" d="M837.859 476.706C839.076 488.527 838.553 500.691 838.538 512.572C838.602 521.03 839.046 529.704 838.469 538.137C838.481 540.747 838.534 543.276 838.073 545.857C837.243 550.61 837.525 555.518 837.695 560.321L605.984 702.944L543.671 741.61C532.269 748.752 521.244 756.704 509.224 762.78L507.513 761.37C508.968 758.323 507.957 732.13 507.872 726.906L508.037 726.631Q508.025 720.253 508.095 713.876L507.917 712.738C508.178 700.714 507.884 688.656 508.061 676.621C515.58 675.026 566.736 641.106 577.779 634.405L837.859 476.706Z"/>
	<path fill="#BE9F76" transform="scale(0.25 0.25)" d="M508.095 713.876C508.882 713.675 509.633 713.402 510.384 713.092C520.548 708.885 529.391 701.686 538.741 696.015L611.983 651.05L799.646 537.183C811.153 530.159 822.998 523.664 834.437 516.556C836.348 515.368 837.624 514.676 838.538 512.572C838.602 521.03 839.046 529.704 838.469 538.137C838.067 534.049 838.161 529.911 838.148 525.806C829.882 531.501 821.088 536.541 812.515 541.761L758.433 574.374L572.997 687.38Q551.166 700.598 529.546 714.16C524.69 717.192 520.215 720.853 515.245 723.701C513.239 724.851 510.346 726.688 508.037 726.631Q508.025 720.253 508.095 713.876Z"/>
	<path fill="#D0C099" transform="scale(0.25 0.25)" d="M837.859 476.706C839.076 488.527 838.553 500.691 838.538 512.572C837.624 514.676 836.348 515.368 834.437 516.556C822.998 523.664 811.153 530.159 799.646 537.183L611.983 651.05L538.741 696.015C529.391 701.686 520.548 708.885 510.384 713.092C509.633 713.402 508.882 713.675 508.095 713.876L507.917 712.738C508.178 700.714 507.884 688.656 508.061 676.621C515.58 675.026 566.736 641.106 577.779 634.405L837.859 476.706Z"/>
	<path fill="#C54948" transform="scale(0.25 0.25)" d="M574.628 329.51C584.848 325.828 597.416 323.206 608.266 325.478C613.737 326.694 618.8 328.52 623.913 330.8C628.831 333.672 633.439 336.557 637.239 340.871C642.706 345.883 647.55 352.131 650.694 358.875C656.142 370.585 656.844 383.97 654.493 396.567C688.352 389.913 704.932 376.223 728.703 353.208C730.667 354.343 732.808 355.404 734.618 356.769C759.201 369.531 782.422 384.846 806.234 398.959C823.392 409.128 841.897 417.949 857.885 429.882C857.329 441.377 857.593 452.99 857.653 464.498C851.015 468.442 844.126 472.193 837.859 476.706L577.779 634.405C566.736 641.106 515.58 675.026 508.061 676.621L507.963 676.213C508.637 666.189 509.696 654.612 508.04 644.693C497.691 639.297 487.758 632.246 477.808 626.084L418.887 589.659L238.528 478.122L189.628 448.002C180.441 442.291 171.244 435.599 161.502 430.925C158.013 429.251 155.122 429 151.311 428.766C160.978 421.373 171.826 415.864 182.337 409.797C203.367 397.661 225.021 385.828 245.359 372.594C247.731 374.764 250.208 376.867 252.252 379.357C250.557 389.406 250.228 397.028 256.426 405.749C268.964 423.393 297.3 435.039 317.884 440.626C326.977 431.877 335.565 425.111 347.004 419.609Q352.57 418.034 358.097 416.326C368.465 426.155 377.63 433.389 391.957 436.387C396.213 436.645 400.538 437.079 404.802 436.973C406.101 444.379 409.066 450.785 412.495 457.393L417.348 463.467C422.437 469.082 427.708 473.681 434.059 477.832C436.052 478.774 438.137 479.985 440.22 480.676C448.615 483.885 456.802 486.14 465.861 486.048C474.117 485.864 482.57 483.263 490.008 479.805L494.186 478.114C494.381 476.676 489.943 466.023 489.305 463.159C487.229 453.838 488.519 443.207 490.801 434.062C494.325 421.18 499.439 410.267 511.572 403.481C514.816 401.666 518.901 400.498 521.887 398.427C522.057 398.309 522.224 398.187 522.392 398.067C524.382 398.003 527.067 397.023 529.102 396.601C536.028 395.164 542.796 393.838 549.903 394.218C548.882 388.59 548.201 383.08 547.95 377.362C548.355 373.123 548.607 368.711 550.048 364.678C549.981 361.151 551.79 356.834 552.82 353.479C554.071 351.837 561.433 340.08 562.147 338.6C566.069 335.121 570.153 332.238 574.628 329.51Z"/>
	<path fill="#841514" transform="scale(0.25 0.25)" d="M387.781 528.383C405.28 526.251 417.053 519.8 432.935 513.549C433.185 518.594 434.032 523.859 435.139 528.79C422.955 536.102 398.302 538.272 383.979 540.243C384.962 536.178 387.023 532.478 387.781 528.383Z"/>
	<path fill="#5FA934" transform="scale(0.25 0.25)" d="M417.348 463.467C422.437 469.082 427.708 473.681 434.059 477.832C436.052 478.774 438.137 479.985 440.22 480.676C434.216 490.525 433.455 502.27 432.935 513.549C417.053 519.8 405.28 526.251 387.781 528.383C386.062 528.76 384.155 529.428 382.453 528.811C381.661 527.483 381.904 526.616 381.946 525.091C382.108 518.513 383.779 512.178 385.767 505.94Q386.184 504.694 386.625 503.456C392.738 486.24 400.286 471.593 417.348 463.467Z"/>
	<path fill="#A1CE35" transform="scale(0.25 0.25)" d="M417.348 463.467C422.437 469.082 427.708 473.681 434.059 477.832C433.923 477.945 433.789 478.058 433.653 478.169C428.801 482.11 423.158 485.169 418.073 488.821C403.876 499.016 392.333 511.065 381.946 525.091C382.108 518.513 383.779 512.178 385.767 505.94Q386.184 504.694 386.625 503.456C392.738 486.24 400.286 471.593 417.348 463.467Z"/>
	<path fill="#841514" transform="scale(0.25 0.25)" d="M728.703 353.208C730.667 354.343 732.808 355.404 734.618 356.769C736.63 361.567 755.926 370.699 761.228 373.83C734.31 395.431 712.599 413.19 677.72 420.964C667.484 417.381 658.642 413.12 647.694 411.521C650.423 406.668 652.245 401.626 654.493 396.567C688.352 389.913 704.932 376.223 728.703 353.208Z"/>
	<path fill="#5FA934" transform="scale(0.25 0.25)" d="M347.004 419.609Q352.57 418.034 358.097 416.326C368.465 426.155 377.63 433.389 391.957 436.387C396.213 436.645 400.538 437.079 404.802 436.973C406.101 444.379 409.066 450.785 412.495 457.393L417.348 463.467C400.286 471.593 392.738 486.24 386.625 503.456Q386.184 504.694 385.767 505.94C348.791 508.033 329.892 502.79 294.534 494.751C297.559 490.359 300.895 486.274 304.274 482.154Q300.128 481.521 295.989 480.839L295.82 480.5C296.258 468.537 310.159 449.589 317.884 440.626C326.977 431.877 335.565 425.111 347.004 419.609Z"/>
	<path fill="#841514" transform="scale(0.25 0.25)" d="M412.495 457.393L417.348 463.467C400.286 471.593 392.738 486.24 386.625 503.456Q386.184 504.694 385.767 505.94C348.791 508.033 329.892 502.79 294.534 494.751C297.559 490.359 300.895 486.274 304.274 482.154C321.706 484.928 338.444 488.018 356.206 487.217C382.217 486.045 395.57 476.043 412.495 457.393Z"/>
	<path fill="#A1CE35" transform="scale(0.25 0.25)" d="M347.004 419.609Q352.57 418.034 358.097 416.326C368.465 426.155 377.63 433.389 391.957 436.387C384.851 442.039 366.172 448.561 357.565 452.09C343.743 457.757 330.261 464.217 316.764 470.613C309.968 473.832 302.326 476.819 295.989 480.839L295.82 480.5C296.258 468.537 310.159 449.589 317.884 440.626C326.977 431.877 335.565 425.111 347.004 419.609Z"/>
	<path fill="#841514" transform="scale(0.25 0.25)" d="M857.885 429.882C857.329 441.377 857.593 452.99 857.653 464.498C851.015 468.442 844.126 472.193 837.859 476.706L577.779 634.405C566.736 641.106 515.58 675.026 508.061 676.621L507.963 676.213C508.637 666.189 509.696 654.612 508.04 644.693C513.721 638.68 531.101 629.132 538.643 624.477Q580.762 598.756 623.232 573.616C631.431 568.748 639.417 563.516 647.594 558.61L756.53 492.514C783.136 476.167 809.406 459.316 836.205 443.274C843.467 438.927 850.083 433.249 857.885 429.882Z"/>
	<path fill="#841514" transform="scale(0.25 0.25)" d="M574.628 329.51C584.848 325.828 597.416 323.206 608.266 325.478C613.737 326.694 618.8 328.52 623.913 330.8C628.831 333.672 633.439 336.557 637.239 340.871C642.706 345.883 647.55 352.131 650.694 358.875C656.142 370.585 656.844 383.97 654.493 396.567C652.245 401.626 650.423 406.668 647.694 411.521C658.642 413.12 667.484 417.381 677.72 420.964C691.085 428.932 724.546 445.557 731.696 458.815Q728.111 461.182 724.486 463.489C730.58 467.858 736.539 472.149 741.99 477.327C720.112 497.513 682.142 509.172 652.743 508.099C646.843 507.883 641.041 507.077 635.238 506.023C641.267 518.082 644.138 529.527 639.772 542.689C635.956 554.19 628.459 564.983 619.466 573.037C600.111 566.974 572.313 554.884 555.939 543.02C551.651 539.913 547.95 536.317 544.281 532.516C528.803 532.563 511.969 528.693 500.386 517.779C498.218 522.976 495.922 527.394 491.972 531.473C482.498 541.257 455.879 553.419 443.083 558.663Q439.794 560.006 436.428 561.142C437.823 556.914 439.859 552.126 439.689 547.636C439.122 546.139 438.725 544.668 438.357 543.112Q436.639 535.975 435.139 528.79C434.032 523.859 433.185 518.594 432.935 513.549C433.455 502.27 434.216 490.525 440.22 480.676C448.615 483.885 456.802 486.14 465.861 486.048C474.117 485.864 482.57 483.263 490.008 479.805L494.186 478.114C494.381 476.676 489.943 466.023 489.305 463.159C487.229 453.838 488.519 443.207 490.801 434.062C494.325 421.18 499.439 410.267 511.572 403.481C514.816 401.666 518.901 400.498 521.887 398.427C522.057 398.309 522.224 398.187 522.392 398.067C524.382 398.003 527.067 397.023 529.102 396.601C536.028 395.164 542.796 393.838 549.903 394.218C548.882 388.59 548.201 383.08 547.95 377.362C548.355 373.123 548.607 368.711 550.048 364.678C549.981 361.151 551.79 356.834 552.82 353.479C554.071 351.837 561.433 340.08 562.147 338.6C566.069 335.121 570.153 332.238 574.628 329.51Z"/>
	<path fill="#A1CE35" transform="scale(0.25 0.25)" d="M598.485 463.435C602.358 466.338 605.911 469.266 609.253 472.772C611.363 474.985 613.769 478.471 616.208 480.225C630.675 506.736 627.492 525.151 619.318 553.004Q617.962 557.588 616.502 562.139C614.357 558.803 613.678 553.949 612.713 550.133C606.929 527.274 596.746 507.541 587.097 486.217C591.776 478.896 595.869 471.776 598.485 463.435Z"/>
	<path fill="#5FA934" transform="scale(0.25 0.25)" d="M587.097 486.217C596.746 507.541 606.929 527.274 612.713 550.133C613.678 553.949 614.357 558.803 616.502 562.139C616.089 563.32 615.702 564.211 615.002 565.266C611.314 565.368 595.092 555.292 590.914 552.715C578.287 544.925 559.616 533.365 551.987 520.725C549.311 516.292 547.982 511.55 546.798 506.55C563.383 504.448 575.328 498.072 587.097 486.217Z"/>
	<path fill="#5FA934" transform="scale(0.25 0.25)" d="M465.861 486.048C474.117 485.864 482.57 483.263 490.008 479.805C492.711 489.28 495.11 499.423 490.183 508.653C482.181 523.64 453.707 537.405 439.689 547.636C439.122 546.139 438.725 544.668 438.357 543.112Q436.639 535.975 435.139 528.79C434.032 523.859 433.185 518.594 432.935 513.549C433.455 502.27 434.216 490.525 440.22 480.676C448.615 483.885 456.802 486.14 465.861 486.048Z"/>
	<path fill="#A1CE35" transform="scale(0.25 0.25)" d="M440.22 480.676C448.615 483.885 456.802 486.14 465.861 486.048C457.786 498.276 449.901 510.577 444.517 524.292C442.108 530.427 440.898 537.08 438.357 543.112Q436.639 535.975 435.139 528.79C434.032 523.859 433.185 518.594 432.935 513.549C433.455 502.27 434.216 490.525 440.22 480.676Z"/>
	<path fill="#5FA934" transform="scale(0.25 0.25)" d="M647.694 411.521C658.642 413.12 667.484 417.381 677.72 420.964C691.085 428.932 724.546 445.557 731.696 458.815Q728.111 461.182 724.486 463.489C697.323 478.923 664.918 494.577 632.946 485.587C627.362 484.017 621.95 481.057 616.208 480.225C613.769 478.471 611.363 474.985 609.253 472.772C605.911 469.266 602.358 466.338 598.485 463.435C600.738 452.332 598.613 448.265 598.401 437.705L598.39 436.993C604.222 437.048 609.755 436.58 615.53 435.731C630.149 431.107 638.587 423.538 647.694 411.521Z"/>
	<path fill="#A1CE35" transform="scale(0.25 0.25)" d="M647.694 411.521C658.642 413.12 667.484 417.381 677.72 420.964C691.085 428.932 724.546 445.557 731.696 458.815C721.08 457.007 710.602 452.854 700.326 449.687Q682.847 444.333 664.835 441.208C656.263 439.676 647.451 438.621 638.77 437.88C631.376 437.249 622.463 438.306 615.53 435.731C630.149 431.107 638.587 423.538 647.694 411.521Z"/>
	<path fill="#841F4B" transform="scale(0.25 0.25)" d="M574.628 329.51C584.848 325.828 597.416 323.206 608.266 325.478C613.737 326.694 618.8 328.52 623.913 330.8C628.831 333.672 633.439 336.557 637.239 340.871C642.706 345.883 647.55 352.131 650.694 358.875C656.142 370.585 656.844 383.97 654.493 396.567C652.245 401.626 650.423 406.668 647.694 411.521C638.587 423.538 630.149 431.107 615.53 435.731C609.755 436.58 604.222 437.048 598.39 436.993L598.401 437.705C598.613 448.265 600.738 452.332 598.485 463.435C595.869 471.776 591.776 478.896 587.097 486.217C575.328 498.072 563.383 504.448 546.798 506.55C545.145 506.46 543.489 506.406 541.837 506.292C527.187 505.282 513.523 500.193 503.277 489.388C500.083 486.019 497.599 481.996 494.532 478.503L494.186 478.114C494.381 476.676 489.943 466.023 489.305 463.159C487.229 453.838 488.519 443.207 490.801 434.062C494.325 421.18 499.439 410.267 511.572 403.481C514.816 401.666 518.901 400.498 521.887 398.427C522.057 398.309 522.224 398.187 522.392 398.067C524.382 398.003 527.067 397.023 529.102 396.601C536.028 395.164 542.796 393.838 549.903 394.218C548.882 388.59 548.201 383.08 547.95 377.362C548.355 373.123 548.607 368.711 550.048 364.678C549.981 361.151 551.79 356.834 552.82 353.479C554.071 351.837 561.433 340.08 562.147 338.6C566.069 335.121 570.153 332.238 574.628 329.51Z"/>
	<path fill="#BF3068" transform="scale(0.25 0.25)" d="M574.628 329.51C584.848 325.828 597.416 323.206 608.266 325.478C613.737 326.694 618.8 328.52 623.913 330.8C628.831 333.672 633.439 336.557 637.239 340.871C637.259 341.04 637.278 341.209 637.3 341.378C637.854 345.563 639.358 349.524 640.048 353.678C641.643 363.284 638.262 373.393 632.458 381.042Q631.747 381.966 630.993 382.853Q630.238 383.741 629.44 384.591Q628.643 385.441 627.805 386.251Q626.968 387.061 626.091 387.829Q625.215 388.597 624.302 389.321Q623.389 390.045 622.442 390.724Q621.495 391.403 620.515 392.034Q619.536 392.666 618.527 393.249Q617.518 393.832 616.482 394.366Q615.446 394.899 614.385 395.381Q613.324 395.862 612.241 396.292Q611.158 396.721 610.055 397.098Q608.952 397.474 607.832 397.795Q606.712 398.117 605.577 398.384Q604.443 398.65 603.297 398.861Q602.151 399.072 600.996 399.227C588.28 400.901 573.909 397.434 563.749 389.491C555.538 383.071 551.357 374.934 550.048 364.678C549.981 361.151 551.79 356.834 552.82 353.479C554.071 351.837 561.433 340.08 562.147 338.6C566.069 335.121 570.153 332.238 574.628 329.51Z"/>
	<path fill="#F677B4" transform="scale(0.25 0.25)" d="M577.281 335.481C578.789 335.522 580.335 335.543 581.828 335.768C584.427 336.161 586.998 337.317 588.521 339.55C589.809 341.439 590.075 343.752 589.549 345.948C588.4 350.751 584.676 353.069 580.724 355.393C578.816 355.534 576.727 355.659 574.861 355.178C572.461 354.558 570.293 353.18 569.144 350.933C568.037 348.769 568.02 346.155 568.799 343.88C570.311 339.463 573.365 337.513 577.281 335.481Z"/>
	<path fill="#BF3068" transform="scale(0.25 0.25)" d="M522.392 398.067C524.382 398.003 527.067 397.023 529.102 396.601C536.028 395.164 542.796 393.838 549.903 394.218C560.013 396.771 568.29 399.552 573.901 409.084C579.154 418.005 581.097 428.338 578.373 438.424C575.217 450.107 566.319 459.523 555.978 465.402C544.966 471.663 531.881 473.829 519.589 470.408C509.821 467.69 501.728 462.291 496.679 453.356C493.261 447.308 491.852 440.86 490.801 434.062C494.325 421.18 499.439 410.267 511.572 403.481C514.816 401.666 518.901 400.498 521.887 398.427C522.057 398.309 522.224 398.187 522.392 398.067Z"/>
	<path fill="#F677B4" transform="scale(0.25 0.25)" d="M525.328 404.051C527.853 404.194 530.562 404.151 532.847 405.363C535.11 406.563 536.879 408.587 537.532 411.086C538.195 413.625 537.684 416.323 536.371 418.57C534.394 421.956 530.96 423.981 527.261 424.961C524.518 425.128 521.872 425.111 519.363 423.845C517.307 422.808 515.629 421.024 514.94 418.807C514.139 416.226 514.612 413.37 515.896 411.027C517.938 407.3 521.331 405.199 525.328 404.051Z"/>
</svg>
