<?xml version="1.0" encoding="utf-8" ?>
<svg xmlns="http://www.w3.org/2000/svg" xmlns:xlink="http://www.w3.org/1999/xlink" width="256" height="256">
	<path fill="#006989" transform="scale(0.25 0.25)" d="M803.667 370.948C803.901 370.913 804.137 370.883 804.371 370.842C807.453 370.295 811.492 367.237 814.253 365.688C818.852 363.108 836.627 353.319 840.82 354.864C843.572 359.047 843.494 367.523 843.286 372.386C843.229 372.243 843.162 372.104 843.113 371.958C842.795 370.999 842.74 369.988 842.641 368.988C838.67 368.667 832.014 370.201 828.804 372.678C828.126 373.201 828.136 373.237 827.667 373.795C819.083 378.582 810.247 382.906 801.645 387.672C801.254 384.141 801.796 373.64 803.667 370.948Z"/>
	<path fill="#006989" transform="scale(0.25 0.25)" d="M183.258 369.09C183.482 365.104 182.927 359.707 186.159 356.804C187.692 355.427 190.017 354.805 191.93 354.125C208.484 358.516 219.983 370.076 234.356 378.484C237.462 384.89 240.635 392.365 241.276 399.516C233.431 394.599 225.828 389.272 218.058 384.23Q207.966 378.084 198.68 370.778C198.452 370.545 198.248 370.285 197.996 370.078C194.898 367.52 187.06 368.721 183.258 369.09Z"/>
	<path fill="#157237" transform="scale(0.25 0.25)" d="M624.24 439.139C625.181 409.661 639.438 380.603 659.043 359.018C700.634 313.229 743.613 312.04 800.307 309.51C803.396 332.305 804.976 347.74 803.667 370.948C801.796 373.64 801.254 384.141 801.645 387.672C801.117 390.359 800.674 393.108 800.033 395.768C793.133 422.617 784.256 443.131 764.245 463.082C761.531 459.606 759.217 455.508 756.771 451.812C758.429 450.546 759.739 449.023 761.067 447.422C768.129 438.905 774.971 429.409 779.767 419.428C793.892 390.031 794.349 354.162 791.25 322.335C790.987 320.994 790.97 320.593 790.097 319.57C788.866 319.254 788.185 319.547 787.046 319.973C786.901 320.028 786.757 320.085 786.612 320.141L786.073 319.418C773.798 320.857 761.461 321.678 749.282 323.864C714.402 330.125 683.479 347.141 661.309 375.059C643.148 397.928 636.351 425.215 635.428 453.898Q629.402 446.846 624.24 439.139Z"/>
	<path fill="#9D4C88" transform="scale(0.25 0.25)" d="M137.002 403.218C148.623 401.56 162.04 404.435 173.121 407.92C163.855 413.786 149.05 423.075 146.516 434.588C144.251 444.877 144.312 456.059 143.69 466.568L140.793 517.538C138.8 555.435 135.518 593.24 133.353 631.122C132.72 640.079 132.847 649.061 130.864 657.866C127.166 658.085 123.693 659.601 120.33 661.061C117.94 661.721 114.92 661.793 112.614 660.782C108.801 659.111 107.313 655.329 105.894 651.727Q111.35 569.128 117.793 486.601C118.717 473.947 120.885 421.917 124.396 413.204C126.714 407.453 131.638 405.336 137.002 403.218Z"/>
	<path fill="#662567" transform="scale(0.25 0.25)" d="M137.002 403.218C148.623 401.56 162.04 404.435 173.121 407.92C163.855 413.786 149.05 423.075 146.516 434.588C144.251 444.877 144.312 456.059 143.69 466.568L140.793 517.538C138.8 555.435 135.518 593.24 133.353 631.122C132.72 640.079 132.847 649.061 130.864 657.866C127.166 658.085 123.693 659.601 120.33 661.061C120.089 650.323 121.005 639.514 121.747 628.81L124.483 589.619L133.048 467.509L135.939 431.122C136.688 421.889 138.044 412.461 137.002 403.218Z"/>
	<path fill="#662567" transform="scale(0.25 0.25)" d="M849.63 407.153C861.326 404.647 874.423 402.398 886.409 402.608C892.009 404.328 897.575 407.306 900.531 412.609C902.636 416.384 903.11 421.075 903.589 425.302C906.371 449.869 906.669 474.761 908.446 499.419Q914.423 575.436 919.007 651.549C916.641 655.432 914.443 659.93 909.678 661.189C908.174 661.586 906.422 661.496 904.877 661.424C901.591 660.851 898.06 659.411 895.244 657.632C892.265 648.205 892.17 638.165 892.044 628.343C888.829 628.739 885.652 629.264 882.462 629.823C882.013 627.989 879.283 625.96 877.922 624.635C878.174 620.39 877.774 616.011 877.696 611.755C877.528 602.622 877.284 593.595 876.825 584.471L873.553 527.161C871.691 497.786 871.356 467.972 867.876 438.746C865.551 436.301 863.219 433.828 860.639 431.647C856.734 428.345 848.053 423.906 846.075 419.346L845.333 406.707L849.63 407.153Z"/>
	<path fill="#A3E8DF" transform="scale(0.25 0.25)" d="M845.333 406.707L849.63 407.153C858.785 412.61 873.756 420.27 876.61 431.44C879.316 442.032 879.168 453.517 879.881 464.377L882.905 505.749L888.923 587.703C889.939 601.256 891.673 614.746 892.044 628.343C888.829 628.739 885.652 629.264 882.462 629.823C882.013 627.989 879.283 625.96 877.922 624.635C878.174 620.39 877.774 616.011 877.696 611.755C877.528 602.622 877.284 593.595 876.825 584.471L873.553 527.161C871.691 497.786 871.356 467.972 867.876 438.746C865.551 436.301 863.219 433.828 860.639 431.647C856.734 428.345 848.053 423.906 846.075 419.346L845.333 406.707Z"/>
	<path fill="#9D4C88" transform="scale(0.25 0.25)" d="M886.409 402.608C892.009 404.328 897.575 407.306 900.531 412.609C902.636 416.384 903.11 421.075 903.589 425.302C906.371 449.869 906.669 474.761 908.446 499.419Q914.423 575.436 919.007 651.549C916.641 655.432 914.443 659.93 909.678 661.189C908.174 661.586 906.422 661.496 904.877 661.424C902.28 651.117 902.076 640.63 901.474 630.074L899.615 600.117Q895.841 533.894 890.478 467.781C889.616 458.067 884.267 407.471 886.409 402.608Z"/>
	<path fill="#83D12A" transform="scale(0.25 0.25)" d="M786.073 319.418L786.612 320.141C786.757 320.085 786.901 320.028 787.046 319.973C788.185 319.547 788.866 319.254 790.097 319.57C790.97 320.593 790.987 320.994 791.25 322.335C794.349 354.162 793.892 390.031 779.767 419.428C774.971 429.409 768.129 438.905 761.067 447.422C759.739 449.023 758.429 450.546 756.771 451.812C746.874 440.118 735.245 434.441 721.03 429.589C715.416 427.522 709.266 427.678 703.375 427.653C699.456 428.466 695.376 428.243 691.403 428.983C680.806 430.709 670.558 435.675 661.653 441.532C658.359 444.439 655.052 447.877 651.203 450.007C647.651 454.74 644.108 459.425 641.086 464.525C639.071 461.029 637.161 457.543 635.428 453.898C636.351 425.215 643.148 397.928 661.309 375.059C683.479 347.141 714.402 330.125 749.282 323.864C761.461 321.678 773.798 320.857 786.073 319.418Z"/>
	<path fill="#298630" transform="scale(0.25 0.25)" d="M700.322 380.577C697.244 388.247 684.064 402.962 678.531 410.497C673.84 416.883 669.931 423.782 666.212 430.768C664.527 433.935 662.017 437.999 661.653 441.532C658.359 444.439 655.052 447.877 651.203 450.007C653.73 443.748 657.64 437.967 661.171 432.231C672.411 413.978 684.664 395.381 700.322 380.577Z"/>
	<path fill="#FEFEFE" transform="scale(0.25 0.25)" d="M753.254 326.695C754.086 326.526 754.515 326.536 755.329 326.778C750.944 329.269 745.228 330.18 740.441 331.816C735.836 333.39 731.257 335.426 726.83 337.449C700.707 349.389 680.398 368.546 660.393 388.626C659.879 389.361 660.223 389.031 659.284 389.529L659.138 388.546C661.333 381.92 665.638 376.435 669.892 371.019C689.573 345.964 722.021 330.478 753.254 326.695Z"/>
	<path fill="#4AAB27" transform="scale(0.25 0.25)" d="M786.073 319.418L786.612 320.141C786.757 320.085 786.901 320.028 787.046 319.973C788.185 319.547 788.866 319.254 790.097 319.57C790.97 320.593 790.987 320.994 791.25 322.335C786.381 327.875 783.429 326.894 779.968 330.809C781.268 330.175 783.397 328.64 784.727 328.8C784.579 328.932 784.429 329.062 784.282 329.195C783.591 329.821 782.945 330.478 782.29 331.142L782.358 331.983Q768.97 344.581 756.478 358.067C748.327 367.021 706.12 417.385 703.375 427.653C699.456 428.466 695.376 428.243 691.403 428.983C680.806 430.709 670.558 435.675 661.653 441.532C662.017 437.999 664.527 433.935 666.212 430.768C669.931 423.782 673.84 416.883 678.531 410.497C684.064 402.962 697.244 388.247 700.322 380.577C713.047 365.004 742.325 343.441 759.967 333.568C767.382 329.418 780.419 324.98 786.073 319.418Z"/>
	<path fill="#298630" transform="scale(0.25 0.25)" d="M779.968 330.809C781.268 330.175 783.397 328.64 784.727 328.8C784.579 328.932 784.429 329.062 784.282 329.195C783.591 329.821 782.945 330.478 782.29 331.142L782.358 331.983Q768.97 344.581 756.478 358.067C748.327 367.021 706.12 417.385 703.375 427.653C699.456 428.466 695.376 428.243 691.403 428.983C692.599 425.001 697.042 420.005 699.437 416.529C707.654 404.605 715.937 393.263 725.637 382.471C735.129 371.911 745.781 362.231 756.055 352.443C763.782 345.082 771.434 337.218 779.968 330.809Z"/>
	<path fill="#83D12A" transform="scale(0.25 0.25)" d="M791.25 322.335C794.349 354.162 793.892 390.031 779.767 419.428C774.971 429.409 768.129 438.905 761.067 447.422C759.739 449.023 758.429 450.546 756.771 451.812C746.874 440.118 735.245 434.441 721.03 429.589C715.416 427.522 709.266 427.678 703.375 427.653C706.12 417.385 748.327 367.021 756.478 358.067Q768.97 344.581 782.358 331.983L782.29 331.142C782.945 330.478 783.591 329.821 784.282 329.195C784.429 329.062 784.579 328.932 784.727 328.8C783.397 328.64 781.268 330.175 779.968 330.809C783.429 326.894 786.381 327.875 791.25 322.335Z"/>
	<path fill="#37932A" transform="scale(0.25 0.25)" d="M791.25 322.335C794.349 354.162 793.892 390.031 779.767 419.428C774.971 429.409 768.129 438.905 761.067 447.422C759.739 449.023 758.429 450.546 756.771 451.812C746.874 440.118 735.245 434.441 721.03 429.589C725.407 426.976 729.612 424.021 733.691 420.966C769.411 394.213 784.088 368.523 790.326 324.621C787.627 326.931 785.395 330.128 782.358 331.983L782.29 331.142C782.945 330.478 783.591 329.821 784.282 329.195C784.429 329.062 784.579 328.932 784.727 328.8C783.397 328.64 781.268 330.175 779.968 330.809C783.429 326.894 786.381 327.875 791.25 322.335Z"/>
	<path fill="#421646" transform="scale(0.25 0.25)" d="M904.877 661.424C906.422 661.496 908.174 661.586 909.678 661.189C914.443 659.93 916.641 655.432 919.007 651.549C919.057 660.187 918.051 669.966 911.733 676.529C905.541 682.244 874.926 688.276 865.333 690.836Q856.752 693.214 848.275 695.939C824.03 703.57 800.315 713.136 776.858 722.886C743.663 736.682 710.274 751.419 678.805 768.805Q647.918 786.136 618.17 805.357C609.693 810.944 601.564 817.059 593.146 822.735Q593.013 824.116 592.848 825.493C591.613 835.67 586.542 845.543 578.277 851.788C573.328 855.526 567.102 857.784 561.016 858.774C554.26 859.872 547.301 859.53 540.478 859.507L512.996 859.424C497.176 859.452 478.415 861.053 462.982 858.976C452.364 857.547 442.935 853.523 436.342 844.784C431.684 838.608 428.891 830.579 429.935 822.826C417.78 814.712 406.2 805.822 394.195 797.501C381.988 789.038 369.212 781.17 356.387 773.675C299.618 740.5 238.299 717.121 175.699 697.622Q160.87 693.086 145.929 688.935C138.992 687.067 131.916 685.493 125.089 683.262C117.699 680.847 112.329 678.036 108.701 670.846C106.58 664.386 105.553 658.529 105.894 651.727C107.313 655.329 108.801 659.111 112.614 660.782C114.92 661.793 117.94 661.721 120.33 661.061C123.693 659.601 127.166 658.085 130.864 657.866C141.951 662.378 153.563 665.137 164.988 668.624Q193.803 677.415 222.238 687.368C285.588 710.081 347.191 738.455 403.607 775.353C413.756 781.991 423.764 789.22 433.452 796.511C438.278 800.144 442.959 804.092 447.89 807.565C445.819 816 443.221 824.56 448.107 832.622C451.403 838.061 457.22 841.801 463.384 843.155C472.547 845.169 495.132 843.866 505.522 843.897L537.406 843.982C543.719 843.983 550.254 844.307 556.536 843.63C560.592 843.194 564.038 842.368 567.517 840.091C572.804 836.63 576.346 830.927 577.536 824.759C578.401 820.274 578.167 811.827 575.569 807.754C588.666 795.441 604.001 785.259 618.996 775.442C679.297 735.969 747.485 704.038 815.733 680.977Q841.917 672.314 868.449 664.78C877.38 662.283 886.387 660.443 895.244 657.632C898.06 659.411 901.591 660.851 904.877 661.424Z"/>
	<path fill="#662567" transform="scale(0.25 0.25)" d="M108.701 670.846C110.006 670.334 110.95 670.023 112.365 670.201C122.101 671.423 138.093 677.235 148.322 680.249Q195.164 693.564 241.116 709.686Q262.888 717.581 284.124 726.823Q310.907 738.509 336.668 752.301Q362.429 766.093 387.004 781.903C402.577 791.757 418.419 801.905 431.914 814.545L429.935 822.826C417.78 814.712 406.2 805.822 394.195 797.501C381.988 789.038 369.212 781.17 356.387 773.675C299.618 740.5 238.299 717.121 175.699 697.622Q160.87 693.086 145.929 688.935C138.992 687.067 131.916 685.493 125.089 683.262C117.699 680.847 112.329 678.036 108.701 670.846Z"/>
	<path fill="#662567" transform="scale(0.25 0.25)" d="M592.081 813.98C611.456 797.04 634.064 782.782 656.164 769.684Q663.63 765.272 671.185 761.012Q678.739 756.753 686.379 752.648Q694.018 748.543 701.74 744.594Q709.461 740.646 717.261 736.855Q725.062 733.065 732.937 729.433Q740.813 725.802 748.761 722.332Q756.709 718.862 764.726 715.554Q772.743 712.246 780.825 709.102Q788.908 705.958 797.053 702.979Q805.197 700 813.401 697.188Q821.605 694.375 829.864 691.73Q838.124 689.085 846.435 686.608Q854.746 684.132 863.106 681.825Q871.466 679.518 879.872 677.382Q888.277 675.245 896.724 673.281Q905.171 671.316 913.656 669.523C912.784 671.814 911.666 674.038 911.733 676.529C905.541 682.244 874.926 688.276 865.333 690.836Q856.752 693.214 848.275 695.939C824.03 703.57 800.315 713.136 776.858 722.886C743.663 736.682 710.274 751.419 678.805 768.805Q647.918 786.136 618.17 805.357C609.693 810.944 601.564 817.059 593.146 822.735C592.969 819.753 592.633 816.916 592.081 813.98Z"/>
	<path fill="#FEFEFE" transform="scale(0.25 0.25)" d="M846.075 419.346C848.053 423.906 856.734 428.345 860.639 431.647C863.219 433.828 865.551 436.301 867.876 438.746C871.356 467.972 871.691 497.786 873.553 527.161L876.825 584.471C877.284 593.595 877.528 602.622 877.696 611.755C877.774 616.011 878.174 620.39 877.922 624.635C879.283 625.96 882.013 627.989 882.462 629.823C885.652 629.264 888.829 628.739 892.044 628.343C892.17 638.165 892.265 648.205 895.244 657.632C886.387 660.443 877.38 662.283 868.449 664.78Q841.917 672.314 815.733 680.977C747.485 704.038 679.297 735.969 618.996 775.442C604.001 785.259 588.666 795.441 575.569 807.754C570.62 800.856 561.145 791.416 557.541 784.745C551.816 780.239 546.137 778.903 539.203 777.404C546.585 762.303 555.659 748.922 565.83 735.562C613.57 672.851 701.129 629.105 775.742 608.72C802.235 601.481 828.581 597.044 855.733 593.321C855.541 591.989 855.514 590.579 855.416 589.234C854.344 583.43 854.28 576.993 853.923 571.1L852.047 536.101Q848.583 477.748 846.075 419.346Z"/>
	<path fill="#56CDAF" transform="scale(0.25 0.25)" d="M635.628 706.057C624.164 713.618 613.325 721.422 602.723 730.179C594.111 737.294 585.915 744.917 577.275 751.99L577.176 751.947L578.553 751.193L578.225 750.369C580.766 746.704 584.974 743.121 588.115 739.854C601.67 725.754 615.817 711.463 631.314 699.478L631.879 701.225C633.217 701.446 633.762 701.273 634.966 700.815C635.494 700.615 635.913 700.562 636.474 700.567L635.904 700.435L636.61 701.291C636.408 702.368 635.87 703.164 635.327 704.1L635.628 706.057Z"/>
	<defs>
		<linearGradient id="gradient_0" gradientUnits="userSpaceOnUse" x1="634.09094" y1="704.25336" x2="905.80994" y2="487.86044">
			<stop offset="0" stop-color="#3EC8A1"/>
			<stop offset="1" stop-color="#87D7D3"/>
		</linearGradient>
	</defs>
	<path fill="url(#gradient_0)" transform="scale(0.25 0.25)" d="M846.075 419.346C848.053 423.906 856.734 428.345 860.639 431.647C863.219 433.828 865.551 436.301 867.876 438.746C871.356 467.972 871.691 497.786 873.553 527.161L876.825 584.471C877.284 593.595 877.528 602.622 877.696 611.755C877.774 616.011 878.174 620.39 877.922 624.635C861.657 624.206 845.423 626.874 829.491 629.877Q820.18 631.668 810.933 633.765Q801.686 635.862 792.514 638.264Q783.341 640.665 774.253 643.368Q765.165 646.072 756.171 649.074Q747.177 652.076 738.288 655.374Q729.398 658.671 720.622 662.261Q711.846 665.851 703.193 669.728Q694.541 673.606 686.021 677.767C674.824 683.271 663.679 689.168 652.917 695.478C647.125 698.875 641.513 702.866 635.628 706.057L635.327 704.1C635.87 703.164 636.408 702.368 636.61 701.291L635.904 700.435L636.474 700.567C635.913 700.562 635.494 700.615 634.966 700.815C633.762 701.273 633.217 701.446 631.879 701.225L631.314 699.478C631.497 699.272 631.671 699.057 631.864 698.86C637.57 693.025 645.794 687.892 652.41 683.08C702.278 646.805 762.533 622.668 822.913 611.071C834.596 608.827 846.394 606.541 858.291 605.879C857.364 601.714 856.615 597.498 855.733 593.321C855.541 591.989 855.514 590.579 855.416 589.234C854.344 583.43 854.28 576.993 853.923 571.1L852.047 536.101Q848.583 477.748 846.075 419.346Z"/>
	<path fill="#0098AF" transform="scale(0.25 0.25)" d="M882.462 629.823C885.652 629.264 888.829 628.739 892.044 628.343C892.17 638.165 892.265 648.205 895.244 657.632C886.387 660.443 877.38 662.283 868.449 664.78Q841.917 672.314 815.733 680.977C747.485 704.038 679.297 735.969 618.996 775.442C604.001 785.259 588.666 795.441 575.569 807.754C570.62 800.856 561.145 791.416 557.541 784.745C617.292 719.022 721.626 669.192 806.583 645.674C831.588 638.753 856.886 634.046 882.462 629.823Z"/>
	<path fill="#157237" transform="scale(0.25 0.25)" d="M434.982 345.544C439.38 295.833 461.329 248.573 499.957 216.265C537.501 184.865 589.462 168.435 637.429 163.095C638.013 186.269 640.65 209.723 643.129 232.762C644.344 244.052 645.824 255.33 646.348 266.679Q646.612 272.08 646.575 277.487Q646.537 282.894 646.199 288.291Q645.861 293.687 645.222 299.057Q644.584 304.426 643.648 309.752Q642.711 315.077 641.48 320.343Q640.249 325.608 638.726 330.796Q637.203 335.985 635.394 341.08Q633.585 346.176 631.495 351.163C622.634 372.906 610.341 392.498 594.148 409.517L592.937 410.787C589.42 409.212 586.174 406.826 582.947 404.72C559.956 393.394 537.988 385.879 511.959 386.001C508.69 385.985 505.469 385.984 502.212 386.291C493.346 387.647 484.677 389.196 476.032 391.642L472.299 392.696C466.644 394.577 460.94 396.687 455.533 399.206C451.132 401.494 446.385 404.429 441.748 406.098Q435.534 410.303 429.528 414.8C423.931 419.222 417.874 423.631 413.068 428.923C410.407 432.161 407.456 435.497 404.19 438.129C400.527 442.221 397.303 446.586 394.294 451.174C382.775 441.327 376.562 435.105 361.959 429.691C343.41 425.97 323.409 427.652 307.377 438.328C300.54 442.881 294.699 448.457 289.503 454.791C286.353 459.035 283.876 463.575 281.413 468.239C263.881 447.655 252.119 424.074 241.276 399.516C240.635 392.365 237.462 384.89 234.356 378.484C224.128 343.291 220.745 305.717 219.5 269.217C273.936 255.408 329.286 259.939 378.062 288.883C403.439 303.942 417.956 322.291 434.982 345.544Z"/>
	<path fill="#83D12A" transform="scale(0.25 0.25)" d="M260.343 276.902C302.207 273.179 350.338 283.678 383.095 311.15Q386.196 313.787 389.157 316.581C393.524 318.566 397.097 322.759 400.382 326.153C414.918 341.176 426.878 357.876 434.221 377.606C437.498 386.412 440.429 396.774 441.748 406.098Q435.534 410.303 429.528 414.8C422.95 409.009 417.509 401.919 411.903 395.205C403.272 384.865 394.751 374.487 385.344 364.83C355.133 333.814 321.782 306.906 281.764 289.587Q273.257 285.891 264.341 283.337C259.229 281.894 252.726 280.867 248.038 278.513C247.801 278.395 247.567 278.268 247.332 278.146C251.657 277.647 256.007 277.296 260.343 276.902Z"/>
	<path fill="#FEFEFE" transform="scale(0.25 0.25)" d="M260.343 276.902C302.207 273.179 350.338 283.678 383.095 311.15Q386.196 313.787 389.157 316.581C391.57 320.226 394.495 323.615 397.125 327.115Q403.755 335.974 410.036 345.084C406.405 341.403 402.305 338.077 398.371 334.724C368.509 309.271 333.148 292.331 295.166 282.938Q287.072 281.022 278.813 280.03C272.969 279.32 266.428 279.204 260.895 277.119C260.71 277.049 260.527 276.974 260.343 276.902Z"/>
	<defs>
		<linearGradient id="gradient_1" gradientUnits="userSpaceOnUse" x1="322.8555" y1="360.28793" x2="345.93942" y2="329.26886">
			<stop offset="0" stop-color="#68BD21"/>
			<stop offset="1" stop-color="#299133"/>
		</linearGradient>
	</defs>
	<path fill="url(#gradient_1)" transform="scale(0.25 0.25)" d="M233.366 281.725C233.524 281.536 233.677 281.344 233.839 281.159C236.563 278.054 243.439 278.457 247.332 278.146C247.567 278.268 247.801 278.395 248.038 278.513C252.726 280.867 259.229 281.894 264.341 283.337Q273.257 285.891 281.764 289.587C321.782 306.906 355.133 333.814 385.344 364.83C394.751 374.487 403.272 384.865 411.903 395.205C417.509 401.919 422.95 409.009 429.528 414.8C423.931 419.222 417.874 423.631 413.068 428.923C410.407 432.161 407.456 435.497 404.19 438.129C398.018 427.69 388.044 418.53 379.849 409.622C355.07 382.687 327.764 355.084 299.833 331.326Q277.016 312.3 253.034 294.764C248.642 293.468 238.415 284.581 233.366 281.725Z"/>
	<path fill="#298630" transform="scale(0.25 0.25)" d="M253.034 294.764C254.983 294.875 256.952 296.202 258.68 297.098C269.527 302.725 277.258 310.818 286.79 318.14C321.29 344.64 358.645 368.548 387.862 401.258C395.968 410.333 403.806 421.063 413.068 428.923C410.407 432.161 407.456 435.497 404.19 438.129C398.018 427.69 388.044 418.53 379.849 409.622C355.07 382.687 327.764 355.084 299.833 331.326Q277.016 312.3 253.034 294.764Z"/>
	<path fill="#83D12A" transform="scale(0.25 0.25)" d="M613.976 182.367C610.184 185.903 603.777 188 599.227 190.635C590.004 195.977 565.996 212.54 560.386 220.421C530.922 249.305 508.965 280.595 492.425 318.477C488.131 328.312 485.569 338.907 481.11 348.618C475.104 354.68 460.66 369.389 451.569 369.022C450.54 368.98 450.596 368.686 449.955 367.966C450.118 358.928 449.47 350.315 450.335 341.218C452.894 314.312 462.544 289.658 476.059 266.463C479.117 261.216 482.151 255.059 486.882 251.154C505.929 225.051 537.436 205.258 567.571 194.417C577.524 190.836 587.745 188.268 598.055 185.967C603.335 184.357 608.51 183.167 613.976 182.367Z"/>
	<path fill="#FEFEFE" transform="scale(0.25 0.25)" d="M598.055 185.967C594.874 189.319 573.988 196.376 567.622 199.526C534.87 215.733 505.62 242.035 484.191 271.432C477.431 280.704 471.578 290.532 465.717 300.378C468.801 289.23 472.536 278.209 477.84 267.896C480.637 262.457 484.803 256.836 486.882 251.154C505.929 225.051 537.436 205.258 567.571 194.417C577.524 190.836 587.745 188.268 598.055 185.967Z"/>
	<path fill="#83D12A" transform="scale(0.25 0.25)" d="M233.366 281.725C238.415 284.581 248.642 293.468 253.034 294.764Q277.016 312.3 299.833 331.326C327.764 355.084 355.07 382.687 379.849 409.622C388.044 418.53 398.018 427.69 404.19 438.129C400.527 442.221 397.303 446.586 394.294 451.174C382.775 441.327 376.562 435.105 361.959 429.691C343.41 425.97 323.409 427.652 307.377 438.328C300.54 442.881 294.699 448.457 289.503 454.791C277.402 447.235 259.312 406.305 254.015 392.382C247.072 374.129 227.946 310.286 235.441 293.539C234.465 289.635 233.722 285.734 233.366 281.725Z"/>
	<path fill="#298630" transform="scale(0.25 0.25)" d="M235.441 293.539C237.099 300.775 240.403 307.981 243.488 314.713C259.275 349.16 284.934 375.723 315.152 398.06C321.3 402.605 327.513 407.275 333.985 411.341C342.349 416.597 355.495 422.723 361.959 429.691C343.41 425.97 323.409 427.652 307.377 438.328C300.54 442.881 294.699 448.457 289.503 454.791C277.402 447.235 259.312 406.305 254.015 392.382C247.072 374.129 227.946 310.286 235.441 293.539Z"/>
	<path fill="#4AAB27" transform="scale(0.25 0.25)" d="M618.591 181.382C620.591 180.602 622.215 180.972 624.146 181.719C625.857 184.866 625.661 191.397 625.478 194.984C629.256 201.081 635.19 264.904 634.909 275.01Q634.583 284.969 633.304 294.852Q632.026 304.734 629.806 314.448C623.717 340.305 612.662 363.417 597.469 385.141C592.807 391.807 587.62 398.081 582.947 404.72C559.956 393.394 537.988 385.879 511.959 386.001C508.69 385.985 505.469 385.984 502.212 386.291C493.346 387.647 484.677 389.196 476.032 391.642L472.299 392.696C466.644 394.577 460.94 396.687 455.533 399.206C452.545 389.246 451.194 378.267 449.955 367.966C450.596 368.686 450.54 368.98 451.569 369.022C460.66 369.389 475.104 354.68 481.11 348.618C485.569 338.907 488.131 328.312 492.425 318.477C508.965 280.595 530.922 249.305 560.386 220.421C565.996 212.54 590.004 195.977 599.227 190.635C603.777 188 610.184 185.903 613.976 182.367C615.273 181.813 617.181 181.655 618.591 181.382Z"/>
	<path fill="#37932A" transform="scale(0.25 0.25)" d="M503.189 378.239C502.918 380.933 502.676 383.622 502.212 386.291C493.346 387.647 484.677 389.196 476.032 391.642C475.945 389.645 475.826 388.206 476.714 386.38C476.985 386.461 477.245 386.617 477.528 386.623C477.912 386.632 500.093 379.089 503.189 378.239Z"/>
	<path fill="#298630" transform="scale(0.25 0.25)" d="M560.386 220.421C560.436 222.026 560.164 222.791 559.248 224.118C556.046 228.757 551.706 232.524 548.097 236.834C542.325 243.727 537.06 251.318 532.037 258.777Q525.423 268.476 519.479 278.599Q513.534 288.723 508.287 299.224Q503.04 309.726 498.513 320.558Q493.987 331.389 490.202 342.502C485.237 357.012 481.333 371.782 476.714 386.38C475.826 388.206 475.945 389.645 476.032 391.642L472.299 392.696C466.644 394.577 460.94 396.687 455.533 399.206C452.545 389.246 451.194 378.267 449.955 367.966C450.596 368.686 450.54 368.98 451.569 369.022C460.66 369.389 475.104 354.68 481.11 348.618C485.569 338.907 488.131 328.312 492.425 318.477C508.965 280.595 530.922 249.305 560.386 220.421Z"/>
	<path fill="#37932A" transform="scale(0.25 0.25)" d="M449.955 367.966C450.596 368.686 450.54 368.98 451.569 369.022C460.66 369.389 475.104 354.68 481.11 348.618C479.554 358.216 476.833 367.635 474.815 377.145C473.722 382.295 473.364 387.577 472.299 392.696C466.644 394.577 460.94 396.687 455.533 399.206C452.545 389.246 451.194 378.267 449.955 367.966Z"/>
	<path fill="#298630" transform="scale(0.25 0.25)" d="M618.591 181.382C620.591 180.602 622.215 180.972 624.146 181.719C617.068 187.909 611.14 195.17 605.107 202.349Q599.527 209.116 594.199 216.083Q588.871 223.051 583.802 230.209Q578.734 237.367 573.932 244.707Q569.13 252.047 564.6 259.558Q560.071 267.069 555.82 274.741Q551.57 282.414 547.604 290.237Q543.638 298.06 539.963 306.024Q536.287 313.988 532.906 322.081Q527.381 335.407 522.736 349.065C520.197 356.69 518.059 364.512 515.22 372.026C513.839 376.579 512.512 381.263 511.959 386.001C508.69 385.985 505.469 385.984 502.212 386.291C502.676 383.622 502.918 380.933 503.189 378.239C513.124 311.747 540.753 271.47 583.206 221.164C594.533 207.742 605.595 193.204 618.591 181.382Z"/>
	<path fill="#83D12A" transform="scale(0.25 0.25)" d="M624.146 181.719C625.857 184.866 625.661 191.397 625.478 194.984L625.388 195.466C622.945 209.029 622.17 222.204 618.998 235.835C606.94 287.661 576.496 329.846 533.172 360.462C527.634 364.375 521.326 369.203 515.22 372.026C518.059 364.512 520.197 356.69 522.736 349.065Q527.381 335.407 532.906 322.081Q536.287 313.988 539.963 306.024Q543.638 298.06 547.604 290.237Q551.57 282.414 555.82 274.741Q560.071 267.069 564.6 259.558Q569.13 252.047 573.932 244.707Q578.734 237.367 583.802 230.209Q588.871 223.051 594.199 216.083Q599.527 209.116 605.107 202.349C611.14 195.17 617.068 187.909 624.146 181.719Z"/>
	<path fill="#37932A" transform="scale(0.25 0.25)" d="M625.478 194.984C629.256 201.081 635.19 264.904 634.909 275.01Q634.583 284.969 633.304 294.852Q632.026 304.734 629.806 314.448C623.717 340.305 612.662 363.417 597.469 385.141C592.807 391.807 587.62 398.081 582.947 404.72C559.956 393.394 537.988 385.879 511.959 386.001C512.512 381.263 513.839 376.579 515.22 372.026C521.326 369.203 527.634 364.375 533.172 360.462C576.496 329.846 606.94 287.661 618.998 235.835C622.17 222.204 622.945 209.029 625.388 195.466L625.478 194.984Z"/>
	<defs>
		<linearGradient id="gradient_2" gradientUnits="userSpaceOnUse" x1="359.39621" y1="464.05493" x2="278.69519" y2="721.33704">
			<stop offset="0" stop-color="#D5FDFF"/>
			<stop offset="1" stop-color="white"/>
		</linearGradient>
	</defs>
	<path fill="url(#gradient_2)" transform="scale(0.25 0.25)" d="M183.258 369.09C187.06 368.721 194.898 367.52 197.996 370.078C198.248 370.285 198.452 370.545 198.68 370.778Q207.966 378.084 218.058 384.23C225.828 389.272 233.431 394.599 241.276 399.516C252.119 424.074 263.881 447.655 281.413 468.239C274.612 486.661 273.273 506.304 281.563 524.527C287.507 537.593 297.003 547.824 309.123 555.39C314.593 558.054 320.024 560.964 325.951 562.474L325.395 563.667C326.282 564.709 327.023 565.23 326.846 566.72C326.635 568.497 325.008 570.613 324.063 572.145C322.241 571.564 319.912 570.49 318.003 570.692C331.73 577.63 345.653 584.334 359.092 591.817C365.774 595.537 372 601.022 379.116 603.772C428.79 638.445 465.822 672.099 491.172 728.186C498.05 743.403 504.005 759.664 508.195 775.829L508.799 776.827C510.23 777.239 510.903 777.37 512.408 777.036C518.073 778.224 523.349 777.255 529.044 777.04C548.821 732.708 583.737 696.228 622.922 668.403C672.882 632.926 730.893 609.42 790.349 595.454C811.609 590.46 833.531 585.526 855.416 589.234C855.514 590.579 855.541 591.989 855.733 593.321C828.581 597.044 802.235 601.481 775.742 608.72C701.129 629.105 613.57 672.851 565.83 735.562C555.659 748.922 546.585 762.303 539.203 777.404C546.137 778.903 551.816 780.239 557.541 784.745C561.145 791.416 570.62 800.856 575.569 807.754C578.167 811.827 578.401 820.274 577.536 824.759C576.346 830.927 572.804 836.63 567.517 840.091C564.038 842.368 560.592 843.194 556.536 843.63C550.254 844.307 543.719 843.983 537.406 843.982L505.522 843.897C495.132 843.866 472.547 845.169 463.384 843.155C457.22 841.801 451.403 838.061 448.107 832.622C443.221 824.56 445.819 816 447.89 807.565C442.959 804.092 438.278 800.144 433.452 796.511C423.764 789.22 413.756 781.991 403.607 775.353C347.191 738.455 285.588 710.081 222.238 687.368Q193.803 677.415 164.988 668.624C153.563 665.137 141.951 662.378 130.864 657.866C132.847 649.061 132.72 640.079 133.353 631.122C135.518 593.24 138.8 555.435 140.793 517.538L143.69 466.568C144.312 456.059 144.251 444.877 146.516 434.588C149.05 423.075 163.855 413.786 173.121 407.92L178.151 405.665C179.085 405.119 179.13 404.509 179.25 403.558C180.68 392.241 177.201 379.613 183.258 369.09Z"/>
	<path fill="#A3E8DF" transform="scale(0.25 0.25)" d="M145.831 623.113C145.089 622.534 145.046 622.697 144.782 621.941C144.339 620.675 144.34 619.313 144.419 617.988L151.805 505.145L154.242 467.415C154.7 459.301 154.831 451.099 155.578 443.009C155.97 438.775 156.446 432.99 158.301 429.138C160.802 423.945 167.96 423.433 172.727 421.426C174.653 420.615 176.992 419.093 177.707 417.035C177.805 416.752 177.885 416.463 177.974 416.178C177.924 432.379 169.298 585.295 170.064 586.725C166.606 588.093 163.653 593.089 161.573 596.014C167.57 595.988 174.007 595.713 179.93 596.7C177.562 600.913 177.516 605.795 175.643 610.152C164.191 611.194 155.444 611.274 147.367 620.942C146.786 621.638 146.245 622.303 145.831 623.113Z"/>
	<path fill="#56CDAF" transform="scale(0.25 0.25)" d="M175.643 610.152C259.03 614.812 340.129 653.317 403.544 706.426C422.452 722.262 439.353 739.367 455.999 757.513L455.279 757.07C447.415 752.188 440.751 745.342 433.629 739.475C423.315 730.978 412.291 722.897 401.055 715.671C334.218 672.692 269.105 647.274 191.622 630.853C182.138 628.843 172.601 626.827 163.013 625.38C157.334 624.523 151.451 624.238 145.831 623.113C146.245 622.303 146.786 621.638 147.367 620.942C155.444 611.274 164.191 611.194 175.643 610.152Z"/>
	<path fill="#0098AF" transform="scale(0.25 0.25)" d="M133.353 631.122C150.854 633.15 168.147 634.518 185.485 637.967C270.248 654.83 361.101 697.367 429.41 749.976Q442.359 760.017 455.139 770.272C459.738 773.953 465.121 777.755 469.113 782.074C462.549 786.423 449.75 796.892 448.168 805.05C448.007 805.88 447.956 806.724 447.89 807.565C442.959 804.092 438.278 800.144 433.452 796.511C423.764 789.22 413.756 781.991 403.607 775.353C347.191 738.455 285.588 710.081 222.238 687.368Q193.803 677.415 164.988 668.624C153.563 665.137 141.951 662.378 130.864 657.866C132.847 649.061 132.72 640.079 133.353 631.122Z"/>
	<path fill="#006989" transform="scale(0.25 0.25)" d="M161.573 596.014C163.653 593.089 166.606 588.093 170.064 586.725C192.064 588.79 213.845 591.068 235.551 595.353C327.512 613.507 405.497 657.642 465.436 729.897C477.799 744.801 487.699 760.395 497.586 776.982C501.414 777.542 504.292 777.917 508.134 776.969C508.354 776.914 508.577 776.874 508.799 776.827C510.23 777.239 510.903 777.37 512.408 777.036C518.073 778.224 523.349 777.255 529.044 777.04C548.821 732.708 583.737 696.228 622.922 668.403C672.882 632.926 730.893 609.42 790.349 595.454C811.609 590.46 833.531 585.526 855.416 589.234C855.514 590.579 855.541 591.989 855.733 593.321C828.581 597.044 802.235 601.481 775.742 608.72C701.129 629.105 613.57 672.851 565.83 735.562C555.659 748.922 546.585 762.303 539.203 777.404C546.137 778.903 551.816 780.239 557.541 784.745C561.145 791.416 570.62 800.856 575.569 807.754C578.167 811.827 578.401 820.274 577.536 824.759C576.346 830.927 572.804 836.63 567.517 840.091C564.038 842.368 560.592 843.194 556.536 843.63C550.254 844.307 543.719 843.983 537.406 843.982L505.522 843.897C495.132 843.866 472.547 845.169 463.384 843.155C457.22 841.801 451.403 838.061 448.107 832.622C443.221 824.56 445.819 816 447.89 807.565C447.956 806.724 448.007 805.88 448.168 805.05C449.75 796.892 462.549 786.423 469.113 782.074C469.98 782.636 470.081 782.652 471.116 782.644C475.912 779.029 479.657 777.486 485.632 776.757Q478.621 765.146 470.686 754.145Q462.752 743.145 453.946 732.828C386.26 653.953 283.129 604.624 179.93 596.7C174.007 595.713 167.57 595.988 161.573 596.014Z"/>
	<path fill="#0098AF" transform="scale(0.25 0.25)" d="M489.525 788.676C498.304 788.253 507.161 788.474 515.949 788.472C525.15 788.47 534.434 788.199 543.609 788.957Q544.722 789.846 545.821 790.753C552.143 795.978 566.376 809.919 566.905 818.562C567.097 821.694 565.826 824.475 563.747 826.766C557.623 833.511 549.544 834.193 541.064 834.447C527.224 833.806 513.104 834.14 499.244 834.239C491.764 834.292 483.861 834.873 476.464 833.798C473.113 833.311 469.8 832.321 467.115 830.18C464.322 827.952 462.832 824.85 462.535 821.315C461.893 813.658 465.29 806.374 470.063 800.594C475.093 794.502 481.485 789.494 489.525 788.676Z"/>
	<path fill="#FEFEFE" transform="scale(0.25 0.25)" d="M183.258 369.09C187.06 368.721 194.898 367.52 197.996 370.078C198.248 370.285 198.452 370.545 198.68 370.778Q207.966 378.084 218.058 384.23C225.828 389.272 233.431 394.599 241.276 399.516C252.119 424.074 263.881 447.655 281.413 468.239C274.612 486.661 273.273 506.304 281.563 524.527C287.507 537.593 297.003 547.824 309.123 555.39C314.593 558.054 320.024 560.964 325.951 562.474L325.395 563.667C326.282 564.709 327.023 565.23 326.846 566.72C326.635 568.497 325.008 570.613 324.063 572.145C322.241 571.564 319.912 570.49 318.003 570.692C331.73 577.63 345.653 584.334 359.092 591.817C365.774 595.537 372 601.022 379.116 603.772C428.79 638.445 465.822 672.099 491.172 728.186C498.05 743.403 504.005 759.664 508.195 775.829L508.799 776.827C508.577 776.874 508.354 776.914 508.134 776.969C504.292 777.917 501.414 777.542 497.586 776.982C487.699 760.395 477.799 744.801 465.436 729.897C405.497 657.642 327.512 613.507 235.551 595.353C213.845 591.068 192.064 588.79 170.064 586.725C169.298 585.295 177.924 432.379 177.974 416.178C178.258 413.185 179.201 408.47 178.151 405.665C179.085 405.119 179.13 404.509 179.25 403.558C180.68 392.241 177.201 379.613 183.258 369.09Z"/>
	<path fill="#448D7A" transform="scale(0.25 0.25)" d="M212.623 522.98C234.661 530.262 257.187 536.739 278.924 544.865C284.649 547.005 304.418 556.054 309.123 555.39C314.593 558.054 320.024 560.964 325.951 562.474L325.395 563.667C326.282 564.709 327.023 565.23 326.846 566.72C326.635 568.497 325.008 570.613 324.063 572.145C322.241 571.564 319.912 570.49 318.003 570.692C312.979 568.832 308.013 566.256 303.069 564.144C290.155 558.628 277.111 553.058 263.941 548.186C254.876 544.833 216.13 533.029 211.62 529.16C211.199 527.084 212.068 524.978 212.623 522.98Z"/>
	<path fill="#A3E8DF" transform="scale(0.25 0.25)" d="M218.058 384.23C225.828 389.272 233.431 394.599 241.276 399.516C252.119 424.074 263.881 447.655 281.413 468.239C274.612 486.661 273.273 506.304 281.563 524.527C287.507 537.593 297.003 547.824 309.123 555.39C304.418 556.054 284.649 547.005 278.924 544.865C257.187 536.739 234.661 530.262 212.623 522.98C213.575 521.088 214.104 519.339 214.361 517.238C216.073 503.209 215.636 488.255 216.046 474.09L218.058 384.23Z"/>
	<path fill="#0098AF" transform="scale(0.25 0.25)" d="M183.258 369.09C187.06 368.721 194.898 367.52 197.996 370.078C198.248 370.285 198.452 370.545 198.68 370.778C196.572 391.11 196.309 411.592 195.523 432.006L191.722 517.665C191.005 533.717 190.796 549.919 189.54 565.932C215.968 570.019 242.145 573.69 267.982 580.851C346.937 602.735 428.437 652.021 477.35 718.687C485.81 730.218 493.584 742.566 499.803 755.458C502.067 760.15 505.621 772.604 508.195 775.829L508.799 776.827C508.577 776.874 508.354 776.914 508.134 776.969C504.292 777.917 501.414 777.542 497.586 776.982C487.699 760.395 477.799 744.801 465.436 729.897C405.497 657.642 327.512 613.507 235.551 595.353C213.845 591.068 192.064 588.79 170.064 586.725C169.298 585.295 177.924 432.379 177.974 416.178C178.258 413.185 179.201 408.47 178.151 405.665C179.085 405.119 179.13 404.509 179.25 403.558C180.68 392.241 177.201 379.613 183.258 369.09Z"/>
	<defs>
		<linearGradient id="gradient_3" gradientUnits="userSpaceOnUse" x1="509.78506" y1="386.06418" x2="556.00732" y2="770.58984">
			<stop offset="0" stop-color="#6A0732"/>
			<stop offset="1" stop-color="#500E41"/>
		</linearGradient>
	</defs>
	<path fill="url(#gradient_3)" transform="scale(0.25 0.25)" d="M827.667 373.795C828.136 373.237 828.126 373.201 828.804 372.678C832.014 370.201 838.67 368.667 842.641 368.988C842.74 369.988 842.795 370.999 843.113 371.958C843.162 372.104 843.229 372.243 843.286 372.386C843.559 383.552 843.072 395.78 845.333 406.707L846.075 419.346Q848.583 477.748 852.047 536.101L853.923 571.1C854.28 576.993 854.344 583.43 855.416 589.234C833.531 585.526 811.609 590.46 790.349 595.454C730.893 609.42 672.882 632.926 622.922 668.403C583.737 696.228 548.821 732.708 529.044 777.04C523.349 777.255 518.073 778.224 512.408 777.036C510.903 777.37 510.23 777.239 508.799 776.827L508.195 775.829C504.005 759.664 498.05 743.403 491.172 728.186C465.822 672.099 428.79 638.445 379.116 603.772C372 601.022 365.774 595.537 359.092 591.817C345.653 584.334 331.73 577.63 318.003 570.692C319.912 570.49 322.241 571.564 324.063 572.145C325.008 570.613 326.635 568.497 326.846 566.72C327.023 565.23 326.282 564.709 325.395 563.667L325.951 562.474C320.024 560.964 314.593 558.054 309.123 555.39C297.003 547.824 287.507 537.593 281.563 524.527C273.273 506.304 274.612 486.661 281.413 468.239C283.876 463.575 286.353 459.035 289.503 454.791C294.699 448.457 300.54 442.881 307.377 438.328C323.409 427.652 343.41 425.97 361.959 429.691C376.562 435.105 382.775 441.327 394.294 451.174C397.303 446.586 400.527 442.221 404.19 438.129C407.456 435.497 410.407 432.161 413.068 428.923C417.874 423.631 423.931 419.222 429.528 414.8Q435.534 410.303 441.748 406.098C446.385 404.429 451.132 401.494 455.533 399.206C460.94 396.687 466.644 394.577 472.299 392.696L476.032 391.642C484.677 389.196 493.346 387.647 502.212 386.291C505.469 385.984 508.69 385.985 511.959 386.001C537.988 385.879 559.956 393.394 582.947 404.72C586.174 406.826 589.42 409.212 592.937 410.787C604.033 418.411 615.697 428.721 624.24 439.139Q629.402 446.846 635.428 453.898C637.161 457.543 639.071 461.029 641.086 464.525C644.108 459.425 647.651 454.74 651.203 450.007C655.052 447.877 658.359 444.439 661.653 441.532C670.558 435.675 680.806 430.709 691.403 428.983C695.376 428.243 699.456 428.466 703.375 427.653C709.266 427.678 715.416 427.522 721.03 429.589C735.245 434.441 746.874 440.118 756.771 451.812C759.217 455.508 761.531 459.606 764.245 463.082C784.256 443.131 793.133 422.617 800.033 395.768C800.674 393.108 801.117 390.359 801.645 387.672C810.247 382.906 819.083 378.582 827.667 373.795Z"/>
	<path fill="#A3E8DF" transform="scale(0.25 0.25)" d="M666.439 556.947C675.112 560.554 684.526 563.271 693.899 564.14C692.354 566.513 670.048 578.315 666.291 580.54C666.836 572.768 666.442 564.748 666.439 556.947Z"/>
	<path fill="#56CDAF" transform="scale(0.25 0.25)" d="M325.951 562.474C340.299 565.039 351.579 564.773 365.476 560.038C366.288 567.817 366.98 575.635 368.209 583.36C364.582 582.419 360.93 579.937 357.647 578.146C348.895 573.373 335.258 564.89 325.395 563.667L325.951 562.474Z"/>
	<path fill="#285157" transform="scale(0.25 0.25)" d="M325.395 563.667C335.258 564.89 348.895 573.373 357.647 578.146C360.93 579.937 364.582 582.419 368.209 583.36C369.548 586.522 373.326 587.91 376.207 589.418C373.461 591.298 371.057 593.786 368.832 596.249C371.796 598.097 377.571 600.645 379.116 603.772C372 601.022 365.774 595.537 359.092 591.817C345.653 584.334 331.73 577.63 318.003 570.692C319.912 570.49 322.241 571.564 324.063 572.145C325.008 570.613 326.635 568.497 326.846 566.72C327.023 565.23 326.282 564.709 325.395 563.667Z"/>
	<path fill="#B6135E" transform="scale(0.25 0.25)" d="M663.239 527.408C663.59 526.896 663.97 526.4 664.711 526.535C669.191 527.352 676.615 533.181 680.879 535.501Q683.895 537.13 687.121 538.287Q690.348 539.443 693.712 540.1C707.81 542.934 724.362 539.588 737.017 533.011C740.429 531.237 744.343 527.814 748.197 527.203C748.445 527.164 748.695 527.143 748.945 527.113C740.058 540.131 723.352 548.402 708.194 551.188C692.986 553.984 678.209 551.166 665.259 542.775L663.239 527.408Z"/>
	<path fill="#9E074A" transform="scale(0.25 0.25)" d="M647.537 475.066C652.974 463.406 662.231 447.993 674.859 443.034C668.384 459.119 664.556 474.826 671.725 491.42Q672.205 492.553 672.741 493.661Q673.276 494.768 673.867 495.848Q674.457 496.928 675.1 497.977Q675.743 499.026 676.438 500.041Q677.132 501.057 677.877 502.037Q678.621 503.017 679.413 503.958Q680.205 504.9 681.043 505.801Q681.88 506.702 682.762 507.56Q683.644 508.419 684.567 509.232Q685.49 510.045 686.453 510.812Q687.415 511.578 688.415 512.296Q689.414 513.013 690.448 513.68Q691.482 514.347 692.548 514.962Q693.614 515.577 694.709 516.138Q695.804 516.699 696.926 517.205Q698.048 517.711 699.193 518.16C709.96 522.365 723.32 522.37 733.916 517.609C743.814 513.161 752.536 504.984 756.335 494.68C758.558 488.649 757.272 482.872 758.402 476.845C762.743 482.825 762.547 492.83 761.476 499.859C760.022 509.397 756.299 520.519 748.945 527.113C748.695 527.143 748.445 527.164 748.197 527.203C744.343 527.814 740.429 531.237 737.017 533.011C724.362 539.588 707.81 542.934 693.712 540.1Q690.348 539.443 687.121 538.287Q683.895 537.13 680.879 535.501C676.615 533.181 669.191 527.352 664.711 526.535C663.97 526.4 663.59 526.896 663.239 527.408C661.341 520.254 660.452 512.802 658.412 505.698C655.401 495.214 651.093 485.34 647.537 475.066Z"/>
	<path fill="#9E074A" transform="scale(0.25 0.25)" d="M297.586 456.607C298.961 474.259 303.362 490.266 317.329 502.204Q318.276 503.003 319.256 503.761Q320.236 504.519 321.247 505.236Q322.257 505.953 323.297 506.626Q324.337 507.3 325.404 507.929Q326.471 508.559 327.564 509.143Q328.657 509.727 329.773 510.265Q330.889 510.803 332.027 511.293Q333.165 511.784 334.322 512.226Q335.479 512.669 336.654 513.062Q337.829 513.456 339.019 513.8Q340.21 514.144 341.413 514.437Q342.617 514.731 343.832 514.974Q345.047 515.217 346.271 515.409Q347.495 515.601 348.726 515.741Q349.957 515.882 351.193 515.971Q352.429 516.059 353.667 516.096C358.415 516.192 363.119 515.429 367.839 515.456C365.819 524.763 365.812 535.858 365.9 545.393Q364.119 546.447 362.242 547.318Q360.365 548.19 358.41 548.871Q356.456 549.551 354.443 550.034Q352.431 550.517 350.38 550.797Q349 550.974 347.613 551.084Q346.226 551.194 344.835 551.236Q343.445 551.278 342.054 551.252Q340.662 551.226 339.274 551.132Q337.886 551.038 336.504 550.876Q335.122 550.714 333.75 550.485Q332.378 550.256 331.018 549.96Q329.659 549.665 328.315 549.303Q326.972 548.941 325.647 548.514Q324.323 548.087 323.022 547.595Q321.72 547.104 320.444 546.55Q319.168 545.996 317.92 545.38Q316.672 544.764 315.456 544.088Q314.24 543.411 313.059 542.677Q311.878 541.942 310.733 541.15Q309.589 540.359 308.485 539.512C296.424 530.255 288.562 515.514 286.594 500.535C284.571 485.141 288.028 468.968 297.586 456.607Z"/>
	<path fill="#EA1B6C" transform="scale(0.25 0.25)" d="M297.586 456.607C307.269 444.266 321.226 435.605 336.958 433.672C351.02 431.945 365.568 435.537 376.685 444.453C381.516 448.328 385.194 453.1 388.155 458.52C387.048 460.838 386.001 463.176 384.606 465.338C383.136 468.339 381.771 471.497 380.1 474.384C375.246 488.146 370.584 501.034 367.839 515.456C363.119 515.429 358.415 516.192 353.667 516.096Q352.429 516.059 351.193 515.97Q349.957 515.882 348.726 515.741Q347.495 515.601 346.271 515.409Q345.047 515.217 343.832 514.974Q342.617 514.731 341.413 514.437Q340.21 514.144 339.019 513.8Q337.829 513.456 336.654 513.062Q335.479 512.669 334.322 512.226Q333.165 511.784 332.027 511.293Q330.889 510.803 329.773 510.265Q328.657 509.727 327.564 509.143Q326.471 508.559 325.404 507.929Q324.337 507.3 323.297 506.626Q322.257 505.953 321.247 505.236Q320.236 504.519 319.256 503.761Q318.276 503.003 317.329 502.204C303.362 490.266 298.961 474.259 297.586 456.607Z"/>
	<path fill="#FD76B1" transform="scale(0.25 0.25)" d="M380.1 474.384C376.744 476.886 373.552 479.024 369.381 479.97C363.62 481.278 357.67 479.594 352.883 476.289C347.672 472.69 343.735 467.046 342.673 460.753C341.821 455.706 342.915 450.165 346.095 446.088C349.112 442.219 353.626 440.247 358.411 439.675C364.668 438.926 370.432 441.149 375.257 445.081C382.338 450.849 383.74 456.667 384.606 465.338C383.136 468.339 381.771 471.497 380.1 474.384Z"/>
	<path fill="#EA1B6C" transform="scale(0.25 0.25)" d="M674.859 443.034C680.63 439.055 687.416 436.54 694.297 435.278C707.012 432.946 721.535 434.416 732.373 441.873C741.203 446.685 751.895 456.31 754.674 466.363C754.798 466.813 754.822 467.013 754.912 467.5C756.608 470.524 757.892 473.372 758.402 476.845C757.272 482.872 758.558 488.649 756.335 494.68C752.536 504.984 743.814 513.161 733.916 517.609C723.32 522.37 709.96 522.365 699.193 518.16Q698.048 517.711 696.926 517.205Q695.804 516.699 694.709 516.138Q693.614 515.577 692.548 514.962Q691.482 514.347 690.448 513.68Q689.414 513.013 688.415 512.296Q687.415 511.578 686.453 510.812Q685.49 510.045 684.567 509.232Q683.644 508.419 682.762 507.56Q681.88 506.702 681.043 505.801Q680.205 504.9 679.413 503.958Q678.621 503.017 677.877 502.037Q677.132 501.057 676.438 500.041Q675.743 499.026 675.1 497.977Q674.457 496.928 673.867 495.848Q673.276 494.768 672.741 493.661Q672.205 492.553 671.725 491.42C664.556 474.826 668.384 459.119 674.859 443.034Z"/>
	<path fill="#FD76B1" transform="scale(0.25 0.25)" d="M754.912 467.5C754.263 470.663 752.974 474.061 751.044 476.656C748.137 480.566 743.574 482.845 738.804 483.512C731.987 484.465 725.248 482.285 719.946 477.984C714.596 473.644 710.673 467.124 710.164 460.179C709.835 455.695 711.052 451.378 714.062 447.989C718.921 442.519 725.594 442.134 732.373 441.873C741.203 446.685 751.895 456.31 754.674 466.363C754.798 466.813 754.822 467.013 754.912 467.5Z"/>
	<defs>
		<linearGradient id="gradient_4" gradientUnits="userSpaceOnUse" x1="508.10339" y1="451.96085" x2="526.5907" y2="742.03821">
			<stop offset="0" stop-color="#9F0748"/>
			<stop offset="1" stop-color="#811154"/>
		</linearGradient>
	</defs>
	<path fill="url(#gradient_4)" transform="scale(0.25 0.25)" d="M405.789 457.262C409.429 462.353 414.393 466.665 418.766 471.13C416.264 474.793 414.612 479.67 414.208 484.094C422.894 476.751 431.279 471.579 443.066 472.608Q443.966 472.687 444.861 472.809Q445.755 472.932 446.643 473.098Q447.531 473.265 448.409 473.474Q449.288 473.684 450.155 473.937Q451.022 474.189 451.876 474.484Q452.729 474.779 453.568 475.115Q454.406 475.452 455.226 475.829Q456.047 476.206 456.848 476.623Q457.649 477.04 458.429 477.496Q459.209 477.952 459.965 478.445Q460.722 478.939 461.453 479.469Q462.184 479.999 462.889 480.564Q463.593 481.129 464.269 481.729Q464.945 482.328 465.59 482.959Q466.236 483.591 466.85 484.254Q467.463 484.916 468.044 485.608C474.649 493.575 477.889 504.914 476.842 515.18C476.324 520.252 474.842 524.902 472.867 529.576C474.05 532.164 473.692 534.42 473.151 537.16C471.415 545.97 464.823 554.487 457.397 559.343C449.781 564.323 440.884 566.018 431.996 564.015C412.013 559.513 400.284 539.205 390.033 523.25C395.593 540.524 403.629 555.362 415.659 569.034C438.178 594.629 472.469 614.287 506.753 616.438C541.686 618.631 576.705 603.92 602.609 580.909C619.158 566.207 633.042 548.279 641.493 527.718C643.388 523.107 645.451 517.897 645.765 512.875C646.599 520.229 648.216 527.518 649.055 534.906Q650.535 548.274 650.913 561.718Q651.29 575.161 650.562 588.591C638.973 596.338 627.142 603.677 615.963 612.026C567.123 648.505 536.685 690.658 511.588 745.901C507.663 736.076 504.257 726.247 499.624 716.7C480.609 677.522 450.731 642.468 416.607 615.615C409.334 609.892 401.568 604.416 393.903 599.23C390.695 597.06 387.12 595.283 384.104 592.853C381.396 590.672 380.837 576.98 380.396 572.747C376.422 534.607 380.913 487.971 405.789 457.262Z"/>
	<path fill="#FEFEFE" transform="scale(0.25 0.25)" d="M414.208 484.094C422.894 476.751 431.279 471.579 443.066 472.608Q443.966 472.687 444.861 472.809Q445.755 472.932 446.643 473.098Q447.531 473.265 448.409 473.474Q449.288 473.684 450.155 473.937Q451.022 474.189 451.876 474.484Q452.729 474.779 453.568 475.115Q454.406 475.452 455.226 475.829Q456.047 476.206 456.848 476.623Q457.649 477.04 458.429 477.496Q459.209 477.952 459.965 478.445Q460.722 478.939 461.453 479.469Q462.184 479.999 462.889 480.564Q463.593 481.129 464.269 481.729Q464.945 482.328 465.59 482.959Q466.236 483.591 466.85 484.254Q467.463 484.916 468.044 485.608C474.649 493.575 477.889 504.914 476.842 515.18C476.324 520.252 474.842 524.902 472.867 529.576C472.675 529.926 472.488 530.28 472.278 530.619C467.075 539.048 459.189 545.626 449.42 547.872Q448.592 548.058 447.755 548.202Q446.918 548.346 446.076 548.448Q445.233 548.551 444.386 548.611Q443.54 548.671 442.691 548.689Q441.842 548.707 440.994 548.683Q440.145 548.659 439.299 548.592Q438.452 548.525 437.611 548.417Q436.769 548.308 435.933 548.158Q435.098 548.008 434.271 547.816Q433.444 547.624 432.627 547.391Q431.811 547.159 431.007 546.886Q430.203 546.613 429.414 546.3Q428.625 545.987 427.852 545.635Q427.08 545.284 426.326 544.894Q425.571 544.504 424.838 544.078Q424.104 543.651 423.392 543.188C414.376 537.417 408.624 527.762 406.498 517.395C403.907 504.767 407.254 494.591 414.208 484.094Z"/>
	<path fill="#662567" transform="scale(0.25 0.25)" d="M440.66 480.11C440.969 480.095 441.277 480.077 441.586 480.066C449.123 479.781 456.591 482.16 462.135 487.414C468.2 493.163 471.506 501.513 471.549 509.817C471.588 517.307 468.877 524.968 463.435 530.235C459.132 534.4 453.259 537.028 447.223 536.876C438.923 536.666 433.416 531.852 428.019 526.179C426.216 524.044 424.716 521.743 423.635 519.156C419.549 509.378 421.44 500.101 425.176 490.597C424.736 495.927 424.615 500.407 428.051 504.961C430.215 507.83 433.193 509.23 436.722 509.593C441.16 510.049 445.348 508.744 448.774 505.886C451.959 503.23 454.373 499.115 454.641 494.922C454.819 492.151 453.818 489.714 451.943 487.691C447.12 482.491 440.708 482.383 434.17 482.024L440.66 480.11Z"/>
	<path fill="#FEFEFE" transform="scale(0.25 0.25)" d="M827.667 373.795C828.136 373.237 828.126 373.201 828.804 372.678C832.014 370.201 838.67 368.667 842.641 368.988C842.74 369.988 842.795 370.999 843.113 371.958C843.162 372.104 843.229 372.243 843.286 372.386C843.559 383.552 843.072 395.78 845.333 406.707L846.075 419.346Q848.583 477.748 852.047 536.101L853.923 571.1C854.28 576.993 854.344 583.43 855.416 589.234C833.531 585.526 811.609 590.46 790.349 595.454C730.893 609.42 672.882 632.926 622.922 668.403C583.737 696.228 548.821 732.708 529.044 777.04C523.349 777.255 518.073 778.224 512.408 777.036C512.777 776.3 513.279 775.598 513.715 774.898C517.448 762.285 522.878 749.751 528.372 737.812C557.552 674.39 604.905 626.762 666.014 593.41C666.007 589.179 665.719 584.731 666.291 580.54C670.048 578.315 692.354 566.513 693.899 564.14C697.575 564.223 701.283 564.266 704.95 563.964C720.314 562.699 736.538 555.103 747.872 544.756C751.439 541.499 754.511 537.694 757.624 534.011C759.694 530.934 761.721 527.855 763.402 524.543C774.014 503.631 771.388 484.573 764.245 463.082C784.256 443.131 793.133 422.617 800.033 395.768C800.674 393.108 801.117 390.359 801.645 387.672C810.247 382.906 819.083 378.582 827.667 373.795Z"/>
	<path fill="#448D7A" transform="scale(0.25 0.25)" d="M757.624 534.011C761.736 535.191 796.314 521.948 808.661 522.445C814.985 523.051 821.317 523.721 827.65 524.224Q795.202 535.466 763.42 548.473Q731.638 561.48 700.618 576.213C688.964 581.682 677.634 587.864 666.014 593.41C666.007 589.179 665.719 584.731 666.291 580.54C670.048 578.315 692.354 566.513 693.899 564.14C697.575 564.223 701.283 564.266 704.95 563.964C720.314 562.699 736.538 555.103 747.872 544.756C751.439 541.499 754.511 537.694 757.624 534.011Z"/>
	<path fill="#A3E8DF" transform="scale(0.25 0.25)" d="M800.033 395.768C801.07 397.343 801.383 398.724 801.621 400.578C802.834 410.022 802.215 419.927 802.536 429.455C803.161 448.018 803.837 466.544 804.128 485.12C804.294 495.749 803.955 506.447 804.413 517.063C804.515 519.427 804.087 521.612 806.852 522.147C807.452 522.262 808.057 522.353 808.661 522.445C796.314 521.948 761.736 535.191 757.624 534.011C759.694 530.934 761.721 527.855 763.402 524.543C774.014 503.631 771.388 484.573 764.245 463.082C784.256 443.131 793.133 422.617 800.033 395.768Z"/>
	<path fill="#0098AF" transform="scale(0.25 0.25)" d="M827.667 373.795C828.136 373.237 828.126 373.201 828.804 372.678C832.014 370.201 838.67 368.667 842.641 368.988C842.74 369.988 842.795 370.999 843.113 371.958C843.162 372.104 843.229 372.243 843.286 372.386C843.559 383.552 843.072 395.78 845.333 406.707L846.075 419.346Q848.583 477.748 852.047 536.101L853.923 571.1C854.28 576.993 854.344 583.43 855.416 589.234C833.531 585.526 811.609 590.46 790.349 595.454C730.893 609.42 672.882 632.926 622.922 668.403C583.737 696.228 548.821 732.708 529.044 777.04C523.349 777.255 518.073 778.224 512.408 777.036C512.777 776.3 513.279 775.598 513.715 774.898C517.878 770.978 525.17 753.606 528.873 747.277C533.354 739.62 538.435 732.118 543.528 724.857C591.425 656.575 665.75 608.673 745.315 585.523C775.463 576.751 806.371 571.7 837.25 566.262Q832.674 500.466 830.232 434.556C829.705 422.687 829.008 410.817 828.621 398.942C828.348 390.563 828.55 382.137 827.667 373.795Z"/>
	<path fill="#EA1B6C" transform="scale(0.25 0.25)" d="M405.789 457.262C409.97 450.633 416.148 444.384 421.714 438.843C444.885 415.784 479.077 399.94 512.068 399.987C551.337 400.541 580.28 413.334 607.585 441.429C627.102 461.509 638.514 486.144 645.765 512.875C645.451 517.897 643.388 523.107 641.493 527.718C633.042 548.279 619.158 566.207 602.609 580.909C576.705 603.92 541.686 618.631 506.753 616.438C472.469 614.287 438.178 594.629 415.659 569.034C403.629 555.362 395.593 540.524 390.033 523.25C400.284 539.205 412.013 559.513 431.996 564.015C440.884 566.018 449.781 564.323 457.397 559.343C464.823 554.487 471.415 545.97 473.151 537.16C473.692 534.42 474.05 532.164 472.867 529.576C474.842 524.902 476.324 520.252 476.842 515.18C477.889 504.914 474.649 493.575 468.044 485.608Q467.463 484.916 466.85 484.254Q466.236 483.591 465.59 482.959Q464.945 482.328 464.269 481.729Q463.593 481.129 462.889 480.564Q462.184 479.999 461.453 479.469Q460.722 478.939 459.965 478.445Q459.209 477.952 458.429 477.496Q457.649 477.04 456.848 476.623Q456.047 476.206 455.226 475.829Q454.406 475.452 453.568 475.115Q452.729 474.779 451.876 474.484Q451.022 474.189 450.155 473.937Q449.288 473.684 448.409 473.474Q447.531 473.265 446.643 473.098Q445.755 472.932 444.861 472.809Q443.966 472.687 443.066 472.608C431.279 471.579 422.894 476.751 414.208 484.094C414.612 479.67 416.264 474.793 418.766 471.13C414.393 466.665 409.429 462.353 405.789 457.262Z"/>
	<path fill="#FD76B1" transform="scale(0.25 0.25)" d="M585.788 439.92C587.298 440.578 588.833 441.389 590.194 442.317C593.355 444.47 596.459 447.961 597.12 451.845C597.73 455.432 596.657 457.505 594.591 460.348C592.27 460.774 590.349 460.508 588.272 459.318C585.57 457.771 584.102 454.912 583.455 451.954C582.462 447.41 583.33 443.776 585.788 439.92Z"/>
	<path fill="#FD76B1" transform="scale(0.25 0.25)" d="M511.177 526.134C514.226 525.894 517.63 525.861 520.6 526.626C525.877 527.985 528.245 531.602 530.863 535.987C530.44 537.501 529.991 539.082 529.33 540.508C527.365 544.751 523.829 546.71 519.649 548.331C516.322 548.894 512.711 548.93 509.532 547.697C506.066 546.351 503.049 543.616 501.736 540.096C500.808 537.609 500.885 534.793 502.09 532.413C503.935 528.767 507.5 527.312 511.177 526.134Z"/>
	<path fill="#F4440C" transform="scale(0.25 0.25)" d="M494.031 592.128C501.205 586.186 508.157 581.614 517.797 581.399C525.8 581.22 532.993 584.132 538.713 589.692C534.807 596.494 529.743 602.584 521.878 604.817Q521.347 604.964 520.81 605.085Q520.272 605.205 519.729 605.299Q519.187 605.393 518.64 605.46Q518.093 605.526 517.544 605.566Q516.994 605.606 516.444 605.618Q515.893 605.631 515.342 605.616Q514.792 605.601 514.242 605.559Q513.693 605.517 513.147 605.448Q512.6 605.379 512.058 605.283Q511.516 605.187 510.979 605.064Q510.442 604.941 509.911 604.792Q509.381 604.643 508.859 604.467Q508.337 604.292 507.824 604.091Q507.311 603.89 506.809 603.664Q506.306 603.438 505.816 603.187Q505.325 602.937 504.848 602.662C500.427 600.169 496.859 596.296 494.031 592.128Z"/>
	<path fill="#9E074A" transform="scale(0.25 0.25)" d="M553.379 520.674C557.607 531.457 563.556 540.171 574.424 544.99Q575.128 545.308 575.848 545.591Q576.567 545.874 577.3 546.121Q578.032 546.367 578.776 546.578Q579.52 546.788 580.273 546.961Q581.026 547.134 581.787 547.27Q582.548 547.406 583.315 547.504Q584.082 547.601 584.853 547.661Q585.623 547.721 586.396 547.742Q587.169 547.764 587.941 547.747Q588.714 547.73 589.485 547.675Q590.256 547.62 591.023 547.527Q591.791 547.433 592.553 547.302Q593.314 547.171 594.069 547.003Q594.823 546.834 595.568 546.628Q596.313 546.422 597.047 546.18Q597.781 545.938 598.502 545.659C604.097 543.482 609.009 539.584 612.828 534.992C613.134 535.538 613.198 535.576 613.352 536.283C614.182 540.104 611.601 545.758 609.537 548.905C605.324 555.331 598.437 559.777 590.938 561.301Q590.227 561.446 589.51 561.557Q588.793 561.668 588.072 561.743Q587.35 561.819 586.626 561.859Q585.902 561.9 585.176 561.905Q584.451 561.91 583.726 561.88Q583.001 561.849 582.279 561.784Q581.556 561.719 580.838 561.618Q580.12 561.518 579.407 561.382Q578.694 561.247 577.989 561.077Q577.284 560.907 576.587 560.703Q575.891 560.5 575.206 560.262Q574.52 560.024 573.847 559.754Q573.174 559.483 572.515 559.18Q571.856 558.877 571.213 558.542Q570.569 558.207 569.943 557.841Q569.316 557.476 568.708 557.08C559.849 551.194 554.546 541.38 552.519 531.108C551.839 527.665 551.366 523.725 553.379 520.674Z"/>
	<path fill="#FD76B1" transform="scale(0.25 0.25)" d="M517.408 457.524C520.717 457.393 523.924 457.658 526.991 458.995C531.179 460.821 534.348 464.225 535.989 468.476C537.688 472.874 537.705 477.808 535.64 482.088C533.104 487.348 528.818 489.637 523.569 491.462C520.358 491.589 517.31 491.639 514.275 490.426Q513.859 490.261 513.452 490.076Q513.045 489.89 512.649 489.683Q512.252 489.477 511.866 489.25Q511.481 489.024 511.107 488.778Q510.734 488.531 510.373 488.266Q510.013 488.001 509.667 487.718Q509.321 487.435 508.99 487.134Q508.658 486.834 508.343 486.516Q508.028 486.199 507.729 485.866Q507.431 485.533 507.15 485.185Q506.869 484.837 506.606 484.475Q506.344 484.113 506.1 483.738Q505.856 483.363 505.632 482.975Q505.408 482.588 505.204 482.19Q505 481.792 504.817 481.384Q504.634 480.976 504.472 480.559C502.786 476.322 502.682 471.257 504.67 467.104C507.286 461.639 512.062 459.497 517.408 457.524Z"/>
	<path fill="#640E23" transform="scale(0.25 0.25)" d="M480.97 544.36C488.968 547.738 496.2 552.686 504.677 554.956C521.081 559.348 534.594 552.097 548.525 544.166C548.637 560.006 544.433 575.073 538.713 589.692C532.993 584.132 525.8 581.22 517.797 581.399C508.157 581.614 501.205 586.186 494.031 592.128C485.334 577.363 482.776 561.119 480.97 544.36Z"/>
	<path fill="#FD76B1" transform="scale(0.25 0.25)" d="M534.998 406.61Q536.468 406.484 537.943 406.473Q539.419 406.462 540.89 406.566Q542.362 406.671 543.821 406.89Q545.28 407.11 546.717 407.443Q548.154 407.776 549.561 408.22Q550.968 408.665 552.335 409.218Q553.703 409.771 555.023 410.43Q556.343 411.088 557.608 411.848C564.194 415.875 569.728 422.459 571.367 430.105C572.472 435.265 571.764 440.754 568.756 445.165C564.861 450.876 558.681 453.221 552.193 454.481C544.594 454.575 537.579 453.204 530.97 449.31C523.849 445.114 517.604 438.357 515.631 430.166C514.498 425.462 514.876 420.483 517.54 416.351C521.465 410.265 528.31 408.08 534.998 406.61Z"/>
	<path fill="#B6135E" transform="scale(0.25 0.25)" d="M405.789 457.262C409.97 450.633 416.148 444.384 421.714 438.843C444.885 415.784 479.077 399.94 512.068 399.987C502.968 411.209 497.961 422.801 499.594 437.478Q500 440.849 500.791 444.151Q501.583 447.453 502.751 450.641C497.719 453.706 492.933 456.906 488.217 460.445C470.32 454.019 454.251 450.92 436.249 459.275C430.065 462.146 423.708 466.432 418.766 471.13C414.393 466.665 409.429 462.353 405.789 457.262Z"/>
	<path fill="#FEFEFE" transform="scale(0.25 0.25)" d="M553.379 520.674C551.723 508.098 552.672 496.801 560.745 486.443Q561.253 485.781 561.794 485.145Q562.334 484.509 562.906 483.901Q563.478 483.293 564.079 482.714Q564.68 482.136 565.31 481.588Q565.939 481.04 566.595 480.524Q567.251 480.008 567.932 479.525Q568.613 479.043 569.317 478.595Q570.021 478.147 570.747 477.735Q571.473 477.322 572.218 476.947Q572.963 476.571 573.727 476.234Q574.49 475.896 575.269 475.597Q576.048 475.297 576.841 475.037Q577.634 474.777 578.439 474.557Q579.244 474.337 580.059 474.158Q580.874 473.978 581.697 473.839Q582.52 473.7 583.349 473.603Q584.104 473.508 584.864 473.451Q585.623 473.394 586.384 473.375Q587.146 473.357 587.907 473.376Q588.668 473.396 589.427 473.454Q590.187 473.513 590.942 473.609Q591.697 473.705 592.447 473.84Q593.196 473.974 593.938 474.146Q594.68 474.318 595.412 474.527Q596.144 474.737 596.865 474.982Q597.586 475.228 598.293 475.51Q599 475.792 599.693 476.109Q600.385 476.427 601.061 476.778Q601.736 477.13 602.393 477.515Q603.049 477.901 603.686 478.319Q604.323 478.737 604.937 479.186Q605.552 479.636 606.143 480.116Q606.891 480.715 607.608 481.35Q608.326 481.986 609.01 482.656Q609.695 483.326 610.346 484.03Q610.996 484.733 611.611 485.469Q612.226 486.204 612.803 486.968Q613.38 487.733 613.919 488.526Q614.457 489.318 614.956 490.137Q615.454 490.955 615.911 491.797Q616.368 492.64 616.783 493.504Q617.197 494.368 617.568 495.251Q617.939 496.135 618.266 497.035Q618.592 497.936 618.874 498.852Q619.155 499.768 619.39 500.697Q619.625 501.626 619.814 502.566Q620.003 503.505 620.145 504.453Q620.287 505.4 620.381 506.354C621.47 516.548 618.341 526.48 612.828 534.992C609.009 539.584 604.097 543.482 598.502 545.659Q597.781 545.938 597.047 546.18Q596.313 546.422 595.568 546.628Q594.823 546.834 594.069 547.003Q593.314 547.171 592.553 547.302Q591.791 547.433 591.023 547.527Q590.256 547.62 589.485 547.675Q588.714 547.73 587.941 547.747Q587.169 547.764 586.396 547.742Q585.623 547.721 584.853 547.661Q584.082 547.601 583.315 547.504Q582.548 547.406 581.787 547.27Q581.026 547.134 580.273 546.961Q579.52 546.788 578.776 546.578Q578.032 546.367 577.3 546.121Q576.567 545.874 575.848 545.591Q575.128 545.308 574.424 544.99C563.556 540.171 557.607 531.457 553.379 520.674Z"/>
	<path fill="#662567" transform="scale(0.25 0.25)" d="M581.058 481.785C584.055 481.092 587.661 481.185 590.708 481.664Q591.305 481.758 591.896 481.881Q592.487 482.004 593.072 482.156Q593.656 482.308 594.233 482.488Q594.809 482.668 595.376 482.877Q595.943 483.085 596.499 483.321Q597.055 483.557 597.599 483.82Q598.142 484.083 598.672 484.372Q599.203 484.661 599.718 484.976Q600.233 485.291 600.733 485.631Q601.232 485.971 601.714 486.335Q602.196 486.698 602.66 487.086Q603.123 487.473 603.568 487.882Q604.012 488.291 604.435 488.722Q604.859 489.152 605.261 489.603Q605.663 490.054 606.042 490.524Q606.421 490.994 606.777 491.482Q607.207 492.084 607.607 492.707Q608.007 493.33 608.375 493.972Q608.743 494.615 609.079 495.274Q609.415 495.934 609.717 496.609Q610.02 497.285 610.288 497.975Q610.557 498.665 610.791 499.367Q611.025 500.069 611.223 500.782Q611.422 501.495 611.584 502.217Q611.747 502.939 611.874 503.669Q612.001 504.398 612.091 505.133Q612.181 505.867 612.235 506.606Q612.288 507.344 612.305 508.084Q612.322 508.824 612.301 509.564Q612.281 510.304 612.224 511.042Q612.167 511.78 612.074 512.514Q611.98 513.248 611.85 513.977Q611.734 514.663 611.584 515.343Q611.433 516.022 611.249 516.694Q611.065 517.365 610.848 518.026Q610.631 518.687 610.381 519.337Q610.131 519.987 609.849 520.623Q609.567 521.259 609.254 521.881Q608.94 522.502 608.596 523.107Q608.252 523.712 607.878 524.299Q607.505 524.886 607.102 525.454Q606.699 526.022 606.269 526.569Q605.839 527.116 605.381 527.641Q604.924 528.165 604.442 528.667Q603.959 529.168 603.452 529.645Q602.944 530.121 602.414 530.572Q601.884 531.023 601.332 531.447Q600.78 531.87 600.207 532.266C594.702 535.994 587.383 537.608 580.857 536.108C574.005 534.533 568.708 529.988 565.017 524.187C562.453 519.344 560.734 514.427 560.409 508.923C559.907 500.41 562.807 493.646 568.46 487.366C567.458 489.221 566.224 491.219 565.662 493.257C564.721 496.671 565.452 500.489 567.158 503.535Q567.555 504.247 568.023 504.914Q568.49 505.581 569.024 506.197Q569.558 506.813 570.152 507.371Q570.747 507.928 571.395 508.422Q572.043 508.916 572.739 509.34Q573.435 509.765 574.17 510.115Q574.906 510.466 575.674 510.74Q576.441 511.013 577.233 511.206C581.34 512.17 585.638 511.247 589.125 508.917C592.48 506.675 594.827 503.46 595.551 499.459Q595.678 498.752 595.734 498.037Q595.791 497.321 595.775 496.603Q595.758 495.885 595.671 495.173Q595.583 494.46 595.424 493.76Q595.265 493.06 595.037 492.38Q594.808 491.699 594.513 491.045Q594.218 490.39 593.858 489.769Q593.499 489.147 593.079 488.565C589.83 484.094 586.101 483.221 580.968 482.277L581.058 481.785Z"/>
</svg>
