<?xml version="1.0" encoding="utf-8" ?>
<svg xmlns="http://www.w3.org/2000/svg" xmlns:xlink="http://www.w3.org/1999/xlink" width="256" height="256">
	<path fill="#FECA3D" transform="scale(0.25 0.25)" d="M462.856 201.725C489.898 177.629 538.404 160.969 574.263 163.112C578.535 163.368 582.762 163.979 586.779 165.5C598.664 170.001 640.263 194.765 649.44 203.216C658.61 210.135 668.96 219.458 673.36 230.37C685.142 254.524 682.747 278.192 674.203 303.168C671.648 310.636 668.528 319.149 664.67 326.034C660.339 333.749 656.529 341.787 652.018 349.385L649.069 354.432C644.968 360.849 640.986 367.394 636.685 373.677C632.59 379.127 628.68 384.651 624.814 390.267L620.604 395.922C616.791 401.14 613.46 406.614 610.222 412.202Q606.911 419.664 603.734 427.184C601.251 435.35 600.556 442.325 601.059 450.838L601.969 453.852C592.707 457.78 584.04 463.393 574.982 467.818C572.328 469.241 569.647 470.61 567.142 472.286Q563.078 474.949 559.067 477.691C553.137 480.173 546.709 483.113 541.293 486.568L540.49 487.028C538.919 487.121 537.283 485.927 535.926 485.177C535.251 484.538 534.364 484.225 533.528 483.829C529.528 480.347 524.688 478.316 519.891 476.172C511.145 471.304 502.687 465.877 494.168 460.623C491.374 458.849 488.665 456.999 485.975 455.072L485.986 447.074Q485.995 441.347 485.927 435.621C486.048 421.633 485.991 407.32 486.971 393.378C482.791 391.016 472.032 376.285 467.938 371.779C463.978 367.42 459.791 363.462 455.343 359.618C452.79 360.862 449.675 362.814 446.818 363.049C446.899 361.528 446.737 359.883 447.747 358.65C448.328 352.858 447.901 347.096 448.389 341.312C448.608 331.289 450.211 321.706 452.613 312.005C456.691 300.88 461.666 290.875 467.514 280.57C458.901 274.216 449.791 268.412 441.011 262.267C433.554 257.048 425.908 250.862 417.943 246.515L419.218 244.742C422.748 240.605 426.183 236.476 429.392 232.08C436.181 223.659 444.705 216.822 453.039 210.013C456.325 207.329 459.871 204.734 462.856 201.725Z"/>
	<path fill="#DE7136" transform="scale(0.25 0.25)" d="M541.994 482.993C551.571 477.213 561.76 472.118 571.576 466.731C581.304 461.393 591.011 455.532 601.059 450.838L601.969 453.852C592.707 457.78 584.04 463.393 574.982 467.818C572.328 469.241 569.647 470.61 567.142 472.286Q563.078 474.949 559.067 477.691C553.137 480.173 546.709 483.113 541.293 486.568L541.126 482.543L541.994 482.993Z"/>
	<path fill="#DE7136" transform="scale(0.25 0.25)" d="M447.747 358.65C448.511 358.663 449.244 358.618 449.976 358.38C454.918 356.769 459.941 354.105 464.756 352.052C480.462 345.355 496.907 337.564 513.412 333.206C513.183 334.909 513.195 335.416 511.756 336.418C508.32 338.811 503.304 339.809 499.306 340.938C492.746 343.765 486.21 346.709 479.572 349.343C477.467 350.165 475.452 350.986 473.474 352.093C467.433 354.581 461.306 356.954 455.343 359.618C452.79 360.862 449.675 362.814 446.818 363.049C446.899 361.528 446.737 359.883 447.747 358.65Z"/>
	<path fill="#88E5F9" transform="scale(0.25 0.25)" d="M514.04 322.86C517.771 327.43 521.337 332.251 524.69 337.105L511.685 354.633C507.72 349.864 503.657 345.354 499.306 340.938C503.304 339.809 508.32 338.811 511.756 336.418C513.195 335.416 513.183 334.909 513.412 333.206C513.437 329.741 513.748 326.309 514.04 322.86Z"/>
	<path fill="#FEFEFE" transform="scale(0.25 0.25)" d="M479.572 349.343C486.21 346.709 492.746 343.765 499.306 340.938C503.657 345.354 507.72 349.864 511.685 354.633Q505.9 362.937 499.914 371.097C493.782 363.186 486.677 356.351 479.572 349.343Z"/>
	<path fill="#FEFEFE" transform="scale(0.25 0.25)" d="M523.2 300.498C529.115 306.334 534.419 312.851 539.25 319.612C534.566 325.526 529.889 331.63 524.69 337.105C521.337 332.251 517.771 327.43 514.04 322.86C515.165 314.523 518.731 307.508 523.2 300.498Z"/>
	<path fill="#88E5F9" transform="scale(0.25 0.25)" d="M537.063 284.465C538.963 282.727 540.934 281.198 543.002 279.669C547.363 284.438 552.1 289.346 557.801 292.523C557.029 294.74 556.313 296.915 555.195 298.989C553.429 301.607 551.69 304.228 549.725 306.703L539.25 319.612C534.419 312.851 529.115 306.334 523.2 300.498Q526.076 296.015 529.559 291.986Q533.042 287.958 537.063 284.465Z"/>
	<path fill="#55D4FA" transform="scale(0.25 0.25)" d="M537.063 284.465C538.963 282.727 540.934 281.198 543.002 279.669C547.363 284.438 552.1 289.346 557.801 292.523C557.029 294.74 556.313 296.915 555.195 298.989C549.452 293.832 543.563 288.638 537.063 284.465Z"/>
	<path fill="#88E5F9" transform="scale(0.25 0.25)" d="M473.474 352.093C475.452 350.986 477.467 350.165 479.572 349.343C486.677 356.351 493.782 363.186 499.914 371.097L496.613 376.424Q491.568 384.774 486.971 393.378C482.791 391.016 472.032 376.285 467.938 371.779C463.978 367.42 459.791 363.462 455.343 359.618C461.306 356.954 467.433 354.581 473.474 352.093Z"/>
	<path fill="#55D4FA" transform="scale(0.25 0.25)" d="M473.474 352.093C475.452 350.986 477.467 350.165 479.572 349.343C486.677 356.351 493.782 363.186 499.914 371.097L496.613 376.424C488.603 368.808 480.264 360.826 473.474 352.093Z"/>
	<path fill="#FEFEFE" transform="scale(0.25 0.25)" d="M608.581 322.406C611.111 335.733 597.752 356.875 590.476 367.562C573.128 393.043 553.19 414.862 546.545 446.012C543.974 458.065 543.041 470.713 541.994 482.993L541.126 482.543C539.446 465.256 538.148 445.483 542.701 428.556C553.282 397.222 583.144 368.963 600.784 340.679C604.106 335.079 606.291 328.486 608.581 322.406Z"/>
	<path fill="#FEFEFE" transform="scale(0.25 0.25)" d="M467.514 280.57C484.826 256.019 503.324 236.68 529.27 221.026C557.525 203.978 593.066 191.383 626.309 196.529C634.363 197.775 641.281 201.285 649.036 203.125C649.171 203.157 649.305 203.185 649.44 203.216C658.61 210.135 668.96 219.458 673.36 230.37C673.183 230.273 672.998 230.191 672.83 230.08C669.039 227.564 665.166 221.158 661.195 217.86C643.708 203.34 619.892 201.105 598.174 204.317C549.723 211.482 503.982 243.706 475.35 282.643C464.325 297.636 455.943 314.348 451.846 332.589C450.52 338.495 450.255 344.771 448.652 350.547L448.389 341.312C448.608 331.289 450.211 321.706 452.613 312.005C456.691 300.88 461.666 290.875 467.514 280.57Z"/>
	<path fill="#CB9432" transform="scale(0.25 0.25)" d="M554.604 273.444C564.664 269.209 575.762 267.056 586.207 271.357C595.319 275.11 601.929 282.228 605.583 291.323C610.863 304.468 607.512 310.162 608.581 322.406C606.291 328.486 604.106 335.079 600.784 340.679C583.481 329.77 566.999 317.677 549.725 306.703C551.69 304.228 553.429 301.607 555.195 298.989C556.313 296.915 557.029 294.74 557.801 292.523C552.1 289.346 547.363 284.438 543.002 279.669Q548.833 276.613 554.604 273.444Z"/>
	<path fill="#FEFEFE" transform="scale(0.25 0.25)" d="M543.002 279.669Q548.833 276.613 554.604 273.444C557.369 279.962 558.95 285.344 557.801 292.523C552.1 289.346 547.363 284.438 543.002 279.669Z"/>
	<path fill="#FE9C06" transform="scale(0.25 0.25)" d="M462.856 201.725C489.898 177.629 538.404 160.969 574.263 163.112C578.535 163.368 582.762 163.979 586.779 165.5C598.664 170.001 640.263 194.765 649.44 203.216C649.305 203.185 649.171 203.157 649.036 203.125C641.281 201.285 634.363 197.775 626.309 196.529C593.066 191.383 557.525 203.978 529.27 221.026C503.324 236.68 484.826 256.019 467.514 280.57C458.901 274.216 449.791 268.412 441.011 262.267C433.554 257.048 425.908 250.862 417.943 246.515L419.218 244.742C422.748 240.605 426.183 236.476 429.392 232.08C436.181 223.659 444.705 216.822 453.039 210.013C456.325 207.329 459.871 204.734 462.856 201.725Z"/>
	<path fill="#FE9C06" transform="scale(0.25 0.25)" d="M549.725 306.703C566.999 317.677 583.481 329.77 600.784 340.679C583.144 368.963 553.282 397.222 542.701 428.556C538.148 445.483 539.446 465.256 541.126 482.543L541.293 486.568L540.49 487.028C538.919 487.121 537.283 485.927 535.926 485.177C535.251 484.538 534.364 484.225 533.528 483.829C529.528 480.347 524.688 478.316 519.891 476.172C511.145 471.304 502.687 465.877 494.168 460.623C491.374 458.849 488.665 456.999 485.975 455.072L485.986 447.074Q485.995 441.347 485.927 435.621C486.048 421.633 485.991 407.32 486.971 393.378Q491.568 384.774 496.613 376.424L499.914 371.097Q505.9 362.937 511.685 354.633L524.69 337.105C529.889 331.63 534.566 325.526 539.25 319.612L549.725 306.703Z"/>
	<path fill="#E32D15" transform="scale(0.25 0.25)" d="M486.971 393.378C489.154 393.988 491.125 394.971 493.083 396.093C501.237 400.768 508.874 406.504 516.789 411.586C525.303 417.053 534.945 422.087 542.701 428.556C538.148 445.483 539.446 465.256 541.126 482.543L541.293 486.568L540.49 487.028C538.919 487.121 537.283 485.927 535.926 485.177C535.251 484.538 534.364 484.225 533.528 483.829C529.528 480.347 524.688 478.316 519.891 476.172C511.145 471.304 502.687 465.877 494.168 460.623C491.374 458.849 488.665 456.999 485.975 455.072L485.986 447.074Q485.995 441.347 485.927 435.621C486.048 421.633 485.991 407.32 486.971 393.378Z"/>
	<path fill="#FEFEFE" transform="scale(0.25 0.25)" d="M445.767 192.023C451.3 195.527 457.114 198.58 462.856 201.725C459.871 204.734 456.325 207.329 453.039 210.013C444.705 216.822 436.181 223.659 429.392 232.08C426.183 236.476 422.748 240.605 419.218 244.742L417.943 246.515C425.908 250.862 433.554 257.048 441.011 262.267C449.791 268.412 458.901 274.216 467.514 280.57C461.666 290.875 456.691 300.88 452.613 312.005C450.211 321.706 448.608 331.289 448.389 341.312C447.901 347.096 448.328 352.858 447.747 358.65C446.737 359.883 446.899 361.528 446.818 363.049C449.675 362.814 452.79 360.862 455.343 359.618C459.791 363.462 463.978 367.42 467.938 371.779C472.032 376.285 482.791 391.016 486.971 393.378C485.991 407.32 486.048 421.633 485.927 435.621Q485.995 441.347 485.986 447.074L485.975 455.072C488.665 456.999 491.374 458.849 494.168 460.623C490.548 464.372 477.007 478.726 473.042 479.938C467.553 483.883 463.198 491.05 456.733 493.422C455.971 494.442 455.276 495.441 454.347 496.318C449.699 499.52 440.478 509.895 436.761 511.467C431.217 515.446 423.273 521.208 418.598 526.001L417.85 527.401C413.508 531.555 403.961 542.901 398.391 544.036C392.644 549.699 387.261 556.506 380.256 560.733C372.329 530.869 350.976 497.24 329.447 475.148C291.851 436.569 240.037 411.446 186.837 403.908C171.62 401.751 156.191 401.419 140.842 401.237C150.269 392.895 161.697 386.824 172.142 379.831L229.312 340.896L445.767 192.023Z"/>
	<path fill="#88E5F9" transform="scale(0.25 0.25)" d="M414.425 240.067C416.811 238.147 419.077 236.05 421.515 234.2C424.023 232.296 426.292 231.653 429.392 232.08C426.183 236.476 422.748 240.605 419.218 244.742C417.684 243.079 416.195 241.489 414.425 240.067Z"/>
	<path fill="#55D4FA" transform="scale(0.25 0.25)" d="M367.169 272.015C373.21 274.308 379.296 276.537 385.26 279.024C389.954 280.98 394.675 283.34 399.542 284.808L397.664 291.355C392.477 289.939 387.25 286.754 382.196 284.755C376.049 282.322 369.491 280.738 363.448 278.096C362.452 277.66 361.821 277.161 361.059 276.406L367.169 272.015Z"/>
	<path fill="#88E5F9" transform="scale(0.25 0.25)" d="M414.425 240.067C416.195 241.489 417.684 243.079 419.218 244.742L417.943 246.515L416.524 248.088C412.701 254.634 408.768 261.144 405.721 268.097C399.512 264.331 392.255 262.29 385.423 259.946C392.116 255.161 399.023 250.657 405.857 246.074C408.753 244.136 411.577 242.077 414.425 240.067Z"/>
	<path fill="#55D4FA" transform="scale(0.25 0.25)" d="M414.425 240.067C416.195 241.489 417.684 243.079 419.218 244.742L417.943 246.515L416.524 248.088C412.463 248.034 409.549 248.048 405.857 246.074C408.753 244.136 411.577 242.077 414.425 240.067Z"/>
	<path fill="#88E5F9" transform="scale(0.25 0.25)" d="M361.059 276.406C361.821 277.161 362.452 277.66 363.448 278.096C369.491 280.738 376.049 282.322 382.196 284.755C387.25 286.754 392.477 289.939 397.664 291.355C396.39 298.397 395.199 305.363 394.841 312.527C377.23 303.089 360.269 295.977 341.024 290.612C347.177 285.142 354.15 280.836 361.059 276.406Z"/>
	<path fill="#55D4FA" transform="scale(0.25 0.25)" d="M272.22 333.305C331.617 342.707 395.54 379.579 431.08 428.534C443.817 446.079 454.778 471.54 456.733 493.422C455.971 494.442 455.276 495.441 454.347 496.318C452.673 493.732 452.198 490.251 451.479 487.298C438.805 435.222 399.973 396.96 354.696 371.036C341.56 363.514 327.611 356.595 313.366 351.413C303.362 347.773 293.017 344.294 282.616 342.019C278.149 341.042 270.543 340.894 266.849 338.455C266.581 338.278 266.321 338.088 266.057 337.905Q269.184 335.666 272.22 333.305Z"/>
	<path fill="#55D4FA" transform="scale(0.25 0.25)" d="M224.039 365.634C283.581 370.283 345.583 399.797 384.614 445.496C404.364 468.621 417.239 495.281 418.598 526.001L417.85 527.401C416.893 526.393 416.281 525.409 415.863 524.087C414.442 519.593 413.715 514.82 412.455 510.263Q410.534 503.441 407.999 496.823Q405.463 490.206 402.333 483.847C394.793 468.251 383.913 454.259 371.975 441.788C340.025 408.411 289.81 382.549 244.538 373.674Q236.78 372.213 228.886 372.094C225.924 372.02 222.674 372.223 219.751 371.781C218.947 371.659 218.337 371.393 217.665 370.931C217.41 370.756 217.166 370.565 216.916 370.382L224.039 365.634Z"/>
	<path fill="#E32D15" transform="scale(0.25 0.25)" d="M417.943 246.515C425.908 250.862 433.554 257.048 441.011 262.267C449.791 268.412 458.901 274.216 467.514 280.57C461.666 290.875 456.691 300.88 452.613 312.005C450.211 321.706 448.608 331.289 448.389 341.312C447.901 347.096 448.328 352.858 447.747 358.65C446.737 359.883 446.899 361.528 446.818 363.049C441.941 357.862 435.427 353.322 429.728 349.065Q412.556 336.214 394.712 324.313L394.841 312.527C395.199 305.363 396.39 298.397 397.664 291.355L399.542 284.808C400.528 282.287 401.26 279.566 402.099 276.986L405.721 268.097C408.768 261.144 412.701 254.634 416.524 248.088L417.943 246.515Z"/>
	<path fill="#DE7136" transform="scale(0.25 0.25)" d="M417.943 246.515C425.908 250.862 433.554 257.048 441.011 262.267C449.791 268.412 458.901 274.216 467.514 280.57C461.666 290.875 456.691 300.88 452.613 312.005C448.644 306.789 409.001 279.448 402.099 276.986L405.721 268.097C408.768 261.144 412.701 254.634 416.524 248.088L417.943 246.515Z"/>
	<path fill="#88E5F9" transform="scale(0.25 0.25)" d="M197.843 383.698C203.95 378.901 210.416 374.619 216.916 370.382C217.166 370.565 217.41 370.756 217.665 370.931C218.337 371.393 218.947 371.659 219.751 371.781C222.674 372.223 225.924 372.02 228.886 372.094Q236.78 372.213 244.538 373.674C289.81 382.549 340.025 408.411 371.975 441.788C383.913 454.259 394.793 468.251 402.333 483.847Q405.463 490.206 407.999 496.823Q410.534 503.441 412.455 510.263C413.715 514.82 414.442 519.593 415.863 524.087C416.281 525.409 416.893 526.393 417.85 527.401C413.508 531.555 403.961 542.901 398.391 544.036C398.415 543.719 398.443 543.402 398.462 543.085C398.792 537.641 397.884 531.711 396.859 526.377C392.114 501.684 378.935 480.177 362.259 461.775C321.044 416.296 259.167 386.756 197.843 383.698Z"/>
	<path fill="#88E5F9" transform="scale(0.25 0.25)" d="M266.057 337.905C266.321 338.088 266.581 338.278 266.849 338.455C270.543 340.894 278.149 341.042 282.616 342.019C293.017 344.294 303.362 347.773 313.366 351.413C327.611 356.595 341.56 363.514 354.696 371.036C399.973 396.96 438.805 435.222 451.479 487.298C452.198 490.251 452.673 493.732 454.347 496.318C449.699 499.52 440.478 509.895 436.761 511.467C435.23 505.638 434.512 499.617 432.936 493.767Q431.915 490.116 430.707 486.523Q429.5 482.929 428.109 479.403Q426.718 475.876 425.148 472.425Q423.578 468.975 421.833 465.609Q420.088 462.244 418.172 458.973Q416.256 455.702 414.174 452.534Q412.092 449.365 409.851 446.308Q407.609 443.251 405.213 440.313C366.847 392.355 304.46 360.243 243.705 353.555C250.699 347.892 258.638 343.018 266.057 337.905Z"/>
	<path fill="#88E5F9" transform="scale(0.25 0.25)" d="M319.932 302.118C379.819 316.596 439.316 354.201 471.932 407.227C477.496 416.272 481.931 425.798 485.927 435.621Q485.995 441.347 485.986 447.074L485.975 455.072C488.665 456.999 491.374 458.849 494.168 460.623C490.548 464.372 477.007 478.726 473.042 479.938C470.097 464.107 465.384 449.136 457.664 434.942C430.348 384.72 380.575 350.646 327.957 331.323C316.655 327.173 305.015 324.394 293.491 320.982C300.253 316.517 306.949 312.01 313.503 307.242C315.655 305.555 317.864 303.908 319.932 302.118Z"/>
	<path fill="#55D4FA" transform="scale(0.25 0.25)" d="M319.932 302.118C379.819 316.596 439.316 354.201 471.932 407.227C477.496 416.272 481.931 425.798 485.927 435.621Q485.995 441.347 485.986 447.074L485.245 447.712C482.551 446.735 476.249 428.402 474.292 424.579C472.691 421.453 470.709 418.478 468.912 415.455C442.282 370.661 397.732 339.013 350.147 319.37Q341.116 315.577 331.716 312.822C326.086 311.199 319.028 310.088 313.865 307.438C313.743 307.375 313.623 307.307 313.503 307.242C315.655 305.555 317.864 303.908 319.932 302.118Z"/>
	<path fill="#036B74" transform="scale(0.25 0.25)" d="M128.108 557.965C142.42 563.443 157.828 574.505 171.726 581.958C213.422 604.319 254.468 627.876 295.896 650.729L328.493 668.725C335.222 672.442 341.85 676.357 348.816 679.619C361.504 698.085 377.716 712.366 400.306 716.578Q403.15 717.128 406.037 717.361Q408.924 717.593 411.819 717.506C419.981 714.74 424.095 711.332 429.343 704.608C431.153 701.484 432.957 698.455 435.131 695.567L436.102 692.958Q466.317 709.2 496.022 726.355C507.554 732.309 518.665 739.068 530.023 745.34L552.903 758.197C558.887 761.499 565.046 764.457 570.951 767.908Q586.41 776.923 601.962 785.777C607.879 789.173 613.838 792.981 620.011 795.868C621.366 796.502 622.486 797.078 623.994 796.584C624.046 796.567 624.094 796.539 624.145 796.517C623.8 792.317 623.993 787.98 623.879 783.754C623.965 782.718 624.169 781.695 624.342 780.67C624.243 779.548 624.099 778.44 623.952 777.323L624.832 776.593C636.515 767.833 648.889 759.863 660.99 751.691L728.378 706.416L935.144 565.439L935.084 561.384C947.95 569.206 961.534 576.409 974.967 583.214C976.771 587.714 974.953 601.68 975.119 607.411C963.797 617.103 949.543 624.296 936.889 632.183Q912.083 647.686 888.086 664.414C895.572 667.834 902.507 672.829 909.861 676.629C900.749 683.557 890.796 689.506 881.141 695.641L845.298 718.656L730.525 792.78L602.617 875.184Q587.636 884.718 572.78 894.445C564.66 899.789 556.603 905.402 548.161 910.217C537.444 904.954 527.234 898.594 516.862 892.691Q490.276 877.862 463.987 862.513L349.67 797.454L171.992 697.186C129.563 673.443 86.6053 650.239 44.859 625.328L44.5485 615.338C51.0274 610.276 58.013 605.754 64.7828 601.089C85.7793 586.62 107.602 573.095 128.108 557.965Z"/>
	<path fill="#1E2256" transform="scale(0.25 0.25)" d="M413.587 718.646C430.699 722.437 448.966 735.859 464.421 744.394L574.799 805.905L608.446 825.011C613.592 827.955 618.688 831.338 623.978 833.976L624.573 835.461L624.102 835.742C619.667 836.045 567.411 805.166 560.513 801.299L465.615 748.219L432.749 730.386C426.36 726.858 419.181 723.368 413.587 718.646Z"/>
	<path fill="#46347E" transform="scale(0.25 0.25)" d="M436.102 692.958Q466.317 709.2 496.022 726.355C497.184 730.038 502.287 731.482 504.902 734.282C514.188 740.937 525.089 746.33 535.115 751.808L575.254 774.013C586.473 780.231 611.248 796.281 621.971 799.314C620.28 802.825 620.572 805.838 621.075 809.622C622.156 810.269 623.239 810.841 624.174 811.691C623.667 819.059 623.981 826.588 623.978 833.976C618.688 831.338 613.592 827.955 608.446 825.011L574.799 805.905L464.421 744.394C448.966 735.859 430.699 722.437 413.587 718.646L411.819 717.506C419.981 714.74 424.095 711.332 429.343 704.608C431.153 701.484 432.957 698.455 435.131 695.567L436.102 692.958Z"/>
	<path fill="#6F4FA9" transform="scale(0.25 0.25)" d="M436.102 692.958Q466.317 709.2 496.022 726.355C497.184 730.038 502.287 731.482 504.902 734.282C514.188 740.937 525.089 746.33 535.115 751.808L575.254 774.013C586.473 780.231 611.248 796.281 621.971 799.314C620.28 802.825 620.572 805.838 621.075 809.622C613.818 806.752 606.766 802.614 599.907 798.877L572.243 783.791L469.936 727.049L443.724 712.312C439.093 709.707 434.286 706.479 429.343 704.608C431.153 701.484 432.957 698.455 435.131 695.567L436.102 692.958Z"/>
	<path fill="#46347E" transform="scale(0.25 0.25)" d="M436.102 692.958Q466.317 709.2 496.022 726.355C497.184 730.038 502.287 731.482 504.902 734.282C497.136 731.781 483.134 723.04 475.368 718.696C461.913 711.169 447.893 704.235 435.131 695.567L436.102 692.958Z"/>
	<path fill="#8A75C8" transform="scale(0.25 0.25)" d="M935.084 561.384C947.95 569.206 961.534 576.409 974.967 583.214C976.771 587.714 974.953 601.68 975.119 607.411C963.797 617.103 949.543 624.296 936.889 632.183Q912.083 647.686 888.086 664.414C879.454 669.13 871.489 674.693 863.303 680.12L837.879 696.659L738.495 761.313L658.883 812.82L636.547 827.442C632.573 830.049 628.306 832.528 624.573 835.461L623.978 833.976C623.981 826.588 623.667 819.059 624.174 811.691C623.239 810.841 622.156 810.269 621.075 809.622C620.572 805.838 620.28 802.825 621.971 799.314C611.248 796.281 586.473 780.231 575.254 774.013L535.115 751.808C525.089 746.33 514.188 740.937 504.902 734.282C502.287 731.482 497.184 730.038 496.022 726.355C507.554 732.309 518.665 739.068 530.023 745.34L552.903 758.197C558.887 761.499 565.046 764.457 570.951 767.908Q586.41 776.923 601.962 785.777C607.879 789.173 613.838 792.981 620.011 795.868C621.366 796.502 622.486 797.078 623.994 796.584C624.046 796.567 624.094 796.539 624.145 796.517C623.8 792.317 623.993 787.98 623.879 783.754C623.965 782.718 624.169 781.695 624.342 780.67C624.243 779.548 624.099 778.44 623.952 777.323L624.832 776.593C636.515 767.833 648.889 759.863 660.99 751.691L728.378 706.416L935.144 565.439L935.084 561.384Z"/>
	<path fill="#692763" transform="scale(0.25 0.25)" d="M939.882 584.326L940.3 583.952C941.449 582.941 942.283 582.293 943.73 581.79L944.349 582.065C944.129 583.876 943.162 584.401 941.755 585.511C929.669 595.05 916.052 603.088 903.226 611.613L841.106 653.56Q758.511 709.509 675.139 764.294C661.327 773.466 647.991 783.398 634.13 792.451C630.853 794.591 625.741 798.303 621.971 799.314C611.248 796.281 586.473 780.231 575.254 774.013L535.115 751.808C525.089 746.33 514.188 740.937 504.902 734.282C502.287 731.482 497.184 730.038 496.022 726.355C507.554 732.309 518.665 739.068 530.023 745.34L552.903 758.197C558.887 761.499 565.046 764.457 570.951 767.908Q586.41 776.923 601.962 785.777C607.879 789.173 613.838 792.981 620.011 795.868C621.366 796.502 622.486 797.078 623.994 796.584C624.046 796.567 624.094 796.539 624.145 796.517C649.725 778.972 675.707 762.092 701.485 744.849L849.101 645.864L905.029 607.965C916.643 600.257 929.399 593.587 939.882 584.326Z"/>
	<path fill="#FECA3D" transform="scale(0.25 0.25)" d="M935.144 565.439L938.513 566.917C940.996 571.885 940.064 578.929 939.882 584.326C929.399 593.587 916.643 600.257 905.029 607.965L849.101 645.864L701.485 744.849C675.707 762.092 649.725 778.972 624.145 796.517C623.8 792.317 623.993 787.98 623.879 783.754C623.965 782.718 624.169 781.695 624.342 780.67C624.243 779.548 624.099 778.44 623.952 777.323L624.832 776.593C636.515 767.833 648.889 759.863 660.99 751.691L728.378 706.416L935.144 565.439Z"/>
	<path fill="#FE9C06" transform="scale(0.25 0.25)" d="M938.049 567.964C938.071 570.01 938.03 570.799 936.594 572.298C934.056 574.947 931.262 576.176 928.324 578.187C921.687 582.731 915.216 587.512 908.562 592.055L849.913 632.207L712.347 725.425L662.74 758.701C649.919 767.253 637.163 775.927 623.879 783.754C623.965 782.718 624.169 781.695 624.342 780.67L828.103 642.775C864.752 617.914 902.023 593.693 938.049 567.964Z"/>
	<path fill="#FEB268" transform="scale(0.25 0.25)" d="M935.144 565.439L938.513 566.917L938.049 567.964C902.023 593.693 864.752 617.914 828.103 642.775L624.342 780.67C624.243 779.548 624.099 778.44 623.952 777.323L624.832 776.593C636.515 767.833 648.889 759.863 660.99 751.691L728.378 706.416L935.144 565.439Z"/>
	<path fill="#6F4FA9" transform="scale(0.25 0.25)" d="M974.967 583.214C976.771 587.714 974.953 601.68 975.119 607.411C963.797 617.103 949.543 624.296 936.889 632.183Q912.083 647.686 888.086 664.414C879.454 669.13 871.489 674.693 863.303 680.12L837.879 696.659L738.495 761.313L658.883 812.82L636.547 827.442C632.573 830.049 628.306 832.528 624.573 835.461L623.978 833.976C623.981 826.588 623.667 819.059 624.174 811.691C626.169 811.867 627.025 811.429 628.67 810.424C641.375 802.666 653.573 793.96 666.02 785.794L747.863 732.08L974.967 583.214Z"/>
	<path fill="#97BEE8" transform="scale(0.25 0.25)" d="M664.67 326.034Q676.108 325.28 687.57 325.335L692.346 325.449C762.367 329.817 832.679 359.761 879.445 412.802C885.189 419.316 890.455 428.285 896.324 433.875C907.309 444.339 922.997 449.662 935.025 458.795C935.009 463.681 935.171 468.657 934.969 473.534L935.084 561.384L935.144 565.439L728.378 706.416L660.99 751.691C648.889 759.863 636.515 767.833 624.832 776.593L623.952 777.323C624.099 778.44 624.243 779.548 624.342 780.67C624.169 781.695 623.965 782.718 623.879 783.754C623.993 787.98 623.8 792.317 624.145 796.517C624.094 796.539 624.046 796.567 623.994 796.584C622.486 797.078 621.366 796.502 620.011 795.868C613.838 792.981 607.879 789.173 601.962 785.777Q586.41 776.923 570.951 767.908C565.046 764.457 558.887 761.499 552.903 758.197L530.023 745.34C518.665 739.068 507.554 732.309 496.022 726.355Q466.317 709.2 436.102 692.958L435.131 695.567C432.957 698.455 431.153 701.484 429.343 704.608C424.095 711.332 419.981 714.74 411.819 717.506Q408.924 717.593 406.037 717.361Q403.15 717.128 400.306 716.578C377.716 712.366 361.504 698.085 348.816 679.619C341.85 676.357 335.222 672.442 328.493 668.725L295.896 650.729C254.468 627.876 213.422 604.319 171.726 581.958C157.828 574.505 142.42 563.443 128.108 557.965C113.006 550.31 98.3627 541.159 83.6342 532.766C83.6684 525.14 82.5455 516.193 83.9248 508.724L114.293 488.232C121.031 483.623 127.64 478.63 134.589 474.355C133.414 457.019 134.323 439.182 134.476 421.792Q134.622 411.704 134.576 401.616C136.732 401.64 138.712 401.651 140.842 401.237C156.191 401.419 171.62 401.751 186.837 403.908C240.037 411.446 291.851 436.569 329.447 475.148C350.976 497.24 372.329 530.869 380.256 560.733C387.261 556.506 392.644 549.699 398.391 544.036C403.961 542.901 413.508 531.555 417.85 527.401L418.598 526.001C423.273 521.208 431.217 515.446 436.761 511.467C440.478 509.895 449.699 499.52 454.347 496.318C455.276 495.441 455.971 494.442 456.733 493.422C463.198 491.05 467.553 483.883 473.042 479.938C477.007 478.726 490.548 464.372 494.168 460.623C502.687 465.877 511.145 471.304 519.891 476.172C524.688 478.316 529.528 480.347 533.528 483.829C534.364 484.225 535.251 484.538 535.926 485.177C537.283 485.927 538.919 487.121 540.49 487.028L541.293 486.568C546.709 483.113 553.137 480.173 559.067 477.691Q563.078 474.949 567.142 472.286C569.647 470.61 572.328 469.241 574.982 467.818C584.04 463.393 592.707 457.78 601.969 453.852L601.059 450.838C600.556 442.325 601.251 435.35 603.734 427.184Q606.911 419.664 610.222 412.202C613.46 406.614 616.791 401.14 620.604 395.922L624.814 390.267C628.68 384.651 632.59 379.127 636.685 373.677C640.986 367.394 644.968 360.849 649.069 354.432L652.018 349.385C656.529 341.787 660.339 333.749 664.67 326.034Z"/>
	<path fill="#DE7136" transform="scale(0.25 0.25)" d="M422.56 679.329C428.632 675.48 433.727 672.923 441.14 674.582C453.797 677.416 483.547 696.316 496.255 703.656L560.37 740.588L597.955 762.071C606.61 766.948 615.822 771.614 623.952 777.323C624.099 778.44 624.243 779.548 624.342 780.67C624.169 781.695 623.965 782.718 623.879 783.754C623.993 787.98 623.8 792.317 624.145 796.517C624.094 796.539 624.046 796.567 623.994 796.584C622.486 797.078 621.366 796.502 620.011 795.868C613.838 792.981 607.879 789.173 601.962 785.777Q586.41 776.923 570.951 767.908C565.046 764.457 558.887 761.499 552.903 758.197L530.023 745.34C518.665 739.068 507.554 732.309 496.022 726.355Q466.317 709.2 436.102 692.958C431.942 690.271 427.774 688.468 423.09 686.887Q422.848 683.106 422.56 679.329Z"/>
	<path fill="#8C111D" transform="scale(0.25 0.25)" d="M352.347 644.839C355.57 639.863 358.67 637.139 364.722 635.945C376.737 633.575 390.683 638.181 400.511 645.011C412.946 653.653 418.771 665.047 422.56 679.329Q422.848 683.106 423.09 686.887C427.774 688.468 431.942 690.271 436.102 692.958L435.131 695.567C432.957 698.455 431.153 701.484 429.343 704.608C424.095 711.332 419.981 714.74 411.819 717.506Q408.924 717.593 406.037 717.361Q403.15 717.128 400.306 716.578C377.716 712.366 361.504 698.085 348.816 679.619C346.726 673.687 345.05 668.021 344.273 661.761C343.982 659.408 344.084 657.037 343.785 654.69L343.655 653.719C345.113 650.618 346.564 649.175 349.393 647.229C350.798 646.697 350.936 646.354 351.852 645.131L352.347 644.839Z"/>
	<path fill="#740B1C" transform="scale(0.25 0.25)" d="M370.796 645.145C380.935 644.643 390.343 647.053 398.844 652.708C410.818 660.674 417.43 675.121 420.239 688.813C416.927 692.259 414.22 693.221 409.577 693.81C399.547 693.65 390.806 691.658 381.996 686.724C372.602 681.464 363.658 672.916 360.796 662.221C359.805 658.522 359.478 654.288 361.579 650.899C363.714 647.457 366.994 645.97 370.796 645.145Z"/>
	<path fill="#46347E" transform="scale(0.25 0.25)" d="M83.9248 508.724L114.293 488.232C121.031 483.623 127.64 478.63 134.589 474.355C135.051 482.154 136.1 495.453 134.268 502.859L134.086 503.618C134.048 503.773 134.004 503.927 133.963 504.082C146.653 513.353 162.223 519.775 176.217 526.862C198.059 537.924 219.593 549.657 241.307 560.972C270.865 576.375 307.836 593.565 332.506 615.807C341.432 623.854 348.839 633.222 352.347 644.839L351.852 645.131C350.936 646.354 350.798 646.697 349.393 647.229C346.564 649.175 345.113 650.618 343.655 653.719L343.785 654.69C344.084 657.037 343.982 659.408 344.273 661.761C345.05 668.021 346.726 673.687 348.816 679.619C341.85 676.357 335.222 672.442 328.493 668.725L295.896 650.729C254.468 627.876 213.422 604.319 171.726 581.958C157.828 574.505 142.42 563.443 128.108 557.965C113.006 550.31 98.3627 541.159 83.6342 532.766C83.6684 525.14 82.5455 516.193 83.9248 508.724Z"/>
	<path fill="#6F4FA9" transform="scale(0.25 0.25)" d="M83.9248 508.724L114.293 488.232C121.031 483.623 127.64 478.63 134.589 474.355C135.051 482.154 136.1 495.453 134.268 502.859L134.086 503.618C134.048 503.773 134.004 503.927 133.963 504.082C131.983 504.701 131.083 505.754 129.877 507.4C129.216 512.743 128.702 517.766 130.748 522.914C132.685 524.438 134.584 525.959 136.67 527.277C149.323 534.968 163.195 540.866 176.202 548.022L293.875 612.402Q311.178 621.648 328.344 631.145C336.435 635.583 344.371 639.67 351.852 645.131C350.936 646.354 350.798 646.697 349.393 647.229C346.564 649.175 345.113 650.618 343.655 653.719C340.27 652.056 337.046 649.862 333.75 648.011L311.814 635.917L242.16 596.887L146.236 543.323C125.493 531.837 104.337 520.775 83.9248 508.724Z"/>
	<path fill="#46347E" transform="scale(0.25 0.25)" d="M129.877 507.4C129.216 512.743 128.702 517.766 130.748 522.914C132.685 524.438 134.584 525.959 136.67 527.277L135.645 527.879C129.058 525.207 123.155 520.323 118.396 515.142C121.787 512.231 125.834 509.288 129.877 507.4Z"/>
	<path fill="#692763" transform="scale(0.25 0.25)" d="M136.67 527.277C149.323 534.968 163.195 540.866 176.202 548.022L293.875 612.402Q311.178 621.648 328.344 631.145C336.435 635.583 344.371 639.67 351.852 645.131C350.936 646.354 350.798 646.697 349.393 647.229C338.006 639.685 325.353 633.71 313.428 627.072Q283.675 610.13 253.662 593.653C248.388 590.818 242.911 588.365 237.634 585.555C233.269 583.231 229.316 580.148 224.965 577.794C209.992 569.69 194.838 561.987 180 553.616C165.121 545.223 150.553 536.165 135.645 527.879L136.67 527.277Z"/>
	<path fill="#DE7136" transform="scale(0.25 0.25)" d="M129.877 507.4C131.083 505.754 131.983 504.701 133.963 504.082C146.653 513.353 162.223 519.775 176.217 526.862C198.059 537.924 219.593 549.657 241.307 560.972C270.865 576.375 307.836 593.565 332.506 615.807C341.432 623.854 348.839 633.222 352.347 644.839L351.852 645.131C344.371 639.67 336.435 635.583 328.344 631.145Q311.177 621.649 293.875 612.402L176.202 548.022C163.195 540.866 149.323 534.968 136.67 527.277C134.584 525.959 132.685 524.438 130.748 522.914C128.702 517.766 129.216 512.743 129.877 507.4Z"/>
	<path fill="#46347E" transform="scale(0.25 0.25)" d="M134.576 401.616C136.732 401.64 138.712 401.651 140.842 401.237C156.191 401.419 171.62 401.751 186.837 403.908C240.037 411.446 291.851 436.569 329.447 475.148C350.976 497.24 372.329 530.869 380.256 560.733C387.261 556.506 392.644 549.699 398.391 544.036C403.961 542.901 413.508 531.555 417.85 527.401L418.598 526.001C423.273 521.208 431.217 515.446 436.761 511.467C440.478 509.895 449.699 499.52 454.347 496.318C455.276 495.441 455.971 494.442 456.733 493.422C463.198 491.05 467.553 483.883 473.042 479.938C477.007 478.726 490.548 464.372 494.168 460.623C502.687 465.877 511.145 471.304 519.891 476.172C524.688 478.316 529.528 480.347 533.528 483.829C531.316 486.359 504.062 498.721 496.951 504.692C493.543 506.654 490.204 508.647 486.394 509.737C496.876 514.676 526.743 535.352 535.139 536.946C535.808 538.114 536.523 539.265 537.04 540.51C536.775 550.026 537.263 559.624 537.426 569.144Q537.578 586.849 537.478 604.554L544.697 600.829C546.451 601.165 547.014 601.12 548.348 602.369L548.613 602.516L548.973 602.78C555.745 607.676 563.277 611.544 570.128 616.388C584.551 626.585 598.047 638.352 611.115 650.214C616.973 655.53 623.028 660.755 628.433 666.534L627.731 678.749C615.533 672.359 604.844 661.65 593.753 653.447C551.3 622.051 502.498 590.149 447.075 596.231C427.819 598.343 407.923 604.762 393.759 618.519C390.414 621.767 387.558 625.587 384.654 629.228C383.877 622.028 383.072 614.827 381.436 607.762C377.213 589.533 368.855 572.577 359.298 556.601Q356.995 552.708 354.575 548.887Q352.155 545.066 349.62 541.321Q347.085 537.575 344.437 533.908Q341.789 530.241 339.031 526.656Q336.274 523.072 333.408 519.572Q330.543 516.073 327.572 512.662Q324.602 509.252 321.529 505.933Q318.456 502.614 315.284 499.39Q312.112 496.166 308.844 493.039Q305.575 489.913 302.213 486.888Q298.851 483.862 295.399 480.94Q291.947 478.018 288.407 475.203Q284.868 472.387 281.244 469.68Q277.621 466.973 273.917 464.377Q270.213 461.782 266.432 459.3Q262.651 456.818 258.796 454.452C223.565 432.698 176.458 411.861 134.476 421.792Q134.622 411.704 134.576 401.616Z"/>
	<path fill="#E32D15" transform="scale(0.25 0.25)" d="M486.019 546.77C485.363 537.731 484.121 517.659 486.394 509.737C496.876 514.676 526.743 535.352 535.139 536.946C535.808 538.114 536.523 539.265 537.04 540.51C536.775 550.026 537.263 559.624 537.426 569.144Q537.578 586.849 537.478 604.554L544.697 600.829C546.451 601.165 547.014 601.12 548.348 602.369C544.298 605.188 539.737 607.195 535.829 610.21C518.441 601.489 501.724 592.241 485.472 581.519C485.407 569.967 486.018 558.35 486.019 546.77Z"/>
	<path fill="#DCDBDC" transform="scale(0.25 0.25)" d="M494.168 460.623C502.687 465.877 511.145 471.304 519.891 476.172C524.688 478.316 529.528 480.347 533.528 483.829C531.316 486.359 504.062 498.721 496.951 504.692C493.543 506.654 490.204 508.647 486.394 509.737C484.121 517.659 485.363 537.731 486.019 546.77C460.167 550.528 430.908 559.798 409.984 575.702C404.85 579.604 401.703 585.665 396.57 589.503C391.192 599.01 388.872 610.363 386.044 620.834C387.557 599.813 385.912 581.013 380.256 560.733C387.261 556.506 392.644 549.699 398.391 544.036C403.961 542.901 413.508 531.555 417.85 527.401L418.598 526.001C423.273 521.208 431.217 515.446 436.761 511.467C440.478 509.895 449.699 499.52 454.347 496.318C455.276 495.441 455.971 494.442 456.733 493.422C463.198 491.05 467.553 483.883 473.042 479.938C477.007 478.726 490.548 464.372 494.168 460.623Z"/>
	<path fill="#8A75C8" transform="scale(0.25 0.25)" d="M519.891 476.172C524.688 478.316 529.528 480.347 533.528 483.829C531.316 486.359 504.062 498.721 496.951 504.692C493.543 506.654 490.204 508.647 486.394 509.737C484.121 517.659 485.363 537.731 486.019 546.77C460.167 550.528 430.908 559.798 409.984 575.702C404.85 579.604 401.703 585.665 396.57 589.503C402.888 563.553 458.967 515.614 480.382 500.631C486.278 496.506 492.333 492.44 498.555 488.817C505.712 484.65 513.072 480.893 519.891 476.172Z"/>
	<path fill="#FEFEFE" transform="scale(0.25 0.25)" d="M626.554 679.27C630.384 678.597 633.146 677.083 636.437 675.081C648.115 667.975 659.088 659.806 670.306 652.02L713.874 622.267C772.807 581.859 831.457 540.758 891.306 501.732L919.872 482.724C924.516 479.667 929.811 475.571 934.969 473.534L935.084 561.384L935.144 565.439L728.378 706.416L660.99 751.691C648.889 759.863 636.515 767.833 624.832 776.593C628.636 744.296 625.645 711.673 626.554 679.27Z"/>
	<path fill="#FEFEFE" transform="scale(0.25 0.25)" d="M664.67 326.034Q676.108 325.28 687.57 325.335L692.346 325.449C762.367 329.817 832.679 359.761 879.445 412.802C885.189 419.316 890.455 428.285 896.324 433.875C907.309 444.339 922.997 449.662 935.025 458.795C934.611 459.627 934.274 460.118 933.532 460.707C923.813 468.43 911.112 476.041 900.682 483.117C881.294 496.271 862.048 509.75 842.294 522.346C818.719 537.378 795.94 553.713 772.931 569.594L685.141 629.409C672.865 637.734 660.791 646.347 648.433 654.551C642.136 658.731 635.433 663.616 628.433 666.534C623.028 660.755 616.973 655.53 611.115 650.214C598.047 638.352 584.551 626.585 570.128 616.388C563.277 611.544 555.745 607.676 548.973 602.78L548.613 602.516L548.348 602.369C547.014 601.12 546.451 601.165 544.697 600.829L537.478 604.554Q537.578 586.849 537.426 569.144C537.263 559.624 536.775 550.026 537.04 540.51C536.523 539.265 535.808 538.114 535.139 536.946C526.743 535.352 496.876 514.676 486.394 509.737C490.204 508.647 493.543 506.654 496.951 504.692C504.062 498.721 531.316 486.359 533.528 483.829C534.364 484.225 535.251 484.538 535.926 485.177C537.283 485.927 538.919 487.121 540.49 487.028L541.293 486.568C546.709 483.113 553.137 480.173 559.067 477.691Q563.078 474.949 567.142 472.286C569.647 470.61 572.328 469.241 574.982 467.818C584.04 463.393 592.707 457.78 601.969 453.852L601.059 450.838C600.556 442.325 601.251 435.35 603.734 427.184Q606.911 419.664 610.222 412.202C613.46 406.614 616.791 401.14 620.604 395.922L624.814 390.267C628.68 384.651 632.59 379.127 636.685 373.677C640.986 367.394 644.968 360.849 649.069 354.432L652.018 349.385C656.529 341.787 660.339 333.749 664.67 326.034Z"/>
	<path fill="#DCDBDC" transform="scale(0.25 0.25)" d="M603.024 488.759C605.837 490.167 608.87 491.469 611.531 493.135C606.838 493.215 595.005 491.499 591.508 493.702C589.493 493.09 587.499 492.061 585.559 491.229C590.248 488.793 597.771 489.092 603.024 488.759Z"/>
	<path fill="#F5E6E4" transform="scale(0.25 0.25)" d="M660.343 412.753L668.978 413.687C666.981 419.206 664.142 424.522 660.431 429.086C658.052 428.379 655.369 428.207 652.908 427.855C655.499 422.885 657.407 417.543 660.343 412.753Z"/>
	<path fill="#F5E6E4" transform="scale(0.25 0.25)" d="M634.321 454.543C637.909 454.672 641.536 455.482 645.074 456.096C643.427 461.739 641.209 467.534 637.423 472.114C634.476 471.119 631.219 470.574 628.172 469.92C629.547 464.229 631.019 459.432 634.321 454.543Z"/>
	<path fill="#F8677E" transform="scale(0.25 0.25)" d="M604.594 570.865L606.482 570.675C625.534 584.646 643.161 597.918 656.479 617.808L649.656 622.007C646.763 619.273 644.256 615.669 641.695 612.598C637.23 607.243 632.244 601.925 626.988 597.347C622.035 593.034 616.767 588.852 611.378 585.093C607.587 582.448 603.296 580.012 599.787 577.02C599.011 576.358 598.658 575.715 598.258 574.797L604.594 570.865Z"/>
	<path fill="#F8677E" transform="scale(0.25 0.25)" d="M607.186 520.718C607.109 517.485 607.648 513.779 608.288 510.601C608.535 510.89 608.697 511.283 609.029 511.468C611.706 512.965 616.428 513.626 619.462 514.62C623.383 515.905 627.219 517.567 630.989 519.244C660.442 532.352 690.531 556.07 707.438 583.815L700.668 588.224C699.201 584.318 695.461 579.942 692.833 576.677C675.484 555.126 654.641 540.022 629.699 528.426C622.752 525.197 614.87 521.541 607.186 520.718Z"/>
	<path fill="#FE8886" transform="scale(0.25 0.25)" d="M579.082 585.027C585.408 581.503 591.908 578.285 598.258 574.797C598.658 575.715 599.011 576.358 599.787 577.02C603.296 580.012 607.587 582.448 611.378 585.093C616.767 588.852 622.035 593.034 626.988 597.347C632.244 601.925 637.23 607.243 641.695 612.598C644.256 615.669 646.763 619.273 649.656 622.007C646.758 624.024 643.801 625.906 640.795 627.757C621.9 611.831 601.87 595.51 579.113 585.381L579.082 585.027Z"/>
	<path fill="#FE8886" transform="scale(0.25 0.25)" d="M607.186 520.718C614.87 521.541 622.752 525.197 629.699 528.426C654.641 540.022 675.484 555.126 692.833 576.677C695.461 579.942 699.201 584.318 700.668 588.224C692.579 594.236 683.666 599.487 675.336 605.207C672.121 602.471 669.457 598.947 666.616 595.824C663.003 591.852 659.167 588.054 655.345 584.282C641.409 570.53 625.158 558.647 608.497 548.424C608.352 555.098 609.269 562.029 608.177 568.633C608.194 567.774 608.157 567.057 607.984 566.209C606.596 559.417 607.939 552.185 607.967 545.275C608.002 537.094 607.54 528.891 607.186 520.718Z"/>
	<defs>
		<linearGradient id="gradient_0" gradientUnits="userSpaceOnUse" x1="609.29535" y1="542.73047" x2="700.86102" y2="490.56522">
			<stop offset="0" stop-color="#F25784"/>
			<stop offset="1" stop-color="#FF9985"/>
		</linearGradient>
	</defs>
	<path fill="url(#gradient_0)" transform="scale(0.25 0.25)" d="M601.969 453.852C611.714 451.159 623.406 453.848 633.444 454.164L634.321 454.543C631.019 459.432 629.547 464.229 628.172 469.92C631.219 470.574 634.476 471.119 637.423 472.114C672.245 480.949 709.466 504.654 733.014 531.731C739.177 538.818 744.12 547.026 749.595 554.654C747.093 556.794 744.29 558.554 741.56 560.385C735.069 565.302 728.122 569.694 721.52 574.486C700.683 544.83 674.096 519.844 640.979 504.391C631.453 499.946 621.469 496.523 611.531 493.135C608.87 491.469 605.837 490.167 603.024 488.759C597.771 489.092 590.248 488.793 585.559 491.229C576.551 487 567.805 482.455 559.067 477.691Q563.078 474.949 567.142 472.286C569.647 470.61 572.328 469.241 574.982 467.818C584.04 463.393 592.707 457.78 601.969 453.852Z"/>
	<path fill="#FEFEFE" transform="scale(0.25 0.25)" d="M567.142 472.286C579.284 477.656 591.136 482.772 603.024 488.759C597.771 489.092 590.248 488.793 585.559 491.229C576.551 487 567.805 482.455 559.067 477.691Q563.078 474.949 567.142 472.286Z"/>
	<path fill="#DCDBDC" transform="scale(0.25 0.25)" d="M601.969 453.852C611.714 451.159 623.406 453.848 633.444 454.164L634.321 454.543C631.019 459.432 629.547 464.229 628.172 469.92L627.04 470.026C609.818 466.278 592.279 469.115 574.982 467.818C584.04 463.393 592.707 457.78 601.969 453.852Z"/>
	<path fill="#F8677E" transform="scale(0.25 0.25)" d="M628.172 469.92C631.219 470.574 634.476 471.119 637.423 472.114C672.245 480.949 709.466 504.654 733.014 531.731C739.177 538.818 744.12 547.026 749.595 554.654C747.093 556.794 744.29 558.554 741.56 560.385C738.711 557.422 736.191 550.885 733.852 547.165C726.71 535.803 717.507 526.122 707.273 517.508C688.822 501.978 666.251 490.238 643.234 483.262C639.195 482.038 634.56 480.338 630.34 480.2C628.615 480.144 627.878 481.625 626.165 481.774C622.519 478.755 618.882 479.6 618.257 478.992C619.605 479.018 620.969 479.14 622.285 478.797C621.2 478.254 619.798 478.22 618.598 478.046C621.102 477.78 623.415 478.261 625.866 478.696C626.435 475.804 626.762 472.957 627.04 470.026L628.172 469.92Z"/>
	<path fill="#FE8886" transform="scale(0.25 0.25)" d="M603.734 427.184C612.388 427.464 621.054 426.548 629.71 426.587C637.436 426.622 645.189 427.5 652.908 427.855C655.369 428.207 658.052 428.379 660.431 429.086C714.197 438.705 762.61 471.374 793.666 516.034Q795.887 519.204 797.95 522.479L791.732 526.397C782.97 533.006 773.207 538.703 764.05 544.805L762.826 542.668C744.416 510.717 715.793 487.854 683.288 471.309C670.807 464.955 658.638 459.749 645.074 456.096C641.536 455.482 637.909 454.672 634.321 454.543L633.444 454.164C623.406 453.848 611.714 451.159 601.969 453.852L601.059 450.838C600.556 442.325 601.251 435.35 603.734 427.184Z"/>
	<path fill="#F8677E" transform="scale(0.25 0.25)" d="M603.734 427.184C612.388 427.464 621.054 426.548 629.71 426.587C637.436 426.622 645.189 427.5 652.908 427.855C655.369 428.207 658.052 428.379 660.431 429.086C714.197 438.705 762.61 471.374 793.666 516.034Q795.887 519.204 797.95 522.479L791.732 526.397C786.325 519.634 781.583 512.42 775.997 505.761C748.288 472.731 705.062 445.036 662.306 437.408C655.815 436.25 649.348 436.93 642.807 436.361C640.599 440.227 638.419 444.156 636.649 448.245C636.108 449.494 635.322 452.543 634.499 453.476C634.222 453.791 633.796 453.934 633.444 454.164C623.406 453.848 611.714 451.159 601.969 453.852L601.059 450.838C600.556 442.325 601.251 435.35 603.734 427.184Z"/>
	<path fill="#FE9C06" transform="scale(0.25 0.25)" d="M559.067 477.691C567.805 482.455 576.551 487 585.559 491.229C587.499 492.061 589.493 493.09 591.508 493.702C596.103 495.654 600.836 497.468 605.186 499.928C606.974 501.119 607.946 501.991 608.477 504.133C608.937 505.992 608.443 508.681 608.288 510.601C607.648 513.779 607.109 517.485 607.186 520.718C607.54 528.891 608.002 537.094 607.967 545.275C607.939 552.185 606.596 559.417 607.984 566.209C608.157 567.057 608.194 567.774 608.177 568.633C607.631 569.375 607.155 570.04 606.482 570.675L604.594 570.865L598.258 574.797C591.908 578.285 585.408 581.503 579.082 585.027L579.113 585.381L558.533 596.772C555.353 598.539 551.457 600.272 548.613 602.516L548.348 602.369C547.014 601.12 546.451 601.165 544.697 600.829L537.478 604.554Q537.578 586.849 537.426 569.144C537.263 559.624 536.775 550.026 537.04 540.51C536.523 539.265 535.808 538.114 535.139 536.946C526.743 535.352 496.876 514.676 486.394 509.737C490.204 508.647 493.543 506.654 496.951 504.692C504.062 498.721 531.316 486.359 533.528 483.829C534.364 484.225 535.251 484.538 535.926 485.177C537.283 485.927 538.919 487.121 540.49 487.028L541.293 486.568C546.709 483.113 553.137 480.173 559.067 477.691Z"/>
	<path fill="#E32D15" transform="scale(0.25 0.25)" d="M597.909 571.721C600.429 571.349 602.1 569.724 604.594 570.865L598.258 574.797C591.908 578.285 585.408 581.503 579.082 585.027C579.015 584.307 578.908 584.386 579.517 583.681C579.669 583.505 579.888 583.401 580.073 583.26C579.764 583.318 578.451 583.583 578.17 583.557C577.842 583.527 577.544 583.353 577.23 583.25Q587.6 577.54 597.909 571.721Z"/>
	<path fill="#DE7136" transform="scale(0.25 0.25)" d="M577.23 583.25C577.544 583.353 577.842 583.527 578.17 583.557C578.451 583.583 579.764 583.318 580.073 583.26C579.888 583.401 579.669 583.505 579.517 583.681C578.908 584.386 579.015 584.307 579.082 585.027L579.113 585.381L558.533 596.772C555.353 598.539 551.457 600.272 548.613 602.516L548.348 602.369C547.014 601.12 546.451 601.165 544.697 600.829C554.425 593.847 566.337 588.248 577.23 583.25Z"/>
	<path fill="#DE7136" transform="scale(0.25 0.25)" d="M605.186 499.928C606.974 501.119 607.946 501.991 608.477 504.133C608.937 505.992 608.443 508.681 608.288 510.601C607.648 513.779 607.109 517.485 607.186 520.718C607.54 528.891 608.002 537.094 607.967 545.275C607.939 552.185 606.596 559.417 607.984 566.209C608.157 567.057 608.194 567.774 608.177 568.633C607.631 569.375 607.155 570.04 606.482 570.675L604.594 570.865C602.1 569.724 600.429 571.349 597.909 571.721C600.022 569.877 602.751 568.345 605.095 566.776C605.696 559.261 605.091 551.594 605.058 544.052C605.003 531.586 606.475 517.561 603.643 505.396L603.739 504.256C603.884 502.663 604.541 501.366 605.186 499.928Z"/>
	<path fill="#FE9C06" transform="scale(0.25 0.25)" d="M559.067 477.691C567.805 482.455 576.551 487 585.559 491.229C587.499 492.061 589.493 493.09 591.508 493.702C596.103 495.654 600.836 497.468 605.186 499.928C604.541 501.366 603.884 502.663 603.739 504.256L603.643 505.396C596.028 510.684 587.156 514.329 578.948 518.607C564.961 525.895 551.129 533.409 537.04 540.51C536.523 539.265 535.808 538.114 535.139 536.946C526.743 535.352 496.876 514.676 486.394 509.737C490.204 508.647 493.543 506.654 496.951 504.692C504.062 498.721 531.316 486.359 533.528 483.829C534.364 484.225 535.251 484.538 535.926 485.177C537.283 485.927 538.919 487.121 540.49 487.028L541.293 486.568C546.709 483.113 553.137 480.173 559.067 477.691Z"/>
	<path fill="#DE7136" transform="scale(0.25 0.25)" d="M533.528 483.829C534.364 484.225 535.251 484.538 535.926 485.177C527.398 491.064 506.564 504.344 496.951 504.692C504.062 498.721 531.316 486.359 533.528 483.829Z"/>
	<path fill="#FEFEFE" transform="scale(0.25 0.25)" d="M598.278 501.403C600.128 502.281 601.928 503.299 603.739 504.256L603.643 505.396C596.028 510.684 587.156 514.329 578.948 518.607C564.961 525.895 551.129 533.409 537.04 540.51C536.523 539.265 535.808 538.114 535.139 536.946C540.131 529.906 587.515 506.731 598.278 501.403Z"/>
	<path fill="#FE8886" transform="scale(0.25 0.25)" d="M664.67 326.034Q676.108 325.28 687.57 325.335L692.346 325.449C691.318 332.974 688.916 341.125 688.956 348.654Q691.839 348.949 694.716 349.305Q697.592 349.661 700.46 350.077Q703.329 350.494 706.187 350.97Q709.046 351.447 711.894 351.984Q714.743 352.52 717.579 353.117Q720.415 353.713 723.238 354.369Q726.061 355.025 728.87 355.74Q731.679 356.456 734.472 357.23Q737.265 358.004 740.041 358.837Q742.817 359.669 745.575 360.56Q748.333 361.451 751.071 362.4Q753.81 363.349 756.528 364.355Q759.246 365.362 761.942 366.425Q764.639 367.488 767.312 368.608Q769.985 369.727 772.634 370.903Q775.283 372.079 777.907 373.31Q780.531 374.541 783.128 375.827Q785.726 377.113 788.295 378.454Q790.865 379.794 793.406 381.188Q795.947 382.583 798.458 384.03Q800.969 385.477 803.449 386.977Q805.929 388.477 808.377 390.029Q810.825 391.581 813.24 393.184Q815.654 394.787 818.035 396.44Q820.415 398.093 822.76 399.796Q825.106 401.499 827.414 403.251Q829.723 405.004 831.995 406.804Q834.266 408.604 836.499 410.452Q838.732 412.299 840.926 414.194Q843.12 416.088 845.273 418.028Q847.426 419.968 849.538 421.952Q851.65 423.937 853.72 425.966C862.375 434.453 870.334 443.873 877.978 453.266Q881.551 457.671 885.052 462.134C874.348 468.649 864.523 476.585 853.771 482.973C814.772 425.863 762.203 388.066 693.706 375.199C688.557 374.232 683.455 373.584 678.224 373.301L678.057 373.202C674.588 372.863 671.103 373.214 667.63 372.732C657.2 372.333 647.064 372.254 636.685 373.677C640.986 367.394 644.968 360.849 649.069 354.432L652.018 349.385C656.529 341.787 660.339 333.749 664.67 326.034Z"/>
	<path fill="#F8677E" transform="scale(0.25 0.25)" d="M674.349 354.534C676.993 354.111 680.331 355.136 682.646 354.291C683.066 353.692 683.39 353.449 683.436 352.705C683.506 351.593 683.477 351.038 684.027 350.033C684.868 351.049 684.732 352.472 684.616 353.752C684.152 358.878 683.301 368.373 680.569 372.66C679.687 373.113 679.04 373.156 678.057 373.202C674.588 372.863 671.103 373.214 667.63 372.732L668.588 372.57C669.778 371.117 669.838 368.395 670.093 366.518C670.684 362.168 672.947 358.628 674.349 354.534Z"/>
	<path fill="#D76090" transform="scale(0.25 0.25)" d="M652.018 349.385Q661.354 348.774 670.705 348.476C670.303 350.595 669.39 352.654 669.123 354.756L674.349 354.534C672.947 358.628 670.684 362.168 670.093 366.518C669.838 368.395 669.778 371.117 668.588 372.57L667.63 372.732C657.2 372.333 647.064 372.254 636.685 373.677C640.986 367.394 644.968 360.849 649.069 354.432L652.018 349.385Z"/>
	<path fill="#C45391" transform="scale(0.25 0.25)" d="M652.018 349.385Q661.354 348.774 670.705 348.476C670.303 350.595 669.39 352.654 669.123 354.756C665.604 355.628 652.419 355.576 649.069 354.432L652.018 349.385Z"/>
	<path fill="#DCDBDC" transform="scale(0.25 0.25)" d="M664.67 326.034Q676.108 325.28 687.57 325.335L692.346 325.449C691.318 332.974 688.916 341.125 688.956 348.654L684.068 348.479L670.705 348.476Q661.354 348.774 652.018 349.385C656.529 341.787 660.339 333.749 664.67 326.034Z"/>
	<path fill="#F5E6E4" transform="scale(0.25 0.25)" d="M687.57 325.335L692.346 325.449C691.318 332.974 688.916 341.125 688.956 348.654L684.068 348.479C686.074 341.45 685.72 329.794 687.57 325.335Z"/>
	<defs>
		<linearGradient id="gradient_1" gradientUnits="userSpaceOnUse" x1="755.29266" y1="415.83841" x2="692.09863" y2="484.14304">
			<stop offset="0" stop-color="#FF9488"/>
			<stop offset="1" stop-color="#E1678E"/>
		</linearGradient>
	</defs>
	<path fill="url(#gradient_1)" transform="scale(0.25 0.25)" d="M636.685 373.677C647.064 372.254 657.2 372.333 667.63 372.732C671.103 373.214 674.588 372.863 678.057 373.202L678.224 373.301C677.374 378.373 675.925 382.881 675.898 388.102C740.971 400.964 796.449 428.819 834.156 485.153Q836.962 489.327 839.62 493.597L833.869 497.457C826.838 503.132 818.835 507.421 811.762 512.986C775.769 461.327 731.553 426.322 668.978 413.687L660.343 412.753C657.407 417.543 655.499 422.885 652.908 427.855C645.189 427.5 637.436 426.622 629.71 426.587C621.054 426.548 612.388 427.464 603.734 427.184Q606.911 419.664 610.222 412.202C613.46 406.614 616.791 401.14 620.604 395.922L624.814 390.267C628.68 384.651 632.59 379.127 636.685 373.677Z"/>
	<path fill="#DCDBDC" transform="scale(0.25 0.25)" d="M610.222 412.202C618.637 410.316 652.312 410.076 660.343 412.753C657.407 417.543 655.499 422.885 652.908 427.855C645.189 427.5 637.436 426.622 629.71 426.587C621.054 426.548 612.388 427.464 603.734 427.184Q606.911 419.664 610.222 412.202Z"/>
	<path fill="#DCDBDC" transform="scale(0.25 0.25)" d="M636.685 373.677C647.064 372.254 657.2 372.333 667.63 372.732C671.103 373.214 674.588 372.863 678.057 373.202L678.224 373.301C677.374 378.373 675.925 382.881 675.898 388.102L675.405 388.121C675.496 390.05 675.732 391.74 674.906 393.529C672.813 395.43 669.025 394.416 666.38 395.046C657.47 396.548 647.509 395.012 638.423 395.195C632.605 395.312 626.367 396.441 620.604 395.922L624.814 390.267C628.68 384.651 632.59 379.127 636.685 373.677Z"/>
	<path fill="#D76090" transform="scale(0.25 0.25)" d="M624.814 390.267C637.438 385.902 661.563 387.269 675.405 388.121C675.496 390.05 675.732 391.74 674.906 393.529C672.813 395.43 669.025 394.416 666.38 395.046C657.47 396.548 647.509 395.012 638.423 395.195C632.605 395.312 626.367 396.441 620.604 395.922L624.814 390.267Z"/>
	<path fill="#F8677E" transform="scale(0.25 0.25)" d="M675.898 388.102C740.971 400.964 796.449 428.819 834.156 485.153Q836.962 489.327 839.62 493.597L833.869 497.457C826.904 487.865 820.523 478.225 812.673 469.259C783.077 435.458 743.432 413.541 700.668 401.033C694.13 399.12 687.381 397.191 680.625 396.285C676.442 395.724 671.173 396.698 667.266 395.376C666.967 395.275 666.675 395.156 666.38 395.046C669.025 394.416 672.813 395.43 674.906 393.529C675.732 391.74 675.496 390.05 675.405 388.121L675.898 388.102Z"/>
</svg>
