<?xml version="1.0" encoding="utf-8" ?>
<svg xmlns="http://www.w3.org/2000/svg" xmlns:xlink="http://www.w3.org/1999/xlink" width="256" height="256">
	<path fill="#A40D51" transform="scale(0.25 0.25)" d="M739.643 614.738C739.812 614.99 739.991 615.236 740.15 615.495C741.38 617.509 741.094 620.756 741.662 623.062C742.836 627.832 744.282 632.375 744.727 637.3C745.662 647.653 742.975 656.106 752.594 663.332Q753.918 664.307 755.322 665.163Q756.726 666.019 758.199 666.75Q759.673 667.48 761.204 668.078Q762.736 668.677 764.314 669.14C775.86 672.574 782.069 669.447 793.292 667.616C791.738 669.834 790.07 671.871 788.162 673.794C782.616 679.386 775.017 682.941 767.07 682.864C759.675 682.793 752.605 679.514 747.407 674.328C740.253 667.19 739.03 658.752 738.997 649.2C736.708 647.729 734.215 646.099 732.37 644.077C729.455 640.882 727.902 637.032 728.268 632.683C728.912 625.039 733.968 619.338 739.643 614.738Z"/>
	<path fill="#A40D51" transform="scale(0.25 0.25)" d="M752.724 508.53C768.063 533.176 778.592 560.648 781.066 589.701C781.615 596.148 782.107 603.517 780.863 609.912C780.767 610.405 780.72 610.495 780.568 610.908C773.601 606.838 765.356 606.93 757.519 607.066C757.502 584.529 755.471 559.454 745.567 538.976C745.652 537.617 752.006 510.617 752.724 508.53Z"/>
	<path fill="#C11B62" transform="scale(0.25 0.25)" d="M757.519 607.066C765.356 606.93 773.601 606.838 780.568 610.908C791.121 620.626 798.14 630.046 798.758 644.946C799.097 653.124 797.488 660.554 793.292 667.616C782.069 669.447 775.86 672.574 764.314 669.14Q762.736 668.677 761.204 668.078Q759.673 667.48 758.199 666.75Q756.726 666.019 755.322 665.163Q753.918 664.307 752.594 663.332C742.975 656.106 745.662 647.653 744.727 637.3C744.282 632.375 742.836 627.832 741.662 623.062C741.094 620.756 741.38 617.509 740.15 615.495C739.991 615.236 739.812 614.99 739.643 614.738C744.88 611.25 751.519 608.861 757.519 607.066Z"/>
	<path fill="#7C2D88" transform="scale(0.25 0.25)" d="M436.73 736.898C438.626 735.973 465.269 735.837 467.622 736.763C467.759 736.816 467.882 736.9 468.012 736.969L468.228 737.907L467.011 832.168C466.836 843.72 467.723 855.433 465.791 866.857C460.332 862.622 453.638 858.345 449.015 853.248C449.244 846.745 448.09 839.968 447.262 833.519Q441.409 785.272 436.73 736.898Z"/>
	<path fill="#7C2D88" transform="scale(0.25 0.25)" d="M555.499 736.4Q571.928 736.506 588.356 736.425L581.071 799.725C579.832 810.513 579.01 821.71 577.05 832.38C575.975 836.618 572.88 850.25 574.501 853.84C569.194 858.108 563.444 862.947 557.766 866.655C555.468 859.344 557.369 841.111 556.793 832.15L556.097 774.845C556.025 762.051 556.344 749.168 555.499 736.4Z"/>
	<defs>
		<linearGradient id="gradient_0" gradientUnits="userSpaceOnUse" x1="304.13016" y1="679.91675" x2="296.79849" y2="775.02301">
			<stop offset="0" stop-color="#5F0229"/>
			<stop offset="1" stop-color="#76004D"/>
		</linearGradient>
	</defs>
	<path fill="url(#gradient_0)" transform="scale(0.25 0.25)" d="M384.522 678.641L386.061 677.546C397.327 687.362 402.457 706.448 403.412 720.849Q403.522 722.564 403.552 724.282C403.953 723.771 404.312 723.299 404.648 722.746C409.124 715.377 406.806 703.93 404.001 696.289C402.783 692.969 401.072 689.836 400.189 686.402L400.66 686.037L400.713 686.479L400.159 686.777L400.221 687.029L401.874 686.39C404.067 687.534 406.097 688.753 408.155 690.12C412.381 705.252 413.959 720.183 405.9 734.46C404.249 737.385 402.119 741.203 399.233 742.984C390.568 748.329 366.455 755.198 355.4 758.938C339.497 764.319 323.363 770.647 307.176 775.039C303.491 776.039 300.256 776.515 296.44 776.059C284.36 774.616 272.397 770.538 260.561 767.733C245.012 764.047 205.167 756.868 193.758 750.432C191.853 749.358 190.641 748.316 189.494 746.46C189.348 745.188 189.159 744.503 189.958 743.375C190.964 741.955 192.948 741.166 194.457 740.433C195.965 740.022 197.613 739.83 199.157 739.555C200.463 737.416 201.51 735.084 202.628 732.84L204.671 728.053C205.096 726.437 205.454 724.801 205.836 723.175L206.265 718.519L206.092 713.256L205.165 709.855C203 703.913 201.234 697.816 199.25 691.811C205.767 691.358 219.645 695.026 226.656 696.415C247.923 700.63 269.555 705.816 291.113 708.15C300.714 703.968 311.492 701.627 321.52 698.608C342.487 692.294 363.944 686.094 384.522 678.641Z"/>
	<path fill="#CD363A" transform="scale(0.25 0.25)" d="M384.522 678.641L386.061 677.546C397.327 687.362 402.457 706.448 403.412 720.849Q403.522 722.564 403.552 724.282C402.158 729.893 399.972 736.771 394.644 739.841C388.823 743.195 381.103 744.914 374.713 746.969L348.022 755.806C333.007 760.824 317.996 767.359 302.599 770.949C299.773 771.608 297.468 771.808 294.649 770.97C293.166 770.529 291.731 769.875 290.319 769.249C293.17 768.052 297.236 768.776 299.762 767.039C301.307 765.976 301.16 765.07 301.518 763.349C301.701 764.418 301.758 765.43 302.33 766.366C321.845 760.82 340.768 753.99 360.009 747.605C369.442 744.474 387.131 740.401 394.924 735.046C395.913 733.348 396.656 731.646 397.37 729.816C400.372 705.909 398.386 698.097 384.522 678.641Z"/>
	<path fill="#EE6566" transform="scale(0.25 0.25)" d="M199.157 739.555C207.979 742.016 217.163 743.253 226.115 745.165C238.782 747.87 251.371 750.988 264.007 753.839C276.503 756.658 289.249 759.213 301.558 762.768L301.518 763.349C301.16 765.07 301.307 765.976 299.762 767.039C297.236 768.776 293.17 768.052 290.319 769.249C272.603 763.962 206.595 752.879 194.861 744.45C194.006 743.183 194.327 741.872 194.457 740.433C195.965 740.022 197.613 739.83 199.157 739.555Z"/>
	<path fill="#E9673A" transform="scale(0.25 0.25)" d="M306.385 755.009C311.671 754.741 318.687 749.382 323.58 747.102C341.226 738.88 378.684 725.343 397.37 729.816C396.656 731.646 395.913 733.348 394.924 735.046C387.131 740.401 369.442 744.474 360.009 747.605C340.768 753.99 321.845 760.82 302.33 766.366C301.758 765.43 301.701 764.418 301.518 763.349L301.558 762.768C303.724 760.42 305.307 758.376 306.095 755.232L306.385 755.009Z"/>
	<path fill="#EAEADE" transform="scale(0.25 0.25)" d="M204.671 728.053L269.751 741.959C282.206 744.644 294.53 747.759 307.133 749.732C306.862 751.48 306.516 753.245 306.385 755.009L306.095 755.232C305.307 758.376 303.724 760.42 301.558 762.768C289.249 759.213 276.503 756.658 264.007 753.839C251.371 750.988 238.782 747.87 226.115 745.165C217.163 743.253 207.979 742.016 199.157 739.555C200.463 737.416 201.51 735.084 202.628 732.84L204.671 728.053Z"/>
	<path fill="#F2F2F1" transform="scale(0.25 0.25)" d="M204.671 728.053L269.751 741.959C282.206 744.644 294.53 747.759 307.133 749.732C306.862 751.48 306.516 753.245 306.385 755.009L306.095 755.232C300.873 755.357 285.74 750.5 279.574 749.126C261.072 745.003 242.42 741.346 223.852 737.53C218.552 736.44 206.778 735.182 202.628 732.84L204.671 728.053Z"/>
	<path fill="#E4CEC9" transform="scale(0.25 0.25)" d="M206.092 713.256C228.97 718.399 251.977 722.779 274.889 727.733C284.956 729.91 296.1 734.246 306.341 734.64C306.512 736.112 306.601 737.673 306.9 739.12L307.186 744.266C307.284 746.114 307.267 747.887 307.133 749.732C294.53 747.759 282.206 744.644 269.751 741.959L204.671 728.053C205.096 726.437 205.454 724.801 205.836 723.175L206.265 718.519L206.092 713.256Z"/>
	<path fill="#F2F2F1" transform="scale(0.25 0.25)" d="M206.265 718.519L270.237 732.07C282.217 734.651 294.639 738.527 306.9 739.12L307.186 744.266C273.3 738.507 239.429 730.483 205.836 723.175L206.265 718.519Z"/>
	<path fill="#E4CEC9" transform="scale(0.25 0.25)" d="M206.092 713.256C228.97 718.399 251.977 722.779 274.889 727.733C284.956 729.91 296.1 734.246 306.341 734.64C306.512 736.112 306.601 737.673 306.9 739.12C294.639 738.527 282.217 734.651 270.237 732.07L206.265 718.519L206.092 713.256Z"/>
	<path fill="#E4CEC9" transform="scale(0.25 0.25)" d="M199.25 691.811C205.767 691.358 219.645 695.026 226.656 696.415C247.923 700.63 269.555 705.816 291.113 708.15C297.803 711.459 298.688 716.482 302.382 722.336L302.707 723.895C304.083 725.777 304.706 728.049 305.472 730.231C305.719 731.717 305.99 733.175 306.341 734.64C296.1 734.246 284.956 729.91 274.889 727.733C251.977 722.779 228.97 718.399 206.092 713.256L205.165 709.855C203 703.913 201.234 697.816 199.25 691.811Z"/>
	<path fill="#F2F2F1" transform="scale(0.25 0.25)" d="M302.707 723.895C297.811 723.636 292.778 721.911 288.003 720.816C283.419 719.765 278.738 718.982 274.125 718.039L230.877 709.12C225.212 707.946 219.406 707.086 213.795 705.726C210.47 704.919 206.457 704.022 203.549 702.203C206.769 701.305 277.887 716.322 286.287 718.209C291.693 719.424 296.99 721.062 302.382 722.336L302.707 723.895Z"/>
	<path fill="#F2F2F1" transform="scale(0.25 0.25)" d="M205.165 709.855L206.007 709.106C210.574 709.465 215.339 710.926 219.817 711.936Q230.609 714.386 241.444 716.639Q264.319 721.339 287.127 726.352C293.194 727.663 299.545 728.431 305.472 730.231C305.719 731.717 305.99 733.175 306.341 734.64C296.1 734.246 284.956 729.91 274.889 727.733C251.977 722.779 228.97 718.399 206.092 713.256L205.165 709.855Z"/>
	<path fill="#F4954B" transform="scale(0.25 0.25)" d="M384.522 678.641C398.386 698.097 400.372 705.909 397.37 729.816C378.684 725.343 341.226 738.88 323.58 747.102C318.687 749.382 311.671 754.741 306.385 755.009C306.516 753.245 306.862 751.48 307.133 749.732C307.267 747.887 307.284 746.114 307.186 744.266L306.9 739.12C306.601 737.673 306.512 736.112 306.341 734.64C305.99 733.175 305.719 731.717 305.472 730.231C304.706 728.049 304.083 725.777 302.707 723.895L302.382 722.336C298.688 716.482 297.803 711.459 291.113 708.15C300.714 703.968 311.492 701.627 321.52 698.608C342.487 692.294 363.944 686.094 384.522 678.641Z"/>
	<path fill="#0A796C" transform="scale(0.25 0.25)" d="M265.923 580.33L295.492 574.776C299.593 582.372 303.61 589.957 308.611 597.013C312.645 604.814 317.796 611.844 323.124 618.801C324.167 620.144 325.271 621.468 326.233 622.87C328.412 625.38 330.525 627.968 333.024 630.169L334.974 632.755L336.744 634.688L342.12 640.827L344.374 643.162L349.963 648.82L352.199 651.015L362.885 660.72L363.608 661.243C366.484 663.215 369.273 665.15 371.862 667.493C375.839 669.999 379.577 672.814 383.472 675.435L386.061 677.546L384.522 678.641C363.944 686.094 342.487 692.294 321.52 698.608C311.492 701.627 300.714 703.968 291.113 708.15C269.555 705.816 247.923 700.63 226.656 696.415C219.645 695.026 205.767 691.358 199.25 691.811C195.909 691.682 190.482 690.802 187.9 688.591C186.745 687.601 186.695 686.807 186.49 685.362C187.776 683.197 189.286 681.848 191.183 680.248C183.847 678.31 159.557 676.971 155.298 670.652C154.094 668.866 154.482 667.395 154.943 665.464C160.625 661.769 168.048 660.241 174.55 658.643L175.199 656.717C178.884 646.84 179.178 637.775 177.686 627.405C177.061 625.449 176.626 623.39 176.109 621.4L175.752 620.453C172.785 619.035 168.626 619.166 165.358 618.49C163.197 618.042 160.715 617.105 159.629 615.02C158.715 613.267 159.101 611.448 159.568 609.639C172.13 601.818 222.421 590.593 239.987 586.304C243.977 585.11 248.154 584.316 252.214 583.371C256.673 582.514 261.676 581.898 265.923 580.33Z"/>
	<path fill="#0AAA94" transform="scale(0.25 0.25)" d="M154.943 665.464C160.625 661.769 168.048 660.241 174.55 658.643C174.025 660.669 173.452 662.657 172.793 664.644C180.754 665.666 188.685 667.72 196.536 669.4L243.086 679.477C253.012 681.713 263.046 684.513 273.108 686.02C275.805 686.644 277.9 686.54 280.594 685.988C290.828 683.892 300.8 679.879 310.762 676.738L362.885 660.72L363.608 661.243C362.638 662.99 361.117 663.57 359.29 664.347C350.399 668.129 340.17 670.318 330.908 673.192C313.352 678.638 295.832 684.529 278.165 689.573C274.892 690.508 272.017 690.707 268.627 690.351C255.372 688.958 241.739 685.056 228.663 682.261C203.96 676.98 179.376 671.91 154.943 665.464Z"/>
	<path fill="#F2F2F1" transform="scale(0.25 0.25)" d="M175.199 656.717C181.358 658.003 187.803 658.35 194.055 659.138Q207.039 660.901 219.941 663.192Q238.056 666.541 256.126 670.119C264.628 671.809 273.229 673.947 281.897 674.507C279.665 679.429 278.097 683.343 273.108 686.02C263.046 684.513 253.012 681.713 243.086 679.477L196.536 669.4C188.685 667.72 180.754 665.666 172.793 664.644C173.452 662.657 174.025 660.669 174.55 658.643L175.199 656.717Z"/>
	<path fill="#CD363A" transform="scale(0.25 0.25)" d="M371.862 667.493C375.839 669.999 379.577 672.814 383.472 675.435L386.061 677.546L384.522 678.641C363.944 686.094 342.487 692.294 321.52 698.608C311.492 701.627 300.714 703.968 291.113 708.15C269.555 705.816 247.923 700.63 226.656 696.415C219.645 695.026 205.767 691.358 199.25 691.811C195.909 691.682 190.482 690.802 187.9 688.591C186.745 687.601 186.695 686.807 186.49 685.362C187.776 683.197 189.286 681.848 191.183 680.248C209.707 682.383 228.574 687.698 246.723 691.951C253.74 693.596 260.784 695.43 267.932 696.42C272.437 697.045 277.136 696.307 281.541 695.337C293.543 692.694 305.191 688.258 316.902 684.568L371.862 667.493Z"/>
	<path fill="#9D312F" transform="scale(0.25 0.25)" d="M186.49 685.362C187.414 685.678 186.987 685.595 187.952 685.676C195.126 686.272 202.358 688.088 209.416 689.488C224.979 692.575 240.418 696.193 255.969 699.295C265.469 701.19 275.68 703.29 285.385 702.93C297.395 702.485 309.994 697.113 321.225 693.201C340.313 686.552 363.588 677.739 383.472 675.435L386.061 677.546L384.522 678.641C363.944 686.094 342.487 692.294 321.52 698.608C311.492 701.627 300.714 703.968 291.113 708.15C269.555 705.816 247.923 700.63 226.656 696.415C219.645 695.026 205.767 691.358 199.25 691.811C195.909 691.682 190.482 690.802 187.9 688.591C186.745 687.601 186.695 686.807 186.49 685.362Z"/>
	<defs>
		<linearGradient id="gradient_1" gradientUnits="userSpaceOnUse" x1="320.16443" y1="677.05017" x2="312.66614" y2="659.22858">
			<stop offset="0" stop-color="#C5A99E"/>
			<stop offset="1" stop-color="#D5C0AB"/>
		</linearGradient>
	</defs>
	<path fill="url(#gradient_1)" transform="scale(0.25 0.25)" d="M333.024 630.169L334.974 632.755L336.744 634.688L342.12 640.827L344.374 643.162L349.963 648.82L352.199 651.015L362.885 660.72L310.762 676.738C300.8 679.879 290.828 683.892 280.594 685.988C277.9 686.54 275.805 686.644 273.108 686.02C278.097 683.343 279.665 679.429 281.897 674.507C282.052 673.181 282.631 671.912 282.84 670.568C283.321 667.476 283.193 664.275 283.169 661.155L283.134 660.286L282.702 658.73C282.342 656.532 281.72 654.363 281.177 652.203L280.338 650.717C279.545 649.746 278.866 650.309 277.96 649.391C278.385 649.083 278.645 648.661 278.961 648.247L278.664 646.46C296.275 639.783 315.119 636.006 333.024 630.169Z"/>
	<path fill="#C7A690" transform="scale(0.25 0.25)" d="M349.963 648.82L352.199 651.015C336.947 656.229 321.384 660.218 305.869 664.557C298.86 666.517 291.539 668.345 284.709 670.844C284.078 670.59 283.853 670.605 283.439 670.042C288.688 666.134 298.009 664.603 304.239 662.823Q318.682 658.624 333.08 654.277C338.64 652.602 344.674 651.211 349.963 648.82Z"/>
	<path fill="#E4CEC9" transform="scale(0.25 0.25)" d="M342.12 640.827L344.374 643.162L349.963 648.82C344.674 651.211 338.64 652.602 333.08 654.277Q318.682 658.624 304.239 662.823C298.009 664.603 288.688 666.134 283.439 670.042C283.709 667.254 284.029 663.852 283.169 661.155L283.134 660.286L282.702 658.73C286.362 656.374 295.112 654.846 299.681 653.558C313.718 649.6 328.567 646.154 342.12 640.827Z"/>
	<path fill="#C7A690" transform="scale(0.25 0.25)" d="M342.12 640.827L344.374 643.162C338.891 644.285 333.527 646.235 328.188 647.904C318.159 651.039 308.163 653.928 298.012 656.636C293.136 657.937 288.13 659.539 283.134 660.286L282.702 658.73C286.362 656.374 295.112 654.846 299.681 653.558C313.718 649.6 328.567 646.154 342.12 640.827Z"/>
	<path fill="#E4CEC9" transform="scale(0.25 0.25)" d="M333.024 630.169L334.974 632.755L336.744 634.688L342.12 640.827C328.567 646.154 313.718 649.6 299.681 653.558C295.112 654.846 286.362 656.374 282.702 658.73C282.342 656.532 281.72 654.363 281.177 652.203L280.338 650.717C279.545 649.746 278.866 650.309 277.96 649.391C278.385 649.083 278.645 648.661 278.961 648.247L278.664 646.46C296.275 639.783 315.119 636.006 333.024 630.169Z"/>
	<path fill="#C7A690" transform="scale(0.25 0.25)" d="M334.974 632.755L336.744 634.688C319.149 642.256 299.478 646.476 281.177 652.203L280.338 650.717C286.654 644.723 323.841 637.73 334.974 632.755Z"/>
	<path fill="#E4CEC9" transform="scale(0.25 0.25)" d="M333.024 630.169L334.974 632.755C323.841 637.73 286.654 644.723 280.338 650.717C279.545 649.746 278.866 650.309 277.96 649.391C278.385 649.083 278.645 648.661 278.961 648.247L278.664 646.46C296.275 639.783 315.119 636.006 333.024 630.169Z"/>
	<path fill="#EAEADE" transform="scale(0.25 0.25)" d="M177.686 627.405C187.485 630.193 197.698 631.945 207.662 634.101Q232.658 639.364 257.557 645.066C264.361 646.553 271.252 647.502 277.96 649.391C278.866 650.309 279.545 649.746 280.338 650.717L281.177 652.203C281.72 654.363 282.342 656.532 282.702 658.73L283.134 660.286L283.169 661.155C283.193 664.275 283.321 667.476 282.84 670.568C282.631 671.912 282.052 673.181 281.897 674.507C273.229 673.947 264.628 671.809 256.126 670.119Q238.056 666.541 219.941 663.192Q207.039 660.901 194.055 659.138C187.803 658.35 181.358 658.003 175.199 656.717C178.884 646.84 179.178 637.775 177.686 627.405Z"/>
	<defs>
		<linearGradient id="gradient_2" gradientUnits="userSpaceOnUse" x1="250.10118" y1="640.55933" x2="232.68748" y2="585.77576">
			<stop offset="0" stop-color="#129285"/>
			<stop offset="1" stop-color="#04B9B2"/>
		</linearGradient>
	</defs>
	<path fill="url(#gradient_2)" transform="scale(0.25 0.25)" d="M265.923 580.33L295.492 574.776C299.593 582.372 303.61 589.957 308.611 597.013C312.645 604.814 317.796 611.844 323.124 618.801C324.167 620.144 325.271 621.468 326.233 622.87C328.412 625.38 330.525 627.968 333.024 630.169C315.119 636.006 296.275 639.783 278.664 646.46L278.961 648.247C278.645 648.661 278.385 649.083 277.96 649.391C271.252 647.502 264.361 646.553 257.557 645.066Q232.658 639.364 207.662 634.101C197.698 631.945 187.485 630.193 177.686 627.405C177.061 625.449 176.626 623.39 176.109 621.4L175.752 620.453C172.785 619.035 168.626 619.166 165.358 618.49C163.197 618.042 160.715 617.105 159.629 615.02C158.715 613.267 159.101 611.448 159.568 609.639C172.13 601.818 222.421 590.593 239.987 586.304C243.977 585.11 248.154 584.316 252.214 583.371C256.673 582.514 261.676 581.898 265.923 580.33Z"/>
	<path fill="#0A796C" transform="scale(0.25 0.25)" d="M159.568 609.639C173.469 613.055 187.726 615.164 201.751 618.053L234.839 624.991C245.866 627.39 263.713 632.963 274.383 631.881C290.992 630.196 306.649 621.705 323.124 618.801C324.167 620.144 325.271 621.468 326.233 622.87C328.412 625.38 330.525 627.968 333.024 630.169C315.119 636.006 296.275 639.783 278.664 646.46L278.961 648.247C278.645 648.661 278.385 649.083 277.96 649.391C271.252 647.502 264.361 646.553 257.557 645.066Q232.658 639.364 207.662 634.101C197.698 631.945 187.485 630.193 177.686 627.405C177.061 625.449 176.626 623.39 176.109 621.4L175.752 620.453C172.785 619.035 168.626 619.166 165.358 618.49C163.197 618.042 160.715 617.105 159.629 615.02C158.715 613.267 159.101 611.448 159.568 609.639Z"/>
	<path fill="#C7A690" transform="scale(0.25 0.25)" d="M326.233 622.87C328.412 625.38 330.525 627.968 333.024 630.169C315.119 636.006 296.275 639.783 278.664 646.46C276.98 644.249 273.686 639.765 270.894 639.072C270.188 638.897 269.395 638.81 268.672 638.665C280.918 638.635 312.591 627.106 326.233 622.87Z"/>
	<path fill="#F2F2F1" transform="scale(0.25 0.25)" d="M176.109 621.4L176.786 620.668C183.748 620.867 191.208 622.88 198.074 624.189Q221.758 628.769 245.297 634.047C252.718 635.726 261.109 638.493 268.672 638.665C269.395 638.81 270.188 638.897 270.894 639.072C273.686 639.765 276.98 644.249 278.664 646.46L278.961 648.247C278.645 648.661 278.385 649.083 277.96 649.391C271.252 647.502 264.361 646.553 257.557 645.066Q232.658 639.364 207.662 634.101C197.698 631.945 187.485 630.193 177.686 627.405C177.061 625.449 176.626 623.39 176.109 621.4Z"/>
	<path fill="#4FB237" transform="scale(0.25 0.25)" d="M503.818 182.609L505.251 179.19C521.012 141.87 548.229 108.103 586.712 92.6531C615.911 80.9308 649.227 81.9799 678.909 91.4465C688.489 94.5022 697.672 98.6599 706.914 102.591L711.775 104.738C705.005 107.949 698.474 110.956 692.962 116.147C684.006 125.227 675.937 134.375 668.998 145.131C655.283 166.391 645.69 190.011 629.236 209.505C619.951 220.505 608.789 229.31 597.227 237.764C585.611 233.729 574.272 230.001 562.165 227.732C552.463 225.046 542.644 224.144 532.671 223.112L527.933 222.722C521.522 222.22 514.985 222.311 508.551 222.188C505.506 222.369 502.502 222.507 499.452 222.443L498.158 222.557L492.987 222.81C472.949 225.103 453.88 228.426 434.634 234.492C428.152 230.609 421.295 226.823 415.398 222.093C395.453 206.096 384.12 182.546 366.595 164.399Q361.52 159.109 355.813 154.508C352.971 152.208 345.095 147.636 343.467 145.29C343.806 143.909 344.349 143.906 345.48 143.171L347.542 142.29C371.625 128.027 400.268 119.501 428.211 126.261C453.933 132.484 489.677 159.715 503.818 182.609Z"/>
	<path fill="#90CA4F" transform="scale(0.25 0.25)" d="M400.757 129.702C404.661 129.262 408.865 129.439 412.77 129.836C444.818 133.102 471.455 154.66 490.963 178.952C493.49 182.098 501.071 190.92 500.599 195.218L499.803 195.424C495.295 193.455 491.794 187.406 488.666 183.649C482.197 176.25 475.474 169.294 467.896 163.019C440.154 140.047 410.523 131.862 374.977 135.236C383.37 132.142 391.872 130.555 400.757 129.702Z"/>
	<path fill="#90CA4F" transform="scale(0.25 0.25)" d="M499.452 222.443C500.029 216.748 501.26 210.948 502.799 205.448C514.441 163.837 539.703 125.634 578.063 104.28C605.48 89.0178 634.13 87.2423 664.058 95.7992C636.726 95.1129 615.263 96.4221 590.347 109.563C558.886 126.156 534.177 156.728 520.087 189.051C515.403 199.796 511.997 211.001 508.551 222.188C505.506 222.369 502.502 222.507 499.452 222.443Z"/>
	<path fill="#349234" transform="scale(0.25 0.25)" d="M345.48 143.171L347.542 142.29C347.72 142.378 347.89 142.487 348.077 142.555C351.252 143.708 357.819 142.794 361.445 143.069C368.662 143.615 375.908 145.372 382.678 147.911C409.733 158.057 432.058 178.542 455.865 194.242C469.57 203.281 487.411 209.953 498.158 222.557L492.987 222.81C472.949 225.103 453.88 228.426 434.634 234.492C428.152 230.609 421.295 226.823 415.398 222.093C395.453 206.096 384.12 182.546 366.595 164.399Q361.52 159.109 355.813 154.508C352.971 152.208 345.095 147.636 343.467 145.29C343.806 143.909 344.349 143.906 345.48 143.171Z"/>
	<path fill="#2A7F2F" transform="scale(0.25 0.25)" d="M434.634 234.492C428.152 230.609 421.295 226.823 415.398 222.093C395.453 206.096 384.12 182.546 366.595 164.399Q361.52 159.109 355.813 154.508C352.971 152.208 345.095 147.636 343.467 145.29C343.806 143.909 344.349 143.906 345.48 143.171C348.318 144.835 351.531 145.864 354.586 147.069C361.136 149.651 367.376 152.603 372.956 156.972C396.455 175.371 403.025 195.497 433.429 207.374C439.118 209.597 445.252 211.206 451.269 212.243C461.774 214.054 486.134 214.679 492.987 222.81C472.949 225.103 453.88 228.426 434.634 234.492Z"/>
	<path fill="#349234" transform="scale(0.25 0.25)" d="M706.914 102.591L711.775 104.738C705.005 107.949 698.474 110.956 692.962 116.147C684.006 125.227 675.937 134.375 668.998 145.131C655.283 166.391 645.69 190.011 629.236 209.505C619.951 220.505 608.789 229.31 597.227 237.764C585.611 233.729 574.272 230.001 562.165 227.732C552.463 225.046 542.644 224.144 532.671 223.112L527.933 222.722C532.783 215.229 539.506 208.762 545.358 202.038C553.861 192.27 562.588 182.554 572.135 173.78Q577.535 168.891 583.156 164.257Q588.777 159.623 594.606 155.254Q600.436 150.886 606.461 146.791Q612.486 142.697 618.695 138.886Q624.903 135.075 631.281 131.556Q637.659 128.036 644.193 124.816Q650.727 121.595 657.404 118.681Q664.08 115.766 670.884 113.164C677.283 110.782 684.147 108.698 690.81 107.243C695.029 106.321 699.563 105.846 703.67 104.545C705.007 104.122 705.859 103.495 706.914 102.591Z"/>
	<path fill="#2A7F2F" transform="scale(0.25 0.25)" d="M532.671 223.112C541.417 207.493 568.57 206.725 584.17 203.161C591.735 201.433 598.919 199.04 605.874 195.576C627.365 184.873 640.388 165.933 655.784 148.438C664.29 138.773 673.539 129.363 683.307 120.985C686.189 118.513 688.951 115.83 692.962 116.147C684.006 125.227 675.937 134.375 668.998 145.131C655.283 166.391 645.69 190.011 629.236 209.505C619.951 220.505 608.789 229.31 597.227 237.764C585.611 233.729 574.272 230.001 562.165 227.732C552.463 225.046 542.644 224.144 532.671 223.112Z"/>
	<path fill="#7F0638" transform="scale(0.25 0.25)" d="M699.785 310.558Q701.711 312.846 703.58 315.181Q705.448 317.516 707.258 319.897Q709.068 322.278 710.819 324.703Q712.569 327.128 714.259 329.595Q715.948 332.063 717.576 334.572Q719.204 337.081 720.769 339.63Q722.334 342.178 723.835 344.765Q725.336 347.351 726.772 349.975Q728.209 352.598 729.58 355.256Q730.951 357.914 732.255 360.605Q733.56 363.296 734.797 366.019Q736.034 368.742 737.203 371.494Q738.373 374.247 739.473 377.028Q740.574 379.809 741.605 382.616Q742.636 385.424 743.597 388.256Q744.558 391.088 745.448 393.943Q746.339 396.798 747.158 399.674Q747.977 402.55 748.725 405.446Q749.472 408.342 750.148 411.255Q750.823 414.169 751.426 417.098Q752.029 420.027 752.559 422.971Q753.089 425.914 753.545 428.87Q754.002 431.825 754.385 434.792Q754.768 437.758 755.078 440.732Q755.387 443.707 755.622 446.688Q755.858 449.67 756.019 452.656Q756.18 455.642 756.267 458.632Q756.355 461.621 756.367 464.612Q756.38 467.603 756.319 470.593Q756.257 473.583 756.121 476.57Q755.986 479.558 755.776 482.541Q755.566 485.525 755.282 488.502C754.674 495.179 753.759 501.906 752.724 508.53C752.006 510.617 745.652 537.617 745.567 538.976C742.19 549.248 738.732 559.67 734.269 569.53Q733.152 571.956 731.984 574.357Q730.816 576.759 729.597 579.136Q728.379 581.512 727.112 583.863Q725.844 586.213 724.527 588.537Q723.21 590.86 721.845 593.156Q720.48 595.451 719.067 597.717Q717.654 599.983 716.194 602.219Q714.734 604.455 713.227 606.66Q711.72 608.865 710.167 611.038Q708.615 613.211 707.017 615.351Q705.419 617.491 703.776 619.597Q702.134 621.703 700.448 623.773Q698.761 625.844 697.032 627.88Q695.303 629.915 693.531 631.913Q691.76 633.911 689.946 635.872Q688.133 637.833 686.279 639.755Q684.426 641.678 682.532 643.561Q680.638 645.444 678.705 647.287Q676.772 649.13 674.801 650.932Q672.83 652.734 670.822 654.494Q668.813 656.254 666.769 657.972Q664.724 659.69 662.643 661.364Q660.563 663.039 658.448 664.669Q656.332 666.3 654.184 667.886Q652.035 669.471 649.853 671.012Q647.672 672.552 645.458 674.047Q643.245 675.541 641 676.988Q638.756 678.436 636.482 679.836Q634.208 681.236 631.905 682.588Q629.602 683.94 627.271 685.244Q624.94 686.548 622.582 687.802Q620.224 689.056 617.841 690.261Q605.358 696.57 592.084 700.977C591.505 712.556 590.459 725.013 588.356 736.425Q571.927 736.506 555.499 736.4C555.08 727.889 555.337 719.294 555.365 710.772C532.595 717.987 492.46 714.942 469.091 710.662C468.318 719.642 469.462 729.097 468.228 737.907L468.012 736.969C467.882 736.9 467.759 736.816 467.622 736.763C465.269 735.837 438.626 735.973 436.73 736.898C435.68 732.791 435.563 728.041 435.15 723.809L432.936 700.835C424.586 697.507 416.502 693.492 408.155 690.12C406.097 688.753 404.067 687.534 401.874 686.39L400.221 687.029L400.159 686.777L400.713 686.479L400.66 686.037L400.189 686.402C401.072 689.836 402.783 692.969 404.001 696.289C406.806 703.93 409.124 715.377 404.648 722.746C404.312 723.299 403.953 723.771 403.552 724.282Q403.522 722.564 403.412 720.849C402.457 706.448 397.327 687.362 386.061 677.546L383.472 675.435C379.577 672.814 375.839 669.999 371.862 667.493C369.273 665.15 366.484 663.215 363.608 661.243L362.885 660.72L352.199 651.015L349.963 648.82L344.374 643.162L342.12 640.827L336.744 634.688L334.974 632.755L333.024 630.169C330.525 627.968 328.412 625.38 326.233 622.87C325.271 621.468 324.167 620.144 323.124 618.801C317.796 611.844 312.645 604.814 308.611 597.013C317.266 601.229 323.928 609.265 331.565 615.108Q333.918 616.923 336.314 618.679Q338.71 620.436 341.148 622.133Q343.587 623.83 346.066 625.468Q348.545 627.105 351.064 628.681Q353.582 630.257 356.139 631.771Q358.695 633.285 361.287 634.736Q363.88 636.188 366.507 637.575Q369.134 638.962 371.795 640.285Q374.455 641.607 377.147 642.865Q379.839 644.122 382.561 645.313Q385.283 646.504 388.033 647.628Q390.783 648.752 393.56 649.809Q396.337 650.865 399.139 651.854Q401.94 652.842 404.766 653.761Q407.591 654.681 410.437 655.531Q413.284 656.381 416.151 657.161Q419.018 657.942 421.903 658.652Q424.788 659.362 427.689 660.001Q430.591 660.64 433.507 661.208Q436.423 661.776 439.352 662.273Q442.281 662.77 445.222 663.195Q448.162 663.619 451.112 663.972Q454.062 664.325 457.02 664.606Q459.978 664.886 462.942 665.094Q465.905 665.303 468.873 665.438Q471.841 665.574 474.812 665.637Q477.782 665.7 480.753 665.69Q483.724 665.681 486.694 665.599Q489.664 665.516 492.631 665.362Q495.598 665.207 498.56 664.979Q501.523 664.752 504.478 664.453Q507.434 664.153 510.382 663.781Q512.656 663.475 514.924 663.123Q517.192 662.771 519.452 662.374Q521.713 661.976 523.964 661.533Q526.216 661.091 528.459 660.603Q530.701 660.115 532.933 659.581Q535.166 659.048 537.387 658.47Q539.608 657.893 541.817 657.27Q544.026 656.648 546.221 655.981Q548.417 655.314 550.599 654.603Q552.781 653.892 554.949 653.138Q557.116 652.383 559.268 651.585Q561.42 650.787 563.555 649.946Q565.69 649.104 567.808 648.22Q569.926 647.336 572.025 646.41Q574.125 645.483 576.206 644.515Q578.286 643.546 580.347 642.536Q582.407 641.526 584.447 640.474Q586.487 639.423 588.506 638.331Q590.524 637.238 592.52 636.106Q594.516 634.973 596.489 633.8Q598.461 632.628 600.41 631.415Q602.359 630.203 604.283 628.952Q606.207 627.701 608.105 626.412Q610.004 625.122 611.876 623.795Q613.748 622.467 615.593 621.102Q617.438 619.737 619.255 618.335Q621.072 616.934 622.86 615.496Q624.649 614.058 626.408 612.584Q628.167 611.11 629.896 609.601Q631.626 608.093 633.324 606.549Q635.023 605.006 636.69 603.429Q638.357 601.851 639.992 600.241C648.613 591.765 656.223 582.275 664.207 573.216C670.446 566.138 678.144 559.861 683.778 552.366C689.218 545.129 690.011 535.219 693.57 527.035C696.959 519.244 700.945 511.718 703.979 503.775C720.891 459.494 728.756 409.724 718.412 362.925C716.1 352.464 712.915 341.818 708.85 331.904C706.038 325.046 700.805 318.607 699.85 311.125C699.826 310.937 699.807 310.747 699.785 310.558Z"/>
	<path fill="#59136A" transform="scale(0.25 0.25)" d="M432.936 700.835C444.96 704.513 456.935 707.542 469.091 710.662C468.318 719.642 469.462 729.097 468.228 737.907L468.012 736.969C467.882 736.9 467.759 736.816 467.622 736.763C465.269 735.837 438.626 735.973 436.73 736.898C435.68 732.791 435.563 728.041 435.15 723.809L432.936 700.835Z"/>
	<path fill="#59136A" transform="scale(0.25 0.25)" d="M592.084 700.977C591.505 712.556 590.459 725.013 588.356 736.425Q571.927 736.506 555.499 736.4C555.08 727.889 555.337 719.294 555.365 710.772C567.766 707.966 579.9 704.59 592.084 700.977Z"/>
	<path fill="#4F86BE" transform="scale(0.25 0.25)" d="M556.793 832.15C557.369 841.111 555.468 859.344 557.766 866.655C563.444 862.947 569.194 858.108 574.501 853.84C572.88 850.25 575.975 836.618 577.05 832.38C585.252 833.457 593.602 833.453 601.859 833.726Q616.967 834.281 632.056 835.208C672.8 837.805 811.483 848.295 834.757 878.067C836.419 880.193 837.546 882.704 837.167 885.452C836.517 890.17 831.972 893.857 828.284 896.423C814.092 906.298 795.946 910.423 779.332 914.335C716.265 929.187 650.328 932.886 585.752 935.21C545.006 936.676 504.327 937.692 463.551 936.454Q429.704 935.089 395.897 932.945C353.6 930.265 310.924 926.647 269.228 918.928C250.191 915.404 199.646 905.641 189.415 889.935C187.86 887.547 187.242 884.843 187.901 882.045C189.263 876.269 195.399 872.187 200.256 869.4C242.99 844.882 358.712 836.775 410.193 834.37C422.542 833.793 434.909 833.947 447.262 833.519C448.09 839.968 449.244 846.745 449.015 853.248C453.638 858.345 460.332 862.622 465.791 866.857C467.723 855.433 466.836 843.72 467.011 832.168L556.793 832.15Z"/>
	<path fill="#4B0D0E" transform="scale(0.25 0.25)" d="M644.748 876.671C646.075 881.065 647.449 885.107 645.199 889.489C644.48 890.889 643.374 892.085 642.366 893.282C639.697 893.919 637.122 894.312 634.38 894.465C621.46 895.188 608.404 894.519 595.467 894.511C584.867 894.504 557.154 896.143 548.991 893.286C546.69 890.774 545.162 888.738 545.23 885.189C545.281 882.495 546.527 879.927 547.826 877.631C554.768 878.943 570.373 877.999 578.135 878.003C597.54 878.012 617.247 878.757 636.606 877.836C639.418 877.702 642.022 877.401 644.748 876.671Z"/>
	<path fill="#4B0D0E" transform="scale(0.25 0.25)" d="M475.792 877.913C477.457 880.651 479.045 883.352 478.344 886.677C477.608 890.166 474.819 892.542 472.034 894.491C455.027 894.764 438.049 894.433 421.05 894.525C409.746 894.587 398.352 895.352 387.067 894.534C384.437 894.343 379.947 894.2 377.921 892.448C375.691 890.52 375.04 887.182 375.083 884.378C375.115 882.284 375.393 879.981 376.066 877.991C409.225 877.11 442.607 877.918 475.792 877.913Z"/>
	<path fill="#7F0638" transform="scale(0.25 0.25)" d="M574.501 853.84C586.773 847.336 600.349 842.75 614.184 846.91C625.992 850.461 635.858 859.179 641.578 870.004Q643.273 873.285 644.748 876.671C642.022 877.401 639.418 877.702 636.606 877.836C617.247 878.757 597.54 878.012 578.135 878.003C570.373 877.999 554.768 878.943 547.826 877.631C550.851 873.708 554.114 870.005 557.766 866.655C563.444 862.947 569.194 858.108 574.501 853.84Z"/>
	<path fill="#7F0638" transform="scale(0.25 0.25)" d="M376.066 877.991C376.854 875.908 377.636 873.806 378.615 871.804C384.079 860.631 393.535 851.824 405.353 847.792C420.34 842.678 435.237 846.502 449.015 853.248C453.638 858.345 460.332 862.622 465.791 866.857C469.383 870.325 473.018 873.724 475.792 877.913C442.607 877.918 409.225 877.11 376.066 877.991Z"/>
	<defs>
		<linearGradient id="gradient_3" gradientUnits="userSpaceOnUse" x1="583.20502" y1="639.78461" x2="398.37399" y2="326.8136">
			<stop offset="0" stop-color="#A90951"/>
			<stop offset="1" stop-color="#D32973"/>
		</linearGradient>
	</defs>
	<path fill="url(#gradient_3)" transform="scale(0.25 0.25)" d="M508.551 222.188C514.985 222.311 521.522 222.22 527.933 222.722L532.671 223.112C542.644 224.144 552.463 225.046 562.165 227.732C574.272 230.001 585.611 233.729 597.227 237.764C606.09 241.559 615.043 245.236 623.63 249.629C652.315 264.306 679.62 285.294 699.785 310.558C699.807 310.747 699.826 310.937 699.85 311.125C700.805 318.607 706.038 325.046 708.85 331.904C712.915 341.818 716.1 352.464 718.412 362.925C728.756 409.724 720.891 459.494 703.979 503.775C700.945 511.718 696.959 519.244 693.57 527.035C690.011 535.219 689.218 545.129 683.778 552.366C678.144 559.861 670.446 566.138 664.207 573.216C656.223 582.275 648.613 591.765 639.992 600.241Q638.357 601.851 636.69 603.429Q635.023 605.006 633.324 606.549Q631.626 608.093 629.896 609.601Q628.167 611.11 626.408 612.584Q624.649 614.058 622.86 615.496Q621.072 616.934 619.255 618.336Q617.438 619.737 615.593 621.102Q613.748 622.467 611.876 623.795Q610.004 625.122 608.105 626.412Q606.207 627.701 604.283 628.952Q602.359 630.203 600.41 631.415Q598.461 632.628 596.489 633.8Q594.516 634.973 592.52 636.106Q590.524 637.238 588.506 638.331Q586.487 639.423 584.447 640.474Q582.407 641.526 580.347 642.536Q578.286 643.546 576.206 644.515Q574.125 645.483 572.025 646.41Q569.926 647.336 567.808 648.22Q565.69 649.104 563.555 649.946Q561.42 650.787 559.268 651.585Q557.116 652.383 554.949 653.138Q552.781 653.892 550.599 654.603Q548.417 655.314 546.221 655.981Q544.026 656.648 541.817 657.27Q539.608 657.893 537.387 658.47Q535.166 659.048 532.933 659.581Q530.701 660.115 528.459 660.603Q526.216 661.091 523.964 661.533Q521.713 661.976 519.452 662.374Q517.192 662.771 514.924 663.123Q512.656 663.475 510.382 663.781Q507.434 664.153 504.478 664.453Q501.523 664.752 498.56 664.979Q495.598 665.207 492.631 665.362Q489.664 665.516 486.694 665.599Q483.724 665.681 480.753 665.69Q477.782 665.7 474.812 665.637Q471.841 665.574 468.873 665.438Q465.905 665.303 462.942 665.094Q459.978 664.886 457.02 664.606Q454.062 664.325 451.113 663.972Q448.162 663.619 445.222 663.194Q442.281 662.77 439.352 662.273Q436.423 661.776 433.507 661.208Q430.591 660.64 427.689 660.001Q424.788 659.362 421.903 658.652Q419.018 657.942 416.151 657.161Q413.284 656.381 410.438 655.531Q407.591 654.681 404.766 653.761Q401.94 652.842 399.139 651.853Q396.337 650.865 393.56 649.809Q390.783 648.752 388.033 647.628Q385.283 646.504 382.561 645.313Q379.839 644.122 377.147 642.865Q374.455 641.607 371.795 640.285Q369.134 638.962 366.507 637.575Q363.88 636.188 361.287 634.736Q358.695 633.285 356.139 631.771Q353.582 630.257 351.064 628.681Q348.545 627.105 346.066 625.468Q343.587 623.83 341.148 622.133Q338.71 620.436 336.314 618.679Q333.918 616.923 331.565 615.108C323.928 609.265 317.266 601.229 308.611 597.013C303.61 589.957 299.593 582.372 295.492 574.776L265.923 580.33C261.676 581.898 256.673 582.514 252.214 583.371C248.154 584.316 243.977 585.11 239.987 586.304C240.899 581.833 242.388 577.411 243.642 573.023C250.647 548.53 260.709 526.175 272.226 503.532C270.245 489.024 269.549 474.761 269.539 460.129C269.144 430.114 276.518 399.526 287.707 371.806Q288.542 369.715 289.418 367.64Q290.293 365.566 291.209 363.509Q292.125 361.452 293.081 359.413Q294.037 357.375 295.033 355.355Q296.028 353.335 297.063 351.336Q298.098 349.336 299.172 347.357Q300.246 345.377 301.358 343.419Q302.47 341.462 303.62 339.526Q304.771 337.59 305.958 335.677Q307.146 333.764 308.371 331.875Q309.596 329.986 310.858 328.121Q312.119 326.255 313.417 324.415Q314.715 322.575 316.049 320.761Q317.382 318.947 318.751 317.159Q320.12 315.371 321.523 313.61Q322.926 311.849 324.364 310.116Q325.801 308.383 327.272 306.678Q328.743 304.973 330.247 303.297Q331.752 301.622 333.288 299.976Q334.825 298.33 336.393 296.714Q337.961 295.098 339.561 293.514Q341.161 291.929 342.791 290.376Q344.421 288.823 346.082 287.302Q347.742 285.781 349.432 284.292Q351.121 282.804 352.84 281.349Q354.558 279.894 356.305 278.473Q358.051 277.052 359.825 275.665Q361.599 274.278 363.4 272.926Q365.201 271.574 367.028 270.258Q368.854 268.941 370.707 267.661Q372.559 266.38 374.435 265.136Q376.312 263.892 378.213 262.685C396.288 251.339 415.07 242.824 434.634 234.492C453.88 228.426 472.949 225.103 492.987 222.81L498.158 222.557L499.452 222.443C502.502 222.507 505.506 222.369 508.551 222.188ZM274.877 518.537C268.694 532.177 252.046 569.223 252.214 583.371C256.673 582.514 261.676 581.898 265.923 580.33L295.492 574.776C293.766 570.622 291.498 566.639 289.605 562.549C286.312 555.433 283.342 548.134 280.253 540.927C279.455 533.353 276.947 525.845 274.877 518.537Z"/>
	<path fill="#7F0638" transform="scale(0.25 0.25)" d="M620.712 543.011C623.161 544.931 625.637 546.84 628.271 548.503C637.779 554.507 648.873 557.392 660.001 554.783C672.182 551.927 679.66 544.245 686.069 533.975C685.238 541.404 679.943 548.236 674.258 552.811Q673.528 553.394 672.771 553.941Q672.014 554.487 671.231 554.996Q670.447 555.505 669.64 555.974Q668.833 556.444 668.003 556.873Q667.174 557.302 666.324 557.69Q665.474 558.078 664.607 558.423Q663.739 558.769 662.855 559.071Q661.972 559.373 661.074 559.632Q660.177 559.89 659.268 560.104Q658.358 560.318 657.44 560.487Q656.521 560.656 655.596 560.78Q654.67 560.904 653.739 560.982Q652.809 561.06 651.875 561.092Q650.942 561.124 650.008 561.11Q649.074 561.096 648.142 561.036Q647.21 560.976 646.282 560.87C637.578 559.919 629.594 555.979 624.084 549.097C622.564 547.198 621.373 545.373 620.712 543.011Z"/>
	<path fill="#4B0D0E" transform="scale(0.25 0.25)" d="M503.858 520.668C510.449 519.151 518.914 520.888 525.178 523.022C534.382 526.157 553.615 540.034 557.332 548.741C557.833 549.913 557.791 550.418 557.356 551.583C554.252 552.167 534.055 537.833 529.199 535.502C513.842 528.092 497.824 528.446 483.209 537.519C479.712 539.689 475.957 543.07 471.703 543.349C470.788 542.921 470.301 542.788 470.066 541.672C469.705 539.96 470.674 537.777 471.688 536.436C479.192 526.499 492.101 522.39 503.858 520.668Z"/>
	<path fill="#A40D51" transform="scale(0.25 0.25)" d="M274.877 518.537C276.947 525.845 279.455 533.353 280.253 540.927C283.342 548.134 286.312 555.433 289.605 562.549C291.498 566.639 293.766 570.622 295.492 574.776L265.923 580.33C261.676 581.898 256.673 582.514 252.214 583.371C252.046 569.223 268.694 532.177 274.877 518.537ZM280.253 540.927C274.374 553.497 268.703 566.667 265.923 580.33L295.492 574.776C293.766 570.622 291.498 566.639 289.605 562.549C286.312 555.433 283.342 548.134 280.253 540.927Z"/>
	<path fill="#A40D51" transform="scale(0.25 0.25)" d="M399.028 495.148C406.587 500.537 415.742 502.03 424.866 502.229C424.734 502.306 424.61 502.399 424.47 502.461C421.122 503.944 416.408 501.841 413.237 503.272C413.918 505.43 415.036 507.996 415.156 510.254C415.102 510.471 415.042 510.686 414.994 510.905C414.206 514.516 416.252 520.498 416.73 524.269C418.458 537.915 409.594 552.362 398.707 559.93C390.273 565.793 379.034 569.416 368.743 567.47C359.304 565.685 349.401 558.235 344.212 550.248C343.352 548.925 342.575 547.634 342.012 546.154C351.687 552.221 361.114 555.322 372.61 553.372C381.825 551.809 390.461 546.649 395.886 538.987C401.813 530.616 403.869 519.737 402.148 509.72C401.33 504.963 399.86 500.334 399.093 495.573L399.028 495.148Z"/>
	<path fill="#F4954B" transform="scale(0.25 0.25)" d="M633.446 277.476C639.696 277.773 645.264 278.482 651.023 281.072C662.391 286.184 673.22 297.471 677.489 309.228C678.806 312.854 679.815 317.154 677.932 320.768C676.661 323.206 674.365 324.201 671.863 324.953C667.196 324.43 662.727 323.513 658.3 321.921C646.13 317.543 632.485 307.48 626.995 295.43C625.391 291.909 624.174 287.774 625.68 284.005C627.145 280.336 630.062 278.963 633.446 277.476Z"/>
	<path fill="#7F0638" transform="scale(0.25 0.25)" d="M414.559 375.032C420.553 373.021 438.362 374.35 443.99 377.182C444.183 377.279 444.373 377.383 444.567 377.477C444.855 377.617 445.146 377.748 445.436 377.884L446.457 377.086C466.582 387.471 477.478 395.605 484.733 418.274C489.831 434.202 492.165 458.231 484.26 473.61C475.826 490.018 460.401 502.276 442.864 507.701C433.899 510.474 424.461 510.622 415.156 510.254C415.036 507.996 413.918 505.43 413.237 503.272C416.408 501.841 421.122 503.944 424.47 502.461C424.61 502.399 424.734 502.306 424.866 502.229C435.834 501.937 447.297 498.226 456.523 492.305Q457.785 491.501 459.004 490.634Q460.224 489.768 461.399 488.842Q462.574 487.916 463.701 486.932Q464.828 485.948 465.904 484.909Q466.98 483.87 468.003 482.778Q469.026 481.686 469.993 480.545Q470.96 479.403 471.869 478.215Q472.778 477.026 473.626 475.794Q474.474 474.562 475.259 473.288Q476.045 472.015 476.765 470.704Q477.486 469.393 478.14 468.047Q478.794 466.702 479.38 465.325Q479.966 463.949 480.483 462.545Q480.999 461.14 481.444 459.712Q481.89 458.284 482.263 456.835Q482.637 455.387 482.937 453.921C485.923 439.395 483.091 422.395 474.753 410.059Q473.894 408.768 472.971 407.522Q472.049 406.276 471.065 405.078Q470.081 403.88 469.038 402.733Q467.994 401.586 466.895 400.493Q465.796 399.4 464.643 398.363Q463.49 397.326 462.287 396.349Q461.083 395.371 459.832 394.456Q458.581 393.54 457.286 392.688Q455.99 391.836 454.653 391.051Q453.317 390.265 451.943 389.547Q450.568 388.83 449.159 388.182Q447.751 387.535 446.311 386.959Q444.872 386.383 443.405 385.88Q441.939 385.377 440.449 384.948Q438.959 384.52 437.449 384.166Q435.939 383.813 434.414 383.536C417.241 380.428 402.587 385.106 388.481 394.849C388.655 393.109 389.053 391.509 388.253 389.915C387.24 389.377 386.264 388.864 385.4 388.097C385.204 387.923 385.012 387.743 384.817 387.566C389.992 383.806 396.242 382.121 401.374 378.514C402.05 378.039 402.998 378.241 403.822 378.245C404.233 377.294 403.891 377.7 404.988 377.16L406.479 377.764C406.663 377.543 406.827 377.303 407.033 377.101C408.022 376.136 409.188 376.413 410.47 376.394C410.713 376.198 410.937 375.976 411.2 375.808C412.292 375.111 413.363 375.535 414.547 375.723L414.559 375.032Z"/>
	<path fill="#4F86BE" transform="scale(0.25 0.25)" d="M667.386 483.139C676.964 487.869 683.239 494.538 686.769 504.739Q687.073 505.622 687.338 506.517Q687.602 507.412 687.827 508.318Q688.052 509.225 688.236 510.14Q688.42 511.055 688.563 511.978Q688.706 512.9 688.808 513.828Q688.91 514.756 688.971 515.688Q689.032 516.62 689.051 517.553Q689.07 518.487 689.048 519.42Q689.025 520.353 688.961 521.285Q688.898 522.216 688.792 523.144Q688.687 524.071 688.541 524.994Q688.395 525.916 688.207 526.83Q688.02 527.745 687.792 528.65Q687.565 529.556 687.297 530.45Q687.029 531.345 686.722 532.226Q686.415 533.108 686.069 533.975C679.66 544.245 672.182 551.927 660.001 554.783C648.873 557.392 637.779 554.507 628.271 548.503C625.637 546.84 623.161 544.931 620.712 543.011C619.57 541.37 618.387 539.755 617.286 538.087C609.881 526.863 609.656 516.933 612.329 504.13L612.585 503.3C614.351 505.03 616.368 507.559 618.51 508.749L618.793 509.14C618.655 513.113 618.956 517.307 619.973 521.161C621.538 527.092 625.096 532.176 630.489 535.21C636.785 538.751 644.788 538.667 651.617 536.803C659.708 534.593 666.354 529.619 670.452 522.26C675.199 513.733 676.43 502.968 672.322 493.973C670.879 490.815 668.465 487.451 667.616 484.114C667.533 483.79 667.462 483.464 667.386 483.139Z"/>
	<path fill="#7F0638" transform="scale(0.25 0.25)" d="M596.115 372.933C603.681 375.413 612.771 377.9 620.8 377.415C638.728 384.368 652.105 394.879 659.943 412.787C667.255 429.492 668.315 449.331 661.502 466.371C659.797 470.635 657.655 474.829 655.02 478.598C652.745 478.388 650.373 478.496 648.084 478.472C656.835 464.631 660.629 447.556 657.027 431.441Q656.688 429.874 656.272 428.326Q655.856 426.779 655.362 425.254Q654.869 423.729 654.3 422.23Q653.73 420.732 653.087 419.264Q652.444 417.795 651.727 416.361Q651.011 414.927 650.224 413.531Q649.437 412.135 648.582 410.779Q647.726 409.424 646.803 408.113Q645.88 406.803 644.893 405.54Q643.906 404.277 642.857 403.065Q641.808 401.853 640.7 400.695Q639.591 399.537 638.426 398.436Q637.261 397.335 636.043 396.294Q634.824 395.253 633.555 394.274Q632.286 393.295 630.969 392.38Q629.653 391.466 628.292 390.619C615.255 382.425 598.211 379.976 583.29 383.504Q581.82 383.836 580.368 384.241Q578.917 384.646 577.487 385.123Q576.057 385.599 574.653 386.146Q573.249 386.694 571.873 387.31Q570.498 387.926 569.155 388.61Q567.812 389.294 566.505 390.043Q565.197 390.793 563.929 391.607Q562.66 392.421 561.434 393.297Q560.208 394.172 559.026 395.108Q557.845 396.044 556.711 397.037Q555.578 398.03 554.495 399.079Q553.413 400.127 552.384 401.228Q551.354 402.329 550.381 403.48Q549.408 404.631 548.493 405.828Q547.578 407.026 546.724 408.268Q545.87 409.509 545.079 410.792C536.622 424.592 533.504 442.005 537.428 457.769C541.2 472.926 551.324 485.296 564.636 493.273C577.974 501.266 594.66 504.104 609.775 500.181C611.509 499.731 613.182 499.17 614.855 498.527L612.585 503.3L612.329 504.13C609.813 506.154 607.464 506.924 604.278 507.407C587.999 509.871 569.77 503.818 556.749 494.164C545.441 485.78 535.09 472.282 533.103 458.044C530.227 437.429 532.844 414.264 545.787 397.395C558.729 380.527 575.881 375.541 596.115 372.933Z"/>
	<path fill="#0EA2F4" transform="scale(0.25 0.25)" d="M648.084 478.472C650.373 478.496 652.745 478.388 655.02 478.598C659.448 479.691 663.47 480.683 667.386 483.139C667.462 483.464 667.533 483.79 667.616 484.114C668.465 487.451 670.879 490.815 672.322 493.973C676.43 502.968 675.199 513.733 670.452 522.26C666.354 529.619 659.708 534.593 651.617 536.803C644.788 538.667 636.785 538.751 630.489 535.21C625.096 532.176 621.538 527.092 619.973 521.161C618.956 517.307 618.655 513.113 618.793 509.14L618.51 508.749C616.368 507.559 614.351 505.03 612.585 503.3L614.855 498.527C624.724 484.721 631.368 481.447 648.084 478.472Z"/>
	<path fill="#7AC0E7" transform="scale(0.25 0.25)" d="M618.51 508.749C618.018 502.985 619.211 498.636 623.089 494.127C625.805 490.97 629.804 488.049 634.096 487.787C637.08 487.605 640.234 488.938 642.407 490.953C643.831 492.274 644.675 493.95 644.609 495.919C644.466 500.181 641.017 504.435 637.92 507.06C633.773 510.575 629.007 512.463 623.853 513.975L618.793 509.14L618.51 508.749Z"/>
	<path fill="#59136A" transform="scale(0.25 0.25)" d="M596.115 372.933C584.554 366.586 570.799 361.363 566.668 347.481C564.841 341.34 564.739 332.995 568.046 327.377C569.517 324.878 571.949 322.847 574.85 322.285C577.91 321.692 581.098 323.083 583.518 324.835C586.179 326.76 588.54 329.07 591.254 330.938Q593.404 332.419 595.648 333.752Q597.893 335.084 600.222 336.262Q602.552 337.44 604.956 338.458Q607.36 339.475 609.827 340.329Q612.294 341.182 614.813 341.866Q617.332 342.551 619.891 343.063Q622.451 343.576 625.039 343.914Q627.628 344.253 630.233 344.416C635.849 344.728 642.188 343.725 647.673 344.701C650.648 345.23 653.693 346.34 654.251 349.688C655.087 354.708 652.092 361.703 649.023 365.585C642.307 374.083 630.857 375.935 620.8 377.415C612.771 377.9 603.681 375.413 596.115 372.933Z"/>
	<path fill="#7C2D88" transform="scale(0.25 0.25)" d="M574.796 326.856C582.007 327.578 590.345 336.004 596.635 339.543C600.877 341.929 605.778 343.613 610.441 344.943C617.006 346.815 623.898 348.119 630.73 348.402C634.676 348.565 638.861 348.303 642.765 348.761C643.722 348.873 644.852 349.056 645.583 349.717C646.486 350.534 646.959 351.55 646.882 352.789C646.679 356.079 643.679 358.756 641.284 360.628Q638.766 361.702 636.132 362.451Q633.499 363.199 630.792 363.61C615.298 366.102 598.508 363.344 585.674 353.96C579.917 349.75 573.403 342.68 572.425 335.37C571.935 331.714 572.593 329.732 574.796 326.856Z"/>
	<path fill="#4F86BE" transform="scale(0.25 0.25)" d="M368.17 477.118C370.638 477.473 373.282 478.071 375.772 478.023C377.609 479.712 379.764 480.509 382.015 481.48C390.359 485.078 393.739 487.938 399.028 495.148L399.093 495.573C399.86 500.334 401.33 504.963 402.148 509.72C403.869 519.737 401.813 530.616 395.886 538.987C390.461 546.649 381.825 551.809 372.61 553.372C361.114 555.322 351.687 552.221 342.012 546.154C337.473 542.15 333.644 537.48 331.056 531.98C326.134 521.517 327.567 510.636 331.294 500.087C333.95 493.838 337.911 489.449 343.13 485.227C346.484 482.777 350.174 481.097 354.005 479.544C358.577 477.943 363.364 477.439 368.17 477.118Z"/>
	<path fill="#0EA2F4" transform="scale(0.25 0.25)" d="M354.005 479.544C357.419 482.937 363.099 482.336 367.402 484.421C374.857 488.033 380.169 500.133 380.273 508.098C380.364 515.111 377.26 521.968 372.296 526.855C367.767 531.314 361.741 534.506 355.273 534.471C349.943 534.443 344.851 532.433 341.2 528.505C336.461 523.406 334.776 516.039 335.132 509.23C335.418 503.756 337.503 497.241 341.498 493.338C342.392 491.999 343.238 490.901 344.407 489.79C344.503 489.397 344.668 488.783 344.69 488.393C344.777 486.875 344.013 486.324 343.13 485.227C346.484 482.777 350.174 481.097 354.005 479.544Z"/>
	<path fill="#F2F2F1" transform="scale(0.25 0.25)" d="M344.407 489.79C347.135 488.695 350.854 487.441 353.675 488.991C354.866 489.645 355.442 490.638 355.783 491.915C356.504 494.618 354.925 498.114 353.389 500.251C352.174 501.939 350.214 503.845 347.991 503.897C346.612 503.929 345.494 503.201 344.626 502.196C342.58 499.825 341.983 496.341 341.498 493.338C342.392 491.999 343.238 490.901 344.407 489.79Z"/>
	<path fill="#F2F2F1" transform="scale(0.25 0.25)" d="M388.481 394.849C402.587 385.106 417.241 380.428 434.414 383.536Q435.939 383.813 437.449 384.166Q438.959 384.52 440.449 384.948Q441.939 385.377 443.405 385.88Q444.872 386.383 446.311 386.959Q447.751 387.535 449.159 388.182Q450.568 388.83 451.943 389.547Q453.317 390.265 454.653 391.051Q455.99 391.836 457.286 392.688Q458.581 393.54 459.832 394.456Q461.083 395.371 462.287 396.349Q463.49 397.326 464.643 398.363Q465.796 399.4 466.895 400.493Q467.994 401.586 469.038 402.733Q470.081 403.88 471.065 405.078Q472.049 406.276 472.971 407.522Q473.894 408.768 474.753 410.059C483.091 422.395 485.923 439.395 482.937 453.921Q482.637 455.387 482.263 456.835Q481.89 458.284 481.444 459.712Q480.999 461.14 480.483 462.545Q479.966 463.949 479.38 465.325Q478.794 466.702 478.14 468.047Q477.486 469.393 476.765 470.704Q476.045 472.015 475.259 473.288Q474.474 474.562 473.626 475.794Q472.778 477.026 471.869 478.215Q470.96 479.403 469.993 480.545Q469.026 481.686 468.003 482.778Q466.98 483.87 465.904 484.909Q464.828 485.948 463.701 486.932Q462.574 487.916 461.399 488.842Q460.224 489.768 459.004 490.634Q457.785 491.501 456.523 492.305C447.297 498.226 435.834 501.937 424.866 502.229C415.742 502.03 406.587 500.537 399.028 495.148C393.739 487.938 390.359 485.078 382.015 481.48C379.764 480.509 377.609 479.712 375.772 478.023C368.945 465.678 363.722 453.873 364.614 439.412C365.738 421.204 375.147 406.683 388.481 394.849Z"/>
	<path fill="#9D312F" transform="scale(0.25 0.25)" d="M406.799 417.103C407.028 416.892 407.245 416.668 407.486 416.471C413.798 411.319 426.529 409.933 434.337 411.676C444.855 414.023 454.561 420.872 460.183 430.063Q460.664 430.851 461.105 431.661Q461.546 432.472 461.946 433.304Q462.346 434.136 462.704 434.987Q463.061 435.838 463.376 436.705Q463.691 437.573 463.961 438.455Q464.232 439.338 464.458 440.233Q464.685 441.127 464.866 442.033Q465.047 442.938 465.183 443.85Q465.318 444.763 465.408 445.682Q465.498 446.601 465.542 447.523Q465.585 448.445 465.583 449.368Q465.58 450.291 465.532 451.212Q465.483 452.134 465.388 453.052Q465.293 453.97 465.152 454.882Q465.012 455.794 464.825 456.698Q464.639 457.602 464.408 458.496C461.798 468.665 454.982 477.229 445.978 482.547Q445.114 483.063 444.225 483.535Q443.337 484.007 442.425 484.435Q441.514 484.862 440.583 485.244Q439.652 485.626 438.703 485.961Q437.754 486.296 436.79 486.583Q435.825 486.871 434.848 487.11Q433.87 487.349 432.882 487.54Q431.894 487.73 430.898 487.871Q429.901 488.012 428.899 488.103Q427.897 488.195 426.891 488.236Q425.886 488.278 424.879 488.269Q423.873 488.261 422.868 488.202Q421.864 488.144 420.863 488.036Q419.863 487.927 418.869 487.77Q417.875 487.612 416.89 487.405Q415.905 487.198 414.932 486.942C405.292 484.438 396.517 478.424 391.524 469.708C386.609 461.13 385.784 450.365 388.369 440.9C390.238 434.061 393.832 428.135 398.756 423.076C398.411 426.94 398.224 429.647 400.83 432.844Q401.18 433.27 401.545 433.682C404.488 435.311 407.47 436.27 410.841 435.453C413.038 434.921 414.77 433.552 415.834 431.564C417.616 428.231 416.748 425.316 415.825 421.917C412.992 419.282 410.438 418.155 406.799 417.103Z"/>
	<path fill="#4B0D0E" transform="scale(0.25 0.25)" d="M415.825 421.917C423.639 419.327 437.04 417.414 444.88 420.531C448.705 421.2 451.864 421.614 454.201 425.077C454.952 426.19 455.551 427.392 456.133 428.6C455.806 430.403 455.627 432.406 454.933 434.1C455.329 434.443 455.486 434.495 455.692 434.979C457.569 439.39 453.867 449.708 451.72 453.825C448.061 460.84 442.239 466.242 434.504 468.458C427.459 470.476 419.504 469.659 413.13 465.993C407.104 462.528 402.958 456.907 401.15 450.233C399.912 445.663 399.116 437.898 401.545 433.682C404.488 435.311 407.47 436.27 410.841 435.453C413.038 434.921 414.77 433.552 415.834 431.564C417.616 428.231 416.748 425.316 415.825 421.917Z"/>
	<path fill="#F2F2F1" transform="scale(0.25 0.25)" d="M444.88 420.531C448.705 421.2 451.864 421.614 454.201 425.077C454.952 426.19 455.551 427.392 456.133 428.6C455.806 430.403 455.627 432.406 454.933 434.1C454.329 434.779 453.718 435.469 453.042 436.077C451.151 437.776 448.471 438.697 445.94 438.459C443.694 438.247 441.67 437.042 440.307 435.259Q440.049 434.918 439.826 434.554Q439.602 434.189 439.416 433.805Q439.23 433.42 439.083 433.018Q438.936 432.617 438.829 432.203Q438.723 431.789 438.658 431.367Q438.592 430.945 438.569 430.518Q438.546 430.091 438.565 429.664Q438.585 429.237 438.646 428.814C439.216 424.792 441.856 422.803 444.88 420.531Z"/>
	<defs>
		<linearGradient id="gradient_4" gradientUnits="userSpaceOnUse" x1="655.24664" y1="459.16962" x2="539.3194" y2="424.74094">
			<stop offset="0" stop-color="#D3C6C7"/>
			<stop offset="1" stop-color="#F4F6F7"/>
		</linearGradient>
	</defs>
	<path fill="url(#gradient_4)" transform="scale(0.25 0.25)" d="M614.855 498.527C613.182 499.17 611.509 499.731 609.775 500.181C594.66 504.104 577.974 501.266 564.636 493.273C551.324 485.296 541.2 472.926 537.428 457.769C533.504 442.005 536.622 424.592 545.079 410.792Q545.87 409.509 546.724 408.268Q547.578 407.026 548.493 405.828Q549.408 404.631 550.381 403.48Q551.354 402.329 552.384 401.228Q553.413 400.127 554.495 399.079Q555.578 398.03 556.711 397.037Q557.845 396.044 559.026 395.108Q560.208 394.172 561.434 393.297Q562.66 392.421 563.929 391.607Q565.197 390.793 566.505 390.043Q567.812 389.294 569.155 388.61Q570.498 387.926 571.873 387.31Q573.249 386.694 574.653 386.146Q576.057 385.599 577.487 385.123Q578.917 384.646 580.368 384.241Q581.82 383.836 583.29 383.504C598.211 379.976 615.255 382.425 628.292 390.619Q629.653 391.466 630.969 392.38Q632.286 393.295 633.555 394.274Q634.824 395.253 636.043 396.294Q637.261 397.335 638.426 398.436Q639.591 399.537 640.7 400.695Q641.808 401.853 642.857 403.065Q643.906 404.277 644.893 405.54Q645.88 406.803 646.803 408.113Q647.726 409.424 648.582 410.779Q649.437 412.135 650.224 413.531Q651.011 414.927 651.728 416.361Q652.444 417.795 653.087 419.264Q653.73 420.732 654.3 422.23Q654.869 423.729 655.362 425.254Q655.856 426.779 656.272 428.326Q656.688 429.874 657.027 431.441C660.629 447.556 656.835 464.631 648.084 478.472C631.368 481.447 624.724 484.721 614.855 498.527Z"/>
	<path fill="#E4CEC9" transform="scale(0.25 0.25)" d="M645.38 418.31C647.92 420.421 650.256 422.073 652.288 424.741C653.463 432.045 653.524 440.767 651.871 447.994C650.44 454.246 647.601 457.008 642.441 460.345L638.561 464.315C646.402 448.079 648.961 436.313 645.38 418.31Z"/>
	<path fill="#9D312F" transform="scale(0.25 0.25)" d="M582.858 414.991C594.448 411.957 604.391 411.341 615.059 417.683C624.005 423.001 632.634 433.524 635.067 443.698C637.208 452.657 635.156 461.986 630.32 469.728Q629.806 470.551 629.251 471.347Q628.696 472.143 628.102 472.91Q627.508 473.677 626.876 474.414Q626.245 475.15 625.577 475.854Q624.909 476.558 624.207 477.228Q623.504 477.897 622.77 478.531Q622.035 479.164 621.269 479.76Q620.503 480.356 619.708 480.913Q618.914 481.47 618.092 481.986Q617.271 482.502 616.424 482.977Q615.578 483.451 614.708 483.882Q613.839 484.314 612.95 484.701Q612.06 485.088 611.152 485.431Q610.244 485.773 609.32 486.069Q608.396 486.365 607.459 486.615Q606.521 486.865 605.572 487.067Q604.581 487.286 603.58 487.455Q602.579 487.624 601.571 487.743Q600.563 487.861 599.551 487.929Q598.538 487.997 597.523 488.013Q596.508 488.03 595.494 487.996Q594.48 487.962 593.468 487.877Q592.457 487.792 591.451 487.656Q590.445 487.52 589.448 487.334Q588.45 487.148 587.463 486.912Q586.475 486.676 585.502 486.391Q584.527 486.105 583.569 485.771Q582.611 485.438 581.67 485.056Q580.729 484.674 579.809 484.246Q578.889 483.818 577.992 483.344Q577.094 482.87 576.222 482.351Q575.349 481.833 574.504 481.271Q573.75 480.78 573.021 480.251Q572.293 479.722 571.592 479.157Q570.891 478.592 570.22 477.993Q569.548 477.393 568.908 476.76Q568.268 476.128 567.66 475.463Q567.052 474.799 566.479 474.105Q565.906 473.411 565.368 472.689Q564.831 471.967 564.33 471.219Q563.83 470.471 563.368 469.698Q562.906 468.926 562.483 468.131Q562.061 467.336 561.679 466.521Q561.297 465.706 560.957 464.872Q560.617 464.039 560.319 463.189Q560.021 462.34 559.767 461.477Q559.512 460.613 559.302 459.738Q559.091 458.863 558.925 457.978Q558.758 457.11 558.633 456.235Q558.508 455.36 558.426 454.479Q558.344 453.599 558.305 452.716Q558.266 451.833 558.27 450.949Q558.274 450.065 558.321 449.182Q558.369 448.299 558.459 447.42Q558.549 446.54 558.682 445.666Q558.815 444.792 558.991 443.926Q559.166 443.059 559.384 442.203Q559.601 441.346 559.86 440.5Q560.12 439.655 560.42 438.824Q560.72 437.992 561.06 437.176Q561.4 436.36 561.78 435.562Q562.159 434.763 562.578 433.984Q562.996 433.206 563.451 432.448Q563.907 431.69 564.399 430.956C565.332 429.587 566.342 428.267 567.346 426.949C568.815 430.286 570.028 432.802 573.599 434.332C573.735 434.39 573.878 434.432 574.018 434.482C576.987 434.552 580.22 434.859 582.985 433.567C586.552 431.9 587.631 428.479 588.763 425.037C588.154 420.426 586.294 417.998 582.858 414.991Z"/>
	<path fill="#F2F2F1" transform="scale(0.25 0.25)" d="M607.315 426.746C609.389 424.766 611.653 423.069 614.679 423.213C616.735 423.311 618.312 424.318 619.646 425.835C621.331 427.75 621.91 430.107 622.574 432.5C621.946 435.03 621.308 437.012 619.98 439.283C617.555 440.139 614.865 440.867 612.317 440.112C610.019 439.431 608.271 438.066 607.213 435.897C605.635 432.662 606.296 430.03 607.315 426.746Z"/>
	<path fill="#4B0D0E" transform="scale(0.25 0.25)" d="M588.763 425.037C592.505 423.1 600.286 424.034 604.305 425.303C605.378 425.641 606.369 426.141 607.315 426.746C606.296 430.03 605.635 432.662 607.213 435.897C608.271 438.066 610.019 439.431 612.317 440.112C614.865 440.867 617.555 440.139 619.98 439.283C621.236 442.147 620.706 446.859 620.166 449.897C619.027 456.294 615.635 461.802 610.197 465.437Q609.667 465.785 609.12 466.106Q608.573 466.427 608.01 466.72Q607.448 467.013 606.872 467.277Q606.295 467.541 605.706 467.776Q605.117 468.011 604.517 468.216Q603.917 468.421 603.307 468.595Q602.697 468.77 602.08 468.913Q601.462 469.057 600.838 469.169Q600.214 469.281 599.585 469.362Q598.956 469.442 598.323 469.491Q597.691 469.54 597.057 469.557Q596.423 469.574 595.789 469.559Q595.155 469.544 594.523 469.497Q593.891 469.45 593.261 469.372Q592.632 469.293 592.008 469.183Q591.383 469.073 590.765 468.931Q590.177 468.797 589.597 468.634Q589.017 468.47 588.446 468.278Q587.875 468.085 587.315 467.864Q586.754 467.643 586.206 467.393Q585.657 467.144 585.122 466.867Q584.587 466.59 584.066 466.286Q583.546 465.982 583.041 465.653Q582.537 465.323 582.05 464.968Q581.562 464.613 581.094 464.234Q580.625 463.855 580.177 463.453Q579.728 463.051 579.3 462.626Q578.873 462.202 578.467 461.756Q578.061 461.31 577.679 460.845Q577.296 460.379 576.938 459.895Q576.579 459.41 576.246 458.908Q575.912 458.406 575.605 457.888C571.105 450.328 571.849 442.554 574.018 434.482C576.987 434.552 580.22 434.859 582.985 433.567C586.552 431.9 587.631 428.479 588.763 425.037Z"/>
	<defs>
		<linearGradient id="gradient_5" gradientUnits="userSpaceOnUse" x1="368.31473" y1="510.17465" x2="466.07199" y2="198.50897">
			<stop offset="0" stop-color="#D2216A"/>
			<stop offset="1" stop-color="#E55089"/>
		</linearGradient>
	</defs>
	<path fill="url(#gradient_5)" transform="scale(0.25 0.25)" d="M508.551 222.188C514.985 222.311 521.522 222.22 527.933 222.722L532.671 223.112C542.644 224.144 552.463 225.046 562.165 227.732C570.008 238.898 573.162 249.504 570.771 263.088C566.667 286.403 548.474 305.267 529.692 318.259C511.989 330.504 492.635 338.717 472.058 344.829C464.934 346.946 457.863 349.119 450.372 349.091C444.525 360.194 439.018 366.148 426.764 369.926C422.239 371.32 417.054 372.141 412.769 374.083L414.559 375.032L414.547 375.723C413.363 375.535 412.292 375.111 411.2 375.808C410.937 375.976 410.713 376.198 410.47 376.394C409.188 376.413 408.022 376.136 407.033 377.101C406.827 377.303 406.663 377.543 406.479 377.764L404.988 377.16C403.891 377.7 404.233 377.294 403.822 378.245C402.998 378.241 402.05 378.039 401.374 378.514C396.242 382.121 389.992 383.806 384.817 387.566C385.012 387.743 385.204 387.923 385.4 388.097C386.264 388.864 387.24 389.377 388.253 389.915C389.053 391.509 388.655 393.109 388.481 394.849C375.147 406.683 365.738 421.204 364.614 439.412C363.722 453.873 368.945 465.678 375.772 478.023C373.282 478.071 370.638 477.473 368.17 477.118C363.364 477.439 358.577 477.943 354.005 479.544C350.174 481.097 346.484 482.777 343.13 485.227C337.911 489.449 333.95 493.838 331.294 500.087C314.305 491.603 298.13 480.116 282.669 469.116C279.188 466.639 276.203 463.353 272.679 461.037C271.636 460.351 270.763 460.234 269.539 460.129C269.144 430.114 276.518 399.526 287.707 371.806Q288.542 369.715 289.418 367.64Q290.293 365.566 291.209 363.509Q292.125 361.452 293.081 359.413Q294.037 357.375 295.033 355.355Q296.028 353.335 297.063 351.336Q298.098 349.336 299.172 347.357Q300.246 345.377 301.358 343.419Q302.47 341.462 303.62 339.526Q304.771 337.59 305.958 335.677Q307.146 333.764 308.371 331.875Q309.596 329.986 310.858 328.121Q312.119 326.255 313.417 324.415Q314.715 322.575 316.049 320.761Q317.382 318.947 318.751 317.159Q320.12 315.371 321.523 313.61Q322.926 311.849 324.364 310.116Q325.801 308.383 327.272 306.678Q328.743 304.973 330.247 303.297Q331.752 301.622 333.288 299.976Q334.825 298.33 336.393 296.714Q337.961 295.098 339.561 293.514Q341.161 291.929 342.791 290.376Q344.421 288.823 346.082 287.302Q347.742 285.781 349.432 284.292Q351.121 282.804 352.84 281.349Q354.558 279.894 356.305 278.473Q358.051 277.052 359.825 275.665Q361.599 274.278 363.4 272.926Q365.201 271.574 367.028 270.258Q368.854 268.941 370.707 267.661Q372.559 266.38 374.435 265.136Q376.312 263.892 378.213 262.685C396.288 251.339 415.07 242.824 434.634 234.492C453.88 228.426 472.949 225.103 492.987 222.81L498.158 222.557L499.452 222.443C502.502 222.507 505.506 222.369 508.551 222.188Z"/>
	<path fill="#F2F2F1" transform="scale(0.25 0.25)" d="M306.992 403.512C308.52 403.444 310.089 403.42 311.587 403.778C314.094 404.378 316.377 405.955 317.561 408.277C318.799 410.705 318.823 413.657 317.941 416.204C316.478 420.431 313.457 422.679 309.626 424.654C308.15 424.742 306.548 424.805 305.096 424.483C302.975 424.014 300.782 422.745 299.596 420.89C298.107 418.563 297.979 415.657 298.65 413.036C299.852 408.343 303.042 405.833 306.992 403.512Z"/>
	<path fill="#7F0638" transform="scale(0.25 0.25)" d="M368.17 477.118C360.042 460.884 356.616 444.129 360.575 426.151C363.725 411.847 372.125 395.61 384.817 387.566C385.012 387.743 385.204 387.923 385.4 388.097C386.264 388.864 387.24 389.377 388.253 389.915C389.053 391.509 388.655 393.109 388.481 394.849C375.147 406.683 365.738 421.204 364.614 439.412C363.722 453.873 368.945 465.678 375.772 478.023C373.282 478.071 370.638 477.473 368.17 477.118Z"/>
	<path fill="#E4CEC9" transform="scale(0.25 0.25)" d="M348.127 325.533C351.125 325.64 353.963 326.063 356.613 327.564C360.288 329.645 362.527 332.904 363.577 336.96C365.848 345.732 363.296 356.07 358.741 363.703C352.81 373.646 344.649 379.216 333.592 382.071C330.33 382.075 327.213 381.776 324.265 380.276C320.604 378.413 318.073 375.449 316.826 371.532C314.486 364.178 316.798 354.774 320.259 348.097C326.402 336.245 335.61 329.459 348.127 325.533Z"/>
	<path fill="#59136A" transform="scale(0.25 0.25)" d="M412.769 374.083C412.056 374.057 412.335 374.032 411.658 374.137C404.568 375.234 396.888 376.425 389.723 375.38C384.466 374.613 379.381 372.513 376.272 368.003C373.735 364.322 371.326 358.649 372.62 354.163C373.646 350.605 379.332 348.967 382.501 348.292C388.768 346.958 395.269 346.032 401.313 343.839C410.526 340.496 419.032 333.754 427.228 328.471C431.396 325.785 436.6 322.529 441.764 323.812C444.817 324.57 447.152 326.593 448.69 329.297C452.011 335.139 452.251 342.762 450.372 349.091C444.525 360.194 439.018 366.148 426.764 369.926C422.239 371.32 417.054 372.141 412.769 374.083Z"/>
	<path fill="#7C2D88" transform="scale(0.25 0.25)" d="M438.897 327.938C439.096 327.984 439.3 328.015 439.495 328.076C440.956 328.538 442.23 329.654 442.944 331.007C444.707 334.345 444.628 339.025 443.519 342.543C441.401 349.261 435.473 353.885 429.5 357.107C416.95 363.878 399.481 367.45 385.573 363.355C381.923 360.398 379.774 357.149 377.548 353.103C392.815 349.779 407.152 346.616 421.015 338.961C426.891 335.716 432.126 331.472 438.091 328.354L438.897 327.938Z"/>
	<path fill="#E4CEC9" transform="scale(0.25 0.25)" d="M449.239 240.194C449.396 240.172 449.552 240.146 449.709 240.129C458.674 239.187 469.803 240.543 476.829 246.668C480.834 250.159 483.517 255 483.809 260.354C484.317 269.654 478.638 278.317 472.664 284.897C457.535 301.561 427.059 315.358 404.624 316.473C394.498 317.053 382.569 316.685 374.148 310.22C370.663 307.545 368.524 303.998 368.079 299.604C367.243 291.342 371.233 283.098 376.366 276.874C393.316 256.326 423.004 242.862 449.239 240.194Z"/>
</svg>
